<svg width="60" height="23" fill="none" xmlns="http://www.w3.org/2000/svg">
    <mask id="a" mask-type="alpha" maskUnits="userSpaceOnUse" x="0" y="0" width="60" height="23">
        <path fill-rule="evenodd" clip-rule="evenodd" d="M.86 22.565h58.92V.83H.86v21.734z" fill="#fff"/>
    </mask>
    <g mask="url(#a)" fill="#76B82A">
        <path d="M39.67 11.009v1.376h1.887v1.24h-3.774V9.77h8.087V5.364H35.087c-.893 0-1.618.74-1.618 1.652v9.362c0 .912.725 1.652 1.618 1.652h9.165c.894 0 1.618-.74 1.618-1.652v-5.37h-6.2z"/>
        <path fill-rule="evenodd" clip-rule="evenodd" d="M48.997 5.364h9.165c.893 0 1.617.74 1.617 1.653v9.36c0 .914-.724 1.653-1.617 1.653h-9.165c-.893 0-1.618-.74-1.618-1.652V7.017c0-.913.725-1.653 1.618-1.653zm2.696 8.26h3.773V9.77h-3.773v3.856zM15.784 19.407l8.928-14.043h7.248V18.03h-4.313v-2.203h-4.444l-2.276 3.58h1.937l-6.62 3.157-2.007-3.157h1.547zm11.863-10.57-3.044 4.788h3.044V8.837z"/>
        <path d="m5.99 18.03 3.739-5.882v5.882h5.18l8.928-14.043h1.397L23.227.83l-6.62 3.157h2.04l-4.605 7.243V5.364H8.899l-3.726 5.861v-5.86H.86V18.03h5.13z"/>
    </g>
</svg>
