<svg width="1400" height="359" fill="none" xmlns="http://www.w3.org/2000/svg">
    <path d="M.31 353.526h1400" stroke="#263238" stroke-width="2" stroke-linecap="round" stroke-linejoin="round"/>
    <path d="M1156.03 122.366c-53.59-81.204-196.842-126.91-267.283-40.759-2.769 3.39-5.35 6.93-7.731 10.604-17.394 26.808-42.777 73.213-81.771 62.011-26.689-7.66-46.936-28.978-73.387-37.208-34.917-10.852-64.211 11.707-81.393 40.464-19.98 33.429-26.791 72.652-8.9 108.739 33.316 67.299 133.788 82.133 200.631 75.723 48.934-4.699 93.772-29.364 143.129-31.084 35.515-1.232 70.675 7.67 104.125 18.779 15.5 5.15 31.04 10.824 47.31 12.204 58.22 4.929 62.99-47.822 59.13-92.148-3.84-44.07-8.82-89.463-33.86-127.325z" fill="#4788D8"/>
    <path opacity=".7" d="M1156.03 122.366c-53.59-81.204-196.842-126.91-267.283-40.759-2.769 3.39-5.35 6.93-7.731 10.604-17.394 26.808-42.777 73.213-81.771 62.011-26.689-7.66-46.936-28.978-73.387-37.208-34.917-10.852-64.211 11.707-81.393 40.464-19.98 33.429-26.791 72.652-8.9 108.739 33.316 67.299 133.788 82.133 200.631 75.723 48.934-4.699 93.772-29.364 143.129-31.084 35.515-1.232 70.675 7.67 104.125 18.779 15.5 5.15 31.04 10.824 47.31 12.204 58.22 4.929 62.99-47.822 59.13-92.148-3.84-44.07-8.82-89.463-33.86-127.325z" fill="#fff"/>
    <path d="M1010.39 17.311s25.67 70.7 94.12 121.188v215.159M1057.84 1.772s12.44 76.133 53.65 135.164M1106.05 1s-1.37 91.203 17.89 132.837M1065.9 82.025c-.88-1.591-1.76-3.228-2.62-4.892M1108.38 136.164s-20.25-16.468-39.11-48.264M1123.27 82.034c-.39 13.737.19 36.42 6.89 51.803M1123.94 70.136s-.2 1.94-.38 5.213M1110.72 143.942l-1.56 145.269" stroke="#263238" stroke-linecap="round" stroke-linejoin="round"/>
    <path d="M1104.51 138.499s-83.22-30.297-118.216-111.864M1107.14 137.598h25.81M1106.13 141.616h26.15M1117.86 142.287l-2.68 43.198M1123.23 141.956l1.34 17.075M829.172 17.311s-25.673 70.7-94.103 121.188v215.159M781.729 1.772s-12.436 76.133-53.656 135.164M733.541 1s1.371 91.203-17.886 132.837M731.184 136.164s24.854-20.229 45.105-59.04M715.627 70.136s3.968 40.301-6.222 63.701M728.846 143.942l1.556 145.269M850.169 33.513c1.08-2.25 2.117-4.542 3.111-6.878" stroke="#263238" stroke-linecap="round" stroke-linejoin="round"/>
    <path d="M735.069 138.499s74.174-27.005 111.915-98.66" stroke="#263238" stroke-linecap="round" stroke-linejoin="round"/>
    <path opacity=".2" fill-rule="evenodd" clip-rule="evenodd" d="M865.885 92.33c.081.621.163 1.246.248 1.88a15.48 15.48 0 0 0-1.861-.618 8.123 8.123 0 0 0-1.843-.148 4.323 4.323 0 0 0-4.155 4.224 4.213 4.213 0 0 0 3.925 4.013 6.694 6.694 0 0 0 4.984-1.734 3.505 3.505 0 0 0 1.465-3.256c-.166-1.23-.341-2.46-.525-3.69l-.121-.785c-.716-4.631-1.438-9.301-2.127-13.972-.083-.507-.332-.627-.746-.728l-11.324-2.712c-.285-.071-.579-.129-.901-.192l-.425-.085.471 5.652c.33 3.959.659 7.9.984 11.873l-.543-.185a7.438 7.438 0 0 0-3.805-.48 4.39 4.39 0 0 0-3.548 4.695 3.908 3.908 0 0 0 4.34 3.376 7.092 7.092 0 0 0 5.298-2.767 2.89 2.89 0 0 0 .571-1.845c-.222-2.842-.506-5.679-.79-8.514l-.279-2.812c-.032-.35-.058-.694-.085-1.051a90.962 90.962 0 0 0-.062-.794c.987.24 1.965.476 2.936.71 2.163.521 4.292 1.034 6.415 1.568a.922.922 0 0 1 .424.646c.21 1.346.397 2.697.583 4.044l.154 1.112c.118.858.23 1.713.342 2.575zm-9.979-12.776c-1.225-.314-1.271-.397-1.069-1.845l2.82.692 5.38 1.393c1.272.341 1.364.489 1.272 1.927l-4.865-1.245-3.538-.922zM1162.15 83.237l.15 1.122a15.38 15.38 0 0 0-1.81-.636 8.575 8.575 0 0 0-1.88-.139 4.31 4.31 0 0 0-4.15 4.215c.1 2.141 1.78 3.87 3.92 4.022 1.83.12 3.63-.505 4.99-1.734a3.512 3.512 0 0 0 1.45-3.265c-.15-1.227-.33-2.463-.52-3.69l-.75-4.855c-.5-3.293-1.01-6.595-1.5-9.902-.07-.516-.33-.636-.74-.728l-11.34-2.648c-.27-.067-.55-.122-.85-.18-.15-.031-.31-.062-.47-.096l.54 6.604c.31 3.639.61 7.267.91 10.92l-.55-.184a7.46 7.46 0 0 0-3.81-.48 4.39 4.39 0 0 0-3.53 4.695 3.906 3.906 0 0 0 4.34 3.385 7.097 7.097 0 0 0 5.29-2.767 2.86 2.86 0 0 0 .57-1.891c-.21-2.607-.46-5.21-.72-7.811-.12-1.172-.23-2.344-.34-3.515a60.75 60.75 0 0 1-.16-1.845c3.2.766 6.27 1.503 9.35 2.278.19.046.42.406.42.646.27 1.715.51 3.43.74 5.156.15 1.1.3 2.202.45 3.323zm-10.09-13.524c-1.22-.314-1.26-.406-1.06-1.845v-.028c.11.025.21.05.32.074.83.196 1.67.391 2.5.646.9.235 1.79.465 2.69.696.9.23 1.79.461 2.69.696 1.28.332 1.37.49 1.28 1.919l-4.88-1.236c-1.01-.277-1.99-.527-3.02-.79-.17-.044-.34-.088-.52-.132z" fill="#000"/>
    <path opacity=".2" d="M984.038 69.87c.553 1.374 1.059 2.665 1.594 3.938 1.161 2.773 2.325 5.54 3.492 8.3a2.84 2.84 0 0 1 0 2.306 6.666 6.666 0 0 1-4.128 3.948c-1.972.673-4.469-1.097-4.68-3.302a4.115 4.115 0 0 1 4.155-4.76h1.843l-6.081-15.31c.497-.203.921-.406 1.419-.572a.367.367 0 0 1 .34.074c1.042 1.273 2.553 1.762 3.944 2.463a32.764 32.764 0 0 1 3.483 1.67c3.362 2.204 4.201 5.257 3.077 9.14-.065.22-.304.387-.47.58a2.174 2.174 0 0 1-.258-.728c.067-4.162-3.215-7.608-7.371-7.738l-.359-.01zM676.999 78.936c.562 1.374 1.068 2.665 1.603 3.938 1.151 2.767 2.331 5.534 3.492 8.301a2.873 2.873 0 0 1 0 2.306 6.666 6.666 0 0 1-4.128 3.948c-1.972.673-4.469-1.098-4.68-3.302a4.103 4.103 0 0 1 4.155-4.76h1.842L673.23 74.03c.498-.203.922-.406 1.419-.572a.368.368 0 0 1 .341.074c1.041 1.273 2.552 1.762 3.934 2.463a32.79 32.79 0 0 1 3.492 1.67c3.363 2.203 4.201 5.256 3.077 9.14-.064.22-.313.387-.47.58a2.172 2.172 0 0 1-.257-.728c.067-4.162-3.215-7.608-7.371-7.739l-.396.019zM782.64 59.133c.553 1.375 1.06 2.666 1.594 3.939 1.161 2.78 2.328 5.546 3.501 8.3.318.737.318 1.57 0 2.307a6.673 6.673 0 0 1-4.136 3.947c-1.963.673-4.469-1.097-4.681-3.311a4.113 4.113 0 0 1 4.091-4.713h1.843l-6.054-15.338c.498-.203.922-.406 1.419-.572a.386.386 0 0 1 .35.074c1.032 1.263 2.552 1.761 3.934 2.462a32.652 32.652 0 0 1 3.483 1.67c3.372 2.204 4.202 5.257 3.077 9.14-.064.221-.304.387-.46.58a2.261 2.261 0 0 1-.267-.728 7.615 7.615 0 0 0-7.325-7.738c-.101-.028-.194-.019-.369-.019zM1022.71 130.319l-9.66-19.498c.69-.221 1.31-.461 1.95-.609.14 0 .43.231.53.424 1.71 3.302 3.4 6.623 5.1 9.934 1.85 3.689 3.74 7.379 5.68 10.994a5.43 5.43 0 0 1-.56 6.456 6.169 6.169 0 0 1-7.59 2.048c-2.55-1.208-4.21-4.768-2.77-7.25a4.835 4.835 0 0 1 3.79-2.444c1.17-.088 2.35-.106 3.53-.055zM1037.38 125.135l-9.66-19.498c.69-.23 1.32-.461 1.96-.608.14 0 .43.23.52.424 1.71 3.302 3.4 6.622 5.1 9.933 1.89 3.69 3.74 7.379 5.69 10.985a5.447 5.447 0 0 1-.57 6.457 6.182 6.182 0 0 1-7.6 2.056c-2.54-1.208-4.2-4.777-2.76-7.258.78-1.388 2.2-2.3 3.79-2.435 1.17-.093 2.35-.112 3.53-.056zM772.275 122.544a3691.18 3691.18 0 0 0-9.646-19.498c.691-.231 1.308-.462 1.953-.609.138 0 .424.23.525.415 1.714 3.311 3.4 6.631 5.104 9.943a426.928 426.928 0 0 0 5.676 10.985 5.428 5.428 0 0 1-.562 6.456 6.197 6.197 0 0 1-7.601 2.057c-2.534-1.209-4.192-4.778-2.764-7.259a4.8 4.8 0 0 1 3.786-2.435 27.893 27.893 0 0 1 3.529-.055zM1148.81 137.135l-9.61-19.498c.69-.222 1.31-.461 1.96-.609.13 0 .42.231.52.424 1.71 3.312 3.4 6.623 5.1 9.943 1.89 3.689 3.75 7.379 5.68 10.985a5.43 5.43 0 0 1-.56 6.456 6.166 6.166 0 0 1-7.59 2.048c-2.55-1.208-4.2-4.769-2.77-7.25a4.851 4.851 0 0 1 3.79-2.444c1.16-.086 2.32-.104 3.48-.055z" fill="#000"/>
    <path d="M1052.3 236.126s-7.81 47.656-8.31 58.068c-1.14 24.835 2.14 58.067 2.14 58.067M999.932 294.488l2.368 57.718M976.274 294.782l-8.289 57.719M1009.99 292.124c-.13.684-.23 1.375-.29 2.07-.42 25.276 2.08 57.746 2.08 57.746" stroke="#263238" stroke-width="3" stroke-linecap="round" stroke-linejoin="round"/>
    <path d="M1021.83 229.044h22.41a8.1 8.1 0 0 1 7.62 5.334v0c.47 1.335.6 2.772.35 4.167l-5.54 30.299h-31.94l7.1-39.8z" fill="#787878" stroke="#263238" stroke-linecap="round" stroke-linejoin="round"/>
    <rect x="970.948" y="284.168" width="75.434" height="11.792" rx="5.32" fill="#787878" stroke="#263238" stroke-linecap="round" stroke-linejoin="round"/>
    <path d="M995.575 198.248s-18.572 2.199-21.738 3.413c-3.166 1.214-4.985 2.189-11.779 6.328-6.793 4.139-14.944 6.568-19.246 10.219-4.301 3.652-10.643 19.96-10.643 19.96l7.246 7.055s-.221.488 5.206-5.592c5.428-6.08 13.588-14.359 18.12-16.069a47.208 47.208 0 0 1 10.154-2.677c.923 0 4.985 2.437 4.985 2.437l-3.859 49.339a181.327 181.327 0 0 0 18.573 2.438c8.146.487 31.476-3.891 31.476-3.891l.68-40.582 19.94 11.157s.93-.975-2.93-12.657c-3.86-11.681-2.5-16.059-5.44-20.686-2.94-4.627-16.31-6.089-19.02-7.543-2.72-1.453-14.72-2.685-16.54-2.685l-5.185.036z" fill="#263238" stroke="#263238" stroke-linecap="round" stroke-linejoin="round"/>
    <path d="M932.169 238.168s1.597-4.691 4.865-5.436c2.701-.713 5.483.838 6.286 3.504a6.09 6.09 0 0 1-.498 5.013c-.508.755-2.262 2.76-2.262 2.76s-8.483-1.15-8.391-5.841zM986.188 209.194s.784 4.121 1.375 7.055c.591 2.934 2.557 11.737 2.557 11.737l8.418-18.396-3.932-6.274-8.418 5.878z" fill="#fff" stroke="#263238" stroke-linecap="round" stroke-linejoin="round"/>
    <path d="m988.541 208.412 1.182 5.685-1.966 3.329 2.751 7.258 4.726-8.233-2.557-2.547 3.148-5.299-2.17-4.313-5.114 4.12v0z" fill="#263238" stroke="#263238" stroke-linecap="round" stroke-linejoin="round"/>
    <path d="m990.905 208.219-6.693 2.548 6.102-13.531 4.329.589-3.738 10.394v0z" fill="#fff" stroke="#263238" stroke-linecap="round" stroke-linejoin="round"/>
    <path d="M994.052 159.193s-9.231 1.288-9.969 2.833a12.877 12.877 0 0 0-1.034 3.486s-3.24 5.032-3.111 5.418c.13.386.13 3.357-.387 4.259-.517.901-3.111 5.804-3.111 7.744 0 1.941 1.163 13.549 2.206 14.579 1.043 1.031 3.277 1.04 4.145 1.04.867 0 6.729-3.477 6.729-3.477l1.412 15.434 14.488-13.797s.16-8.674.93-10.219c.76-1.545 7.9-8.775 8.42-15.103.51-6.329-8.03-10.836-12.31-11.608a39.024 39.024 0 0 0-8.408-.589v0z" fill="#fff" stroke="#263238" stroke-linecap="round" stroke-linejoin="round"/>
    <path d="M1002.47 159.708a39.094 39.094 0 0 0-8.418-.515s-9.23 1.288-9.969 2.833a12.877 12.877 0 0 0-1.034 3.486s2.714-.92 5.954-1.674c3.24-.754 12.927-1.039 12.307 1.417-.62 2.456-5.836 3.099-4.793 4.599 1.043 1.499 3.231 2.318 3.493 4.387.25 2.07-3.622 9.934-2.976 10.578.646.644 2.326 1.426 2.584.773a22.844 22.844 0 0 1 2.852-5.676c1.55-1.931 4.02-3.228 4.02.92 0 4.149-4.28 6.071-4.28 6.071l4.15-.515c.77-1.555 7.9-8.775 8.42-15.103.51-6.329-8.04-10.808-12.31-11.581z" fill="#263238" stroke="#263238" stroke-linecap="round" stroke-linejoin="round"/>
    <path d="m982.92 171.877.258 3.229s-4.92 7.616-4.79 8.517c.129.902 2.326 2.189 2.326 2.189M979.422 187.578l4.144.516M989.908 173.772l-1.163 1.84c1.779.616 3.69.749 5.538.386M988.615 176.734c1.581.276 3.19.363 4.791.258M988.486 178.031s-.775 1.674 3.24 3.219" stroke="#263238"/>
    <path d="m980.843 173.257-1.292 1.932 2.972.128" stroke="#263238"/>
    <path d="M988.098 170.544a4.626 4.626 0 0 1 5.954 1.03M983.049 170.672s-.258-1.931-2.335-.386" stroke="#263238" stroke-width="2"/>
    <path d="m989.52 195.057 6.6-4.25-6.212 8.508-.388-4.258z" fill="#263238" stroke="#263238"/>
    <path d="m1005.46 194.495-12.192 14.11 3.738 5.299 9.954-15.26-1.5-4.149v0z" fill="#fff" stroke="#263238" stroke-linecap="round" stroke-linejoin="round"/>
    <path d="M1021.39 239.281a199.427 199.427 0 0 1 4.98 21.441c2.27 12.638 4.76 21.431 4.76 21.431s-5.21 8.122-13.13 13.089c-7.92 4.967-14.04 4.287-14.04 4.287s1.58-13.797 1.84-27.751c.27-13.954-2.49-30.915-2.49-30.915s-2.26-2.033-2.26-10.835c0-8.803 8.15-25.755 8.15-25.755" fill="#263238"/>
    <path d="M1021.39 239.281a199.427 199.427 0 0 1 4.98 21.441c2.27 12.638 4.76 21.431 4.76 21.431s-5.21 8.122-13.13 13.089c-7.92 4.967-14.04 4.287-14.04 4.287s1.58-13.797 1.84-27.751c.27-13.954-2.49-30.915-2.49-30.915s-2.26-2.033-2.26-10.835c0-8.803 8.15-25.755 8.15-25.755" stroke="#263238" stroke-linecap="round" stroke-linejoin="round"/>
    <path d="m946.892 329.542 2.031 8.122a80.484 80.484 0 0 0-7.92 7c-2.945 3.155-11.077 4.507-8.603 5.868 2.474 1.362 11.077 2.705 14.492 1.352a31.703 31.703 0 0 0 6.794-4.065l.222 2.934 6.784-2.272s0-4.516-1.357-7.45a22.18 22.18 0 0 0-3.175-4.967l-1.126-4.737-8.142-1.785z" fill="#263238" stroke="#263238" stroke-linecap="round" stroke-linejoin="round"/>
    <path d="M955.717 263.205s-21.286-4.516-24.923-.23c-3.637 4.287 7.744 66.567 7.744 66.567l17.659 3.385-6.332-34.953-3.176-19.187s23.326 8.352 32.16 7c8.834-1.352 6.794-17.606 1.579-20.54-5.216-2.934-24.711-2.042-24.711-2.042z" fill="#263238" stroke="#263238" stroke-linecap="round" stroke-linejoin="round"/>
    <path d="M978.369 325.486c-.923 0-2.271 10.385-4.08 13.797-1.809 3.413-4.08 6.77-8.603 8.803-4.523 2.032-7.698 3.385-6.12 4.957 1.579 1.573 17.889.451 18.803.451.914 0 2.936-.221 2.936-.221a9.346 9.346 0 0 0 3.627-.68c1.136-.672 1.136-5.409 1.136-8.122v-3.836l2.492-9.023s-7.708-6.126-10.191-6.126z" fill="#fff" stroke="#263238" stroke-linecap="round" stroke-linejoin="round"/>
    <path d="M977.455 339.467c-1.846-2.474-3.397 1.131-3.397 1.131l-.618.157a16.775 16.775 0 0 1-7.754 7.294c-4.532 2.023-7.698 3.385-6.12 4.958 1.579 1.572 17.889.45 18.803.45.914 0 2.936-.22 2.936-.22a9.365 9.365 0 0 0 3.627-.681c1.136-.672 1.136-5.409 1.136-8.122a54.065 54.065 0 0 0-7.025-.671s.231-1.813-1.588-4.296z" fill="#263238" stroke="#263238" stroke-linecap="round" stroke-linejoin="round"/>
    <path d="m1001.4 232.649-4.708-6.678-3.378 3.854c-7.311-.119-16.126 4.903-22.08 13.053-7.246 9.943-9.619 14.836-9.619 14.836s5.133.598 3.628 3.302-3.923 2.714-19.625 15.352c-9.129 7.358-13.661 14.79-14.907 21.156-2.04.101-3.517.202-3.517.202l-.923 3.311.471.626 7.006 9.373a7.294 7.294 0 0 0 1.901 1.278c6.268 4.654 17.954 5.123 32.354-4.939 17.206-12.031 18.96-26.5 18.96-43.645 0 0 1.209-4.811 4.828-5.722 3.618-.91 5.437-.294 5.437-.294a32.972 32.972 0 0 0 6.642-10.532c1.99-5.178 1.93-10.918-2.47-14.533z" fill="#4788D8"/>
    <path opacity=".3" d="m1001.4 232.649-4.708-6.678-3.378 3.854c-7.311-.119-16.126 4.903-22.08 13.053-7.246 9.943-9.619 14.836-9.619 14.836s5.133.598 3.628 3.302-3.923 2.714-19.625 15.352c-9.129 7.358-13.661 14.79-14.907 21.156-2.04.101-3.517.202-3.517.202l-.923 3.311.471.626 7.006 9.373a7.294 7.294 0 0 0 1.901 1.278c6.268 4.654 17.954 5.123 32.354-4.939 17.206-12.031 18.96-26.5 18.96-43.645 0 0 1.209-4.811 4.828-5.722 3.618-.91 5.437-.294 5.437-.294a32.972 32.972 0 0 0 6.642-10.532c1.99-5.178 1.93-10.918-2.47-14.533z" fill="#000"/>
    <path clip-rule="evenodd" d="m1001.4 232.649-4.708-6.678-3.378 3.854c-7.311-.119-16.126 4.903-22.08 13.053-7.246 9.943-9.619 14.836-9.619 14.836s5.133.598 3.628 3.302-3.923 2.714-19.625 15.352c-9.129 7.358-13.661 14.79-14.907 21.156-2.04.101-3.517.202-3.517.202l-.923 3.311.471.626 7.006 9.373a7.294 7.294 0 0 0 1.901 1.278c6.268 4.654 17.954 5.123 32.354-4.939 17.206-12.031 18.96-26.5 18.96-43.645 0 0 1.209-4.811 4.828-5.722 3.618-.91 5.437-.294 5.437-.294a32.972 32.972 0 0 0 6.642-10.532c1.99-5.178 1.93-10.918-2.47-14.533z" stroke="#263238"/>
    <path d="M980.631 255.58s1.209-4.82 4.827-5.721c3.619-.902 5.437-.294 5.437-.294a33.081 33.081 0 0 0 6.646-10.532c2.41-6.319 1.847-13.54-6.046-16.557-7.892-3.017-19.384 2.29-26.603 12.224-7.218 9.934-9.627 14.855-9.627 14.855s5.132.598 3.627 3.302c-1.504 2.705-3.923 2.714-19.624 15.352-15.702 12.638-17.816 25.571-12.988 32.791 4.828 7.221 18.175 10.247 35.391-1.784 17.215-12.031 18.96-26.463 18.96-43.636z" fill="#4788D8" stroke="#263238" stroke-linecap="round" stroke-linejoin="round"/>
    <path d="m955.652 261.338 10.062.515-.979 2.318-10.504-.846 1.421-1.987v0z" fill="#fff" stroke="#263238" stroke-linecap="round" stroke-linejoin="round"/>
    <path d="m1011.05 198.892 3.85 7.451s4.76-6.319 7.24-8.131c2.48-1.813 4.76 0 9.07-2.024 4.3-2.024 8.82-7.221 6.34-13.319-2.49-6.098-11.33-5.868-12.93-1.122-1.59 4.746 1.36 7.22 3.4 6.99 2.04-.229 3.4-2.032 2.04-3.384 0 0 6.11 2.032 1.59 5.868-2.95 2.483-5.21-.23-9.74 1.84-4.53 2.069-10.86 5.831-10.86 5.831z" fill="#4788D8" stroke="#263238" stroke-linecap="round" stroke-linejoin="round"/>
    <path d="M1013.46 198.892h-2.41" stroke="#263238" stroke-linecap="round" stroke-linejoin="round"/>
    <path d="M1013.92 200.024s-20.551 18.184-32.44 31.641c-8.52 9.612-14.474 17.596-14.474 17.596l6.24.791 12.489-16.97s8.031-10.477 13.69-15.444c5.655-4.967 16.305-13.99 16.305-13.99l-1.81-3.624z" fill="#263238" stroke="#263238" stroke-linecap="round" stroke-linejoin="round"/>
    <path d="M1014.4 201.1s-32.357 24.605-68.403 76.648" stroke="#fff" stroke-width=".5" stroke-linecap="round" stroke-linejoin="round"/>
    <path d="M1015.53 201.67s-32.352 24.605-68.398 76.639" stroke="#fff" stroke-width=".5" stroke-linecap="round" stroke-linejoin="round"/>
    <path d="M1016.39 202.231s-32.362 24.605-68.409 76.648" stroke="#fff" stroke-width=".5" stroke-linecap="round" stroke-linejoin="round"/>
    <ellipse cx="1022.83" cy="193.254" rx="2.465" ry="2.456" fill="#263238" stroke="#263238" stroke-linecap="round" stroke-linejoin="round"/>
    <path d="M1019.66 197.117c0 .999-.6 1.901-1.52 2.285a2.475 2.475 0 0 1-3.24-3.223 2.477 2.477 0 0 1 2.29-1.518c.66 0 1.28.259 1.75.719.46.461.72 1.086.72 1.737v0z" fill="#263238" stroke="#263238" stroke-linecap="round" stroke-linejoin="round"/>
    <path d="m1013.46 198.892 3.85 7.451s4.76-6.319 7.25-8.131c2.49-1.813 4.75 0 9.06-2.024 4.3-2.024 8.83-7.221 6.34-13.319-2.5-6.098-11.32-5.868-12.93-1.122-1.6 4.746 1.36 7.22 3.4 6.99 2.04-.229 3.4-2.032 2.04-3.384 0 0 6.11 2.032 1.58 5.868-2.94 2.483-5.21-.23-9.73 1.84-4.52 2.069-10.86 5.831-10.86 5.831z" fill="#4788D8"/>
    <path opacity=".3" d="m1013.46 198.892 3.85 7.451s4.76-6.319 7.25-8.131c2.49-1.813 4.75 0 9.06-2.024 4.3-2.024 8.83-7.221 6.34-13.319-2.5-6.098-11.32-5.868-12.93-1.122-1.6 4.746 1.36 7.22 3.4 6.99 2.04-.229 3.4-2.032 2.04-3.384 0 0 6.11 2.032 1.58 5.868-2.94 2.483-5.21-.23-9.73 1.84-4.52 2.069-10.86 5.831-10.86 5.831z" fill="#000"/>
    <path clip-rule="evenodd" d="m1013.46 198.892 3.85 7.451s4.76-6.319 7.25-8.131c2.49-1.813 4.75 0 9.06-2.024 4.3-2.024 8.83-7.221 6.34-13.319-2.5-6.098-11.32-5.868-12.93-1.122-1.6 4.746 1.36 7.22 3.4 6.99 2.04-.229 3.4-2.032 2.04-3.384 0 0 6.11 2.032 1.58 5.868-2.94 2.483-5.21-.23-9.73 1.84-4.52 2.069-10.86 5.831-10.86 5.831z" stroke="#263238"/>
    <path d="M1029.18 197.466a2.465 2.465 0 0 1-2.47 2.456 2.457 2.457 0 1 1 0-4.912c1.36 0 2.47 1.1 2.47 2.456v0zM1023.54 201.311a2.482 2.482 0 0 1-4.23 1.753 2.447 2.447 0 0 1-.53-2.691 2.477 2.477 0 0 1 4.76.938z" fill="#263238" stroke="#263238" stroke-linecap="round" stroke-linejoin="round"/>
    <path d="M973.837 258.689s-3.397-.92-.452-2.934c1.938-1.343 3.849 1.582 2.04 4.737-1.81 3.155-6.794 5.648-6.342 8.803.452 3.154 5.206 1.582 6.111-.92.904-2.502-1.136-2.935-2.262-1.352M959.114 257.107s1.846-1.84.452-2.033c-1.394-.193-3.397 2.714-4.975 5.418-1.579 2.704-3.176 5.648-5.668 5.868-2.492.221-1.578-2.033.452-2.934 2.031-.901 1.846.92.683 1.352" stroke="#263238" stroke-linecap="round" stroke-linejoin="round"/>
    <path d="m952.523 276.331-6.6-2.033s-3.6 5.942-4.505 9.106c-.904 3.165-4.08 9.355-5.889 11.388-1.809 2.033-3.166 11.037-3.166 11.037l1.357.92 5.741-9.704s3.185-7.938 4.311-9.961c1.126-2.024 8.751-10.753 8.751-10.753z" fill="#263238" stroke="#263238" stroke-linecap="round" stroke-linejoin="round"/>
    <path d="m933.526 308.782-13.846 39.313a.773.773 0 0 0 .378.92v0a.771.771 0 0 0 1.062-.414l14.871-39.378-2.465-.441z" fill="#fff" stroke="#263238" stroke-linecap="round" stroke-linejoin="round"/>
    <path d="m926.095 322.193-2.981 15.701 1.846.672 8.705-14.865a1.064 1.064 0 0 0-.776-1.6l-5.538-.764a1.06 1.06 0 0 0-1.256.856v0zM1007.58 280.801s2.72-11.736-4.53-16.473c-7.244-4.737-15.856 2.032-18.118 7.22-2.261 5.188-2.04 15.352-3.627 24.375-1.588 9.023-7.016 29.784-7.016 29.784s7.929 4.516 9.056 5.417l4.301 3.385s3.397-8.802 10.422-23.243c7.022-14.442 9.052-24.826 9.512-30.465z" fill="#263238" stroke="#263238" stroke-linecap="round" stroke-linejoin="round"/>
    <path d="M1015.27 228.225a44.938 44.938 0 0 1-6.11-8.352c-2.26-4.286-6.56-6.54-7.7-6.54-1.13 0-4.075 1.132-6.337 2.484a15.811 15.811 0 0 0-3.849 3.385s-3.849-.681-3.397.671c.452 1.352 3.849.23 5.889 1.84 2.04 1.609 5.889 4.958 7.924 5.868 1.97.668 4.01 1.112 6.08 1.325l5.44 6.769 4.3-5.868-2.24-1.582z" fill="#fff" stroke="#263238" stroke-linecap="round" stroke-linejoin="round"/>
    <path d="m1014 225.962-6.04 7.267 2.27 1.757 6.18-6.982-2.41-2.042v0z" fill="#fff" stroke="#263238" stroke-linecap="round" stroke-linejoin="round"/>
    <path d="m1016.41 227.986-8.6 10.118a110.314 110.314 0 0 0 16.57 10.881c9.06 4.737 16.76 6.549 19.47.681 2.72-5.869 2.27-6.099-2.71-10.836-4.99-4.737-24.73-10.844-24.73-10.844z" fill="#263238" stroke="#263238" stroke-linecap="round" stroke-linejoin="round"/>
    <path d="M941.455 239.943s-1.587-4.516-3.175-4.737c-1.588-.22-3.397.92-4.754 2.484-1.357 1.563-5.658 7.22-6.111 8.122a60.522 60.522 0 0 0-3.175 5.859c-.923 2.263-1.579 4.295 0 3.615 1.578-.681 3.175-5.188 3.175-5.188s-.683 4.056-.23 4.958c.452.901 1.135 3.164 2.27 3.845 1.136.68 4.523-1.362 4.523-1.362s1.847 1.132 2.723-1.352c.877-2.483 1.127-.671 2.714-6.089 1.588-5.418.683-5.85 2.04-10.155z" fill="#fff" stroke="#263238" stroke-linecap="round" stroke-linejoin="round"/>
    <path d="M933.978 257.558a21 21 0 0 0 .453-5.409c0-1.582 1.587-3.835 1.587-3.835M930.812 258.689c.222-.681-1.846-3.615-1.846-6.089s1.357-3.164 1.357-4.066M932.169 248.534s-1.357 3.155-.923 4.517c.434 1.361 1.357 5.187 1.357 5.187" stroke="#263238" stroke-linecap="round" stroke-linejoin="round"/>
    <path d="m935.123 252.177 55.699 4.709" stroke="#263238" stroke-width="2" stroke-linecap="round" stroke-linejoin="round"/>
    <path d="m988.782 256.886.683 2.254-54.582-4.967" stroke="#263238" stroke-linecap="round" stroke-linejoin="round"/>
    <path d="M897.148 243.65h50.575l-11.418-38.577h-50.567l11.41 38.577v0z" fill="#fff" stroke="#263238" stroke-linecap="round" stroke-linejoin="round"/>
    <path d="M947.723 243.65h-50.575M949.505 353.954l-26.973-30.492v-80.106l-10.892-36.701M922.532 323.462l-26.455 29.977M922.532 325.532v27.907" stroke="#263238" stroke-width="3" stroke-linecap="round" stroke-linejoin="round"/>
    <path d="M941.723 242.832 913.2 211.31l-11.419 30.491" stroke="#263238" stroke-linecap="round" stroke-linejoin="round"/>
    <path d="M1188.74 236.175s-7.79 47.636-8.28 58.044c-1.15 24.824 2.13 58.043 2.13 58.043M1136.51 294.513l2.37 57.694M1112.91 294.807l-8.26 57.694M1146.54 292.15c-.13.684-.22 1.375-.29 2.069-.41 25.266 2.08 57.722 2.08 57.722" stroke="#263238" stroke-width="3" stroke-linecap="round" stroke-linejoin="round"/>
    <path d="M1158.35 229.095h22.36a8.065 8.065 0 0 1 7.6 5.333v0a7.98 7.98 0 0 1 .34 4.165l-5.52 30.286h-31.88l7.1-39.784z" fill="#787878" stroke="#263238" stroke-linecap="round" stroke-linejoin="round"/>
    <rect x="1107.61" y="284.197" width="75.234" height="11.787" rx="5.32" fill="#787878" stroke="#263238" stroke-linecap="round" stroke-linejoin="round"/>
    <path d="M1132.17 203.921s-18.52 2.032-21.68 3.154c-3.16 1.122-4.97 2.032-11.75 5.866-6.77 3.834-14.9 6.087-19.19 9.47-4.29 3.384-10.62 18.499-10.62 18.499l7.23 6.537s-.23.451 5.19-5.185c5.42-5.637 13.55-13.305 18.07-14.886a49.74 49.74 0 0 1 10.13-2.483c.92 0 4.96 2.262 4.96 2.262l-3.76 45.724s10.39 1.838 18.52 2.252c8.13.414 31.39-3.604 31.39-3.604l.68-37.614 19.87 10.38s.92-.919-2.94-11.731c-3.85-10.813-2.47-14.886-5.41-19.171-2.94-4.284-16.27-5.636-18.97-6.987-2.71-1.352-14.73-2.483-16.49-2.483h-5.23z" fill="#263238" stroke="#263238" stroke-linecap="round" stroke-linejoin="round"/>
    <path d="M1157.92 239.329c2.04 7.047 3.7 14.202 4.96 21.431 2.27 12.633 4.74 21.423 4.74 21.423s-5.19 8.119-13.09 13.084c-7.9 4.965-14 4.284-14 4.284s1.57-13.791 1.84-27.739-2.49-30.902-2.49-30.902-2.25-2.032-2.25-10.831 8.13-25.744 8.13-25.744" fill="#263238"/>
    <path d="M1157.92 239.329c2.04 7.047 3.7 14.202 4.96 21.431 2.27 12.633 4.74 21.423 4.74 21.423s-5.19 8.119-13.09 13.084c-7.9 4.965-14 4.284-14 4.284s1.57-13.791 1.84-27.739-2.49-30.902-2.49-30.902-2.25-2.032-2.25-10.831 8.13-25.744 8.13-25.744" stroke="#263238" stroke-linecap="round" stroke-linejoin="round"/>
    <path d="m1083.41 330.959 2.04 8.119a80.14 80.14 0 0 0-7.91 6.987c-2.94 3.163-11.05 4.515-8.58 5.866 2.47 1.352 11.05 2.703 14.45 1.352a31.755 31.755 0 0 0 6.78-4.055l.23 2.933 6.77-2.262s0-4.505-1.36-7.438a22.304 22.304 0 0 0-3.16-4.965l-1.13-4.735-8.13-1.802z" fill="#263238" stroke="#263238" stroke-linecap="round" stroke-linejoin="round"/>
    <path d="M1092.42 263.243s-21.23-4.514-24.86-.23c-3.63 4.285 7.47 67.946 7.47 67.946l17.63 3.374-6.14-36.354-3.15-19.179s23.26 8.348 32.07 6.997c8.81-1.352 6.78-17.598 1.58-20.531-5.21-2.933-24.6-2.023-24.6-2.023z" fill="#263238" stroke="#263238" stroke-linecap="round" stroke-linejoin="round"/>
    <path d="M1128.83 199.26s2.36 6.114 2.36 10.251c0 4.138-1.77 7.88-.59 8.671 1.19.79 6.12-5.719 10.26-9.066 4.14-3.347 6.52-3.742 6.52-8.082v-9.856s-7.3 5.323-11.65 6.114a31.588 31.588 0 0 0-6.9 1.968v0z" fill="#fff" stroke="#263238" stroke-linecap="round" stroke-linejoin="round"/>
    <path d="M1120.72 189.551s-.31 3.88-1.84 5.075l-1.45 1.232s5.07 2.39 5.97 2.39c.91 0-.3-7.76-.3-7.76l-2.38-.937z" fill="#263238" stroke="#263238" stroke-linecap="round" stroke-linejoin="round"/>
    <path d="M1123.5 170.886s-2.77 4.533-2.77 7.687c0 3.153-1.58 11.428 0 15.372 1.59 3.945 2.18 8.073 6.32 8.073 4.14 0 11.84-3.154 13.62-4.726 1.77-1.572 4.73-8.082 1.57-14.389-3.16-6.307-11.24-11.824-12.62-12.017a60.062 60.062 0 0 0-6.12 0v0z" fill="#fff" stroke="#263238" stroke-linecap="round" stroke-linejoin="round"/>
    <path d="M1124.68 182.71a19.805 19.805 0 0 1-2.37 3.742c-.99.984-2.16 2.17.6 2.758 1.21.344 2.48.478 3.74.396M1122.71 192.759s1.78.984 5.14.396" stroke="#263238" stroke-linecap="round" stroke-linejoin="round"/>
    <path d="M1130.8 183.905c0 .92-.31 1.582-.69 1.582-.39 0-.69-.708-.69-1.582 0-.873.31-1.572.69-1.572.37 0 .69.653.69 1.572zM1123 182.903c0 .919-.3 1.581-.69 1.581-.39 0-.69-.708-.69-1.581s.31-1.572.69-1.572c.38 0 .69.735.69 1.572z" fill="#263238"/>
    <path d="M1121.72 178.572a2.025 2.025 0 0 1 2.76-.395M1122.31 186.452a2.87 2.87 0 0 1-3.5 0c-1.78-1.379-2.96-5.517-1.38-6.5 1.58-.984 7.45-.396 7.45-.396l4.74.396" stroke="#263238" stroke-linecap="round" stroke-linejoin="round"/>
    <path d="M1124.3 181.202s.98-1.774 1.97.386c.98 2.161 1.65 7.071 5.2 7.071a7.108 7.108 0 0 0 5.45-2.602" stroke="#263238" stroke-linecap="round" stroke-linejoin="round"/>
    <path d="M1138.1 186.664s-9.86-6.501-13.42-12.22c-3.55-5.719-6.51-9.258-2.17-11.226 4.35-1.968 17.76-4.735 28.03-.395 10.26 4.339 11.25 13.791 11.25 20.098 0 6.308 1.01 8.845 0 10.418-1.02 1.572-4.35 5.121-12.64 5.121-4.65.057-9.29-.471-13.8-1.572 0 0 4.13.009 2.75-10.224z" fill="#263238" stroke="#263238" stroke-linecap="round" stroke-linejoin="round"/>
    <path d="m1137.98 232.699-4.68-6.675-3.39 3.853c-7.29-.12-16.08 4.9-22.02 13.047-7.22 9.92-9.6 14.848-9.6 14.848s5.12.598 3.62 3.301c-1.5 2.703-3.92 2.712-19.57 15.345-9.11 7.356-13.63 14.785-14.87 21.147-2.04.101-3.51.203-3.51.203l-.92 3.31.47.625 6.99 9.369c.56.523 1.2.955 1.89 1.278 6.25 4.652 17.91 5.121 32.22-4.938 17.23-12.044 19.02-26.507 19.02-43.645 0 0 1.21-4.809 4.82-5.719 3.61-.91 5.42-.294 5.42-.294a32.905 32.905 0 0 0 6.62-10.528c1.94-5.176 1.88-10.913-2.51-14.527z" fill="#4788D8"/>
    <path opacity=".3" d="m1137.98 232.699-4.68-6.675-3.39 3.853c-7.29-.12-16.08 4.9-22.02 13.047-7.22 9.92-9.6 14.848-9.6 14.848s5.12.598 3.62 3.301c-1.5 2.703-3.92 2.712-19.57 15.345-9.11 7.356-13.63 14.785-14.87 21.147-2.04.101-3.51.203-3.51.203l-.92 3.31.47.625 6.99 9.369c.56.523 1.2.955 1.89 1.278 6.25 4.652 17.91 5.121 32.22-4.938 17.23-12.044 19.02-26.507 19.02-43.645 0 0 1.21-4.809 4.82-5.719 3.61-.91 5.42-.294 5.42-.294a32.905 32.905 0 0 0 6.62-10.528c1.94-5.176 1.88-10.913-2.51-14.527z" fill="#000"/>
    <path clip-rule="evenodd" d="m1137.98 232.699-4.68-6.675-3.39 3.853c-7.29-.12-16.08 4.9-22.02 13.047-7.22 9.92-9.6 14.848-9.6 14.848s5.12.598 3.62 3.301c-1.5 2.703-3.92 2.712-19.57 15.345-9.11 7.356-13.63 14.785-14.87 21.147-2.04.101-3.51.203-3.51.203l-.92 3.31.47.625 6.99 9.369c.56.523 1.2.955 1.89 1.278 6.25 4.652 17.91 5.121 32.22-4.938 17.23-12.044 19.02-26.507 19.02-43.645 0 0 1.21-4.809 4.82-5.719 3.61-.91 5.42-.294 5.42-.294a32.905 32.905 0 0 0 6.62-10.528c1.94-5.176 1.88-10.913-2.51-14.527z" stroke="#263238"/>
    <path d="M1117.26 255.621s1.21-4.818 4.82-5.719c3.61-.901 5.42-.294 5.42-.294a32.995 32.995 0 0 0 6.63-10.537c2.4-6.316 1.84-13.534-6.03-16.55-7.87-3.015-19.33 2.29-26.53 12.22-7.2 9.929-9.6 14.848-9.6 14.848s5.11.598 3.61 3.301c-1.5 2.703-3.91 2.712-19.57 15.345-15.66 12.633-17.77 25.561-12.95 32.778 4.81 7.218 18.12 10.243 35.29-1.784 17.17-12.026 18.91-26.442 18.91-43.608z" fill="#4788D8" stroke="#263238" stroke-linecap="round" stroke-linejoin="round"/>
    <path d="m1092.34 261.376 10.05.515-.99 2.317-10.47-.846 1.41-1.986v0z" fill="#fff" stroke="#263238" stroke-linecap="round" stroke-linejoin="round"/>
    <path d="m1147.57 198.956 3.84 7.448s4.74-6.317 7.23-8.128c2.48-1.811 4.75 0 9.04-2.023 4.29-2.023 8.8-7.217 6.32-13.313-2.47-6.096-11.29-5.866-12.89-1.122-1.59 4.744 1.36 7.218 3.39 6.988 2.04-.23 3.39-2.032 2.04-3.384 0 0 6.09 2.032 1.58 5.866-2.94 2.483-5.2-.23-9.71 1.839-4.51 2.069-10.84 5.829-10.84 5.829z" fill="#4788D8" stroke="#263238" stroke-linecap="round" stroke-linejoin="round"/>
    <path d="M1150.46 200.087s-20.49 18.177-32.35 31.629c-8.5 9.608-14.43 17.588-14.43 17.588l6.22.791 12.46-16.963s8-10.473 13.65-15.438c5.64-4.965 16.26-13.984 16.26-13.984l-1.81-3.623z" fill="#263238" stroke="#263238" stroke-linecap="round" stroke-linejoin="round"/>
    <path d="M1150.94 201.163s-32.22 24.595-68.22 76.616" stroke="#fff" stroke-width=".5" stroke-linecap="round" stroke-linejoin="round"/>
    <path d="M1152.07 201.733s-32.22 24.595-68.22 76.607" stroke="#fff" stroke-width=".5" stroke-linecap="round" stroke-linejoin="round"/>
    <path d="M1152.93 202.294s-32.28 24.595-68.23 76.616" stroke="#fff" stroke-width=".5" stroke-linecap="round" stroke-linejoin="round"/>
    <ellipse cx="1159.36" cy="193.32" rx="2.458" ry="2.455" fill="#263238" stroke="#263238" stroke-linecap="round" stroke-linejoin="round"/>
    <ellipse cx="1153.73" cy="197.182" rx="2.458" ry="2.455" fill="#263238" stroke="#263238" stroke-linecap="round" stroke-linejoin="round"/>
    <path d="m1150.01 198.956 3.84 7.448s4.74-6.317 7.23-8.128c2.48-1.811 4.74 0 9.03-2.023 4.29-2.023 8.81-7.217 6.32-13.313-2.48-6.096-11.28-5.866-12.89-1.122-1.6 4.744 1.36 7.218 3.39 6.988 2.04-.23 3.39-2.032 2.04-3.384 0 0 6.09 2.032 1.57 5.866-2.93 2.483-5.19-.23-9.71 1.839-4.52 2.069-10.82 5.829-10.82 5.829z" fill="#4788D8"/>
    <path opacity=".3" d="m1150.01 198.956 3.84 7.448s4.74-6.317 7.23-8.128c2.48-1.811 4.74 0 9.03-2.023 4.29-2.023 8.81-7.217 6.32-13.313-2.48-6.096-11.28-5.866-12.89-1.122-1.6 4.744 1.36 7.218 3.39 6.988 2.04-.23 3.39-2.032 2.04-3.384 0 0 6.09 2.032 1.57 5.866-2.93 2.483-5.19-.23-9.71 1.839-4.52 2.069-10.82 5.829-10.82 5.829z" fill="#000"/>
    <path clip-rule="evenodd" d="m1150.01 198.956 3.84 7.448s4.74-6.317 7.23-8.128c2.48-1.811 4.74 0 9.03-2.023 4.29-2.023 8.81-7.217 6.32-13.313-2.48-6.096-11.28-5.866-12.89-1.122-1.6 4.744 1.36 7.218 3.39 6.988 2.04-.23 3.39-2.032 2.04-3.384 0 0 6.09 2.032 1.57 5.866-2.93 2.483-5.19-.23-9.71 1.839-4.52 2.069-10.82 5.829-10.82 5.829z" stroke="#263238"/>
    <path d="M1165.68 197.531a2.466 2.466 0 0 1-4.21 1.752 2.445 2.445 0 0 1-.53-2.69 2.455 2.455 0 0 1 2.28-1.517 2.461 2.461 0 0 1 2.46 2.455v0zM1160.06 201.374a2.474 2.474 0 0 1-4.22 1.752 2.482 2.482 0 0 1-.53-2.69 2.467 2.467 0 0 1 2.29-1.516 2.474 2.474 0 0 1 2.46 2.454v0z" fill="#263238" stroke="#263238" stroke-linecap="round" stroke-linejoin="round"/>
    <path d="M1110.49 258.729s-3.39-.92-.45-2.933c1.93-1.343 3.84 1.581 2.03 4.735-1.8 3.153-6.77 5.645-6.32 8.799.45 3.153 5.19 1.581 6.09-.92.9-2.501-1.13-2.933-2.25-1.351M1095.8 257.147s1.85-1.839.46-2.032c-1.4-.193-3.39 2.713-4.97 5.416-1.57 2.703-3.16 5.645-5.65 5.866-2.49.22-1.57-2.032.45-2.933 2.03-.901 1.84.919.68 1.351" stroke="#263238" stroke-linecap="round" stroke-linejoin="round"/>
    <path d="m1089.23 276.363-6.54-2.032s-3.6 5.94-4.5 9.103c-.9 3.163-4.07 9.35-5.87 11.382-1.81 2.032-3.17 11.033-3.17 11.033l1.36.92 5.65-9.7s3.16-7.935 4.3-9.958c1.13-2.022 8.77-10.748 8.77-10.748z" fill="#263238" stroke="#263238" stroke-linecap="round" stroke-linejoin="round"/>
    <path d="m1070.28 308.801-13.81 39.296c-.11.358.05.748.38.92v0c.2.097.42.108.62.029.21-.079.36-.24.44-.443l14.83-39.361-2.46-.441z" fill="#fff" stroke="#263238" stroke-linecap="round" stroke-linejoin="round"/>
    <path d="m1062.87 322.206-2.97 15.695 1.84.671 8.68-14.858c.18-.308.19-.684.04-1.004a1.09 1.09 0 0 0-.81-.596l-5.52-.763a1.064 1.064 0 0 0-1.26.855v0z" fill="#263238" stroke="#263238" stroke-linecap="round" stroke-linejoin="round"/>
    <path d="M1150.01 198.956h-2.41" stroke="#263238" stroke-linecap="round" stroke-linejoin="round"/>
    <path d="M1151.82 228.277a44.006 44.006 0 0 1-6.1-8.348c-2.25-4.285-6.55-6.538-7.68-6.538-1.12 0-4.07 1.131-6.32 2.483a15.764 15.764 0 0 0-3.84 3.383s-3.84-.68-3.39.672c.45 1.351 3.84.229 5.87 1.838 2.04 1.609 5.87 4.956 7.9 5.866 1.98.68 4.03 1.134 6.11 1.352l5.41 6.767 4.3-5.866-2.26-1.609z" fill="#fff" stroke="#263238" stroke-linecap="round" stroke-linejoin="round"/>
    <path d="m1152.95 228.038-8.58 10.114c5.16 4.09 10.67 7.712 16.48 10.821 9.04 4.735 16.72 6.547 19.42.681 2.71-5.866 2.27-6.096-2.7-10.831-4.98-4.735-24.62-10.785-24.62-10.785z" fill="#263238" stroke="#263238" stroke-linecap="round" stroke-linejoin="round"/>
    <path d="M1078.19 239.99s-1.58-4.514-3.16-4.735c-1.59-.22-3.39.92-4.75 2.483-1.35 1.563-5.64 7.217-6.09 8.118a59.156 59.156 0 0 0-3.17 5.857c-.92 2.262-1.57 4.294 0 3.614 1.58-.681 3.17-5.186 3.17-5.186s-.68 4.055-.23 4.956c.45.901 1.13 3.163 2.26 3.843 1.14.68 4.52-1.361 4.52-1.361s1.84 1.131 2.76-1.351c.92-2.483 1.12-.672 2.7-6.087 1.59-5.415.64-5.848 1.99-10.151z" fill="#fff" stroke="#263238" stroke-linecap="round" stroke-linejoin="round"/>
    <path d="M1070.74 257.598c.38-1.776.53-3.593.45-5.407 0-1.581 1.58-3.834 1.58-3.834M1067.58 258.729c.22-.681-1.84-3.614-1.84-6.087s1.35-3.163 1.35-4.064M1068.93 248.578s-1.35 3.154-.92 4.514c.43 1.361 1.35 5.186 1.35 5.186" stroke="#263238" stroke-linecap="round" stroke-linejoin="round"/>
    <path d="m1071.88 252.219 55.55 4.707" stroke="#263238" stroke-width="2" stroke-linecap="round" stroke-linejoin="round"/>
    <path d="m1125.39 256.926.68 2.253-54.43-4.965" stroke="#263238" stroke-linecap="round" stroke-linejoin="round"/>
    <path d="M1115 325.498c-.92 0-2.26 10.38-4.06 13.791-1.81 3.411-4.07 6.767-8.58 8.799-4.51 2.032-7.68 3.384-6.1 4.956 1.57 1.572 17.84.45 18.74.45.9 0 2.94-.22 2.94-.22a9.232 9.232 0 0 0 3.61-.681c1.14-.671 1.14-5.406 1.14-8.118v-3.834l2.47-9.02s-7.67-6.123-10.16-6.123z" fill="#fff" stroke="#263238" stroke-linecap="round" stroke-linejoin="round"/>
    <path d="M1114.1 339.473c-1.84-2.473-3.39 1.131-3.39 1.131l-.62.156a16.715 16.715 0 0 1-7.73 7.291c-4.52 2.023-7.68 3.384-6.1 4.956 1.57 1.572 17.84.451 18.74.451.9 0 2.94-.221 2.94-.221a9.232 9.232 0 0 0 3.61-.681c1.14-.671 1.14-5.406 1.14-8.118-2.32-.376-4.66-.6-7.01-.671 0 0 .23-1.812-1.58-4.294zM1144.14 280.832s2.76-11.732-4.52-16.467c-7.29-4.735-15.81 2.032-18.07 7.217-2.25 5.186-2.03 15.345-3.61 24.365-1.59 9.02-7 29.771-7 29.771s7.91 4.515 9.03 5.416l4.29 3.383s3.39-8.799 10.39-23.234c7.01-14.435 9.04-24.815 9.49-30.451z" fill="#263238" stroke="#263238" stroke-linecap="round" stroke-linejoin="round"/>
    <path d="M1026.47 243.696h50.44l-11.38-38.561h-50.44l11.38 38.561v0z" fill="#fff" stroke="#263238" stroke-linecap="round" stroke-linejoin="round"/>
    <path d="M1076.91 243.696h-50.43M1078.7 353.954l-26.9-30.479v-80.073l-10.87-36.686M1051.8 323.475l-26.39 29.964M1051.8 325.544v27.895" stroke="#263238" stroke-width="3" stroke-linecap="round" stroke-linejoin="round"/>
    <path d="m1070.94 242.878-28.46-31.509-11.38 30.479" stroke="#263238" stroke-linecap="round" stroke-linejoin="round"/>
    <path d="M818.785 330.482s0 13.632.636 15.513c.637 1.88 1.044 9.014 3.988 10.903 2.945 1.89 5.243 2.517 5.456-1.677.212-4.194-4.2-9.853-4.616-11.061-.415-1.207 3.148-13.632 3.148-13.632l-8.612-.046z" fill="#fff" stroke="#263238" stroke-linecap="round" stroke-linejoin="round"/>
    <path d="M819.385 345.995c.627 1.889 1.043 9.014 3.987 10.904 2.945 1.889 5.243 2.516 5.456-1.678.212-4.194-4.2-9.853-4.616-11.06 0 0-2.104-1.475-2.944-.424a3.676 3.676 0 0 0-.84 2.101l-1.265-1.134c.032.437.106.869.222 1.291v0z" fill="#263238" stroke="#263238" stroke-linecap="round" stroke-linejoin="round"/>
    <path d="m804.726 330.068 1.846 14.885s-5.243 5.023-8.187 6.913c-2.945 1.889-3.776 2.304-3.148 2.931.628.627 1.468 1.475 5.455.839 3.988-.636 8.825-1.669 10.293-2.093 1.467-.424 3.36.212 3.36-1.889 0-2.102-.425-8.59-.425-8.59l-1.043-13.826-8.151.83z" fill="#fff" stroke="#263238" stroke-linecap="round" stroke-linejoin="round"/>
    <path d="M814.382 351.626c0-.921-.084-2.765-.176-4.47l-4.449 1.751a15.21 15.21 0 0 1-1.255-3.143 1.357 1.357 0 0 0-1.911-1.023v.185s-5.243 5.023-8.188 6.912c-2.945 1.89-3.775 2.305-3.148 2.931.628.627 1.468 1.475 5.456.839 3.987-.636 8.824-1.668 10.292-2.092 1.468-.424 3.379.239 3.379-1.89zM814.686 151.496s-11.88 2.765-15.268 2.535c-3.387-.231-5.935 3.179-7.384 6.986-1.449 3.807-14.631 24.776-14.843 28.158-.213 3.383 2.972 6.563 5.086 6.775 2.114.212 13.32-17.605 13.32-17.605s3.185 13.337 3.185 16.084a39.26 39.26 0 0 1-3.185 13.549c-2.114 4.664-7.837 23.716-7.837 35.569 0 11.853 6.997 41.477 7.385 45.726.387 4.249 5.298 41.283 5.298 41.283a22.434 22.434 0 0 0 7.385 2.12c2.26.098 4.512-.338 6.572-1.272l-.425-58.427 2.963 57.791a11.002 11.002 0 0 0 6.997 2.968c4.034 0 7.634-2.968 7.634-2.968l6.148-57.791 2.769-38.712s-.212-11.862-3.821-21.383c-3.61-9.522-5.723-12.904-5.723-15.245 0-2.342 8.907-21.384 8.907-29.007 0-7.622.637-13.973-4.661-15.669-5.299-1.696-13.782-1.696-15.48-2.12-1.699-.424-5.022.655-5.022.655z" fill="#263238" stroke="#263238" stroke-linecap="round" stroke-linejoin="round"/>
    <path d="m800.055 202.31 7.21 1.908-1.727 11.843h1.699l1.274-10.793.627 11.641 2.123-.848-1.061-11.429s9.545 1.908 17.815-2.544" stroke="#fff" stroke-linecap="round" stroke-linejoin="round"/>
    <path d="m806.628 227.712 5.51 8.885 1.911 36.417" stroke="#263238" stroke-linecap="round" stroke-linejoin="round"/>
    <path d="M831.006 197.646c0-2.332 8.908-21.384 8.908-29.006 0-7.623.637-13.974-4.662-15.669-5.298-1.696-13.781-1.696-15.48-2.12-1.698-.424-5.086.636-5.086.636s-11.88 2.765-15.268 2.534c-3.387-.23-5.935 3.18-7.384 6.987-.739 1.889-4.339 8-7.809 14.093l6.757 10.351a216.49 216.49 0 0 0 4.615-7.079s3.185 13.337 3.185 16.084a28.925 28.925 0 0 1-.582 4.995c4.006 1.844 18.286 7.291 32.982-.544a5.54 5.54 0 0 1-.176-1.262z" fill="#263238" stroke="#263238" stroke-linecap="round" stroke-linejoin="round"/>
    <path d="M786.006 171.939c-4.089 7.107-8.723 15.236-8.852 17.236-.213 3.392 2.972 6.563 5.086 6.775 1.634.166 8.677-10.342 11.825-15.181-1.45-7.631-5.557-8.876-8.059-8.83zM809.378 144.085s1.274 12.489 2.336 16.932c1.061 4.443 6.36 5.53 8.058 2.332 1.699-3.198 2.548-20.748 2.548-20.748l-12.942 1.484zM803.231 131.172s-2.539-2.968-3.813 0c-1.273 2.968 1.699 5.53 3.176 6.987 1.477 1.456 2.547.636 2.547-.848s-1.91-6.139-1.91-6.139zM825.495 129.688s2.123-2.332 2.973.848c.849 3.18-1.487 5.715-3.185 7.623-1.698 1.908-1.486-2.12-1.486-2.12l1.698-6.351z" fill="#CCC" stroke="#263238" stroke-linecap="round" stroke-linejoin="round"/>
    <path d="M831.006 115.503a3.608 3.608 0 0 0-3.6-3.595h-.092a3.591 3.591 0 0 0-1.668-6.544 3.601 3.601 0 0 0-3.603 2.01 2.86 2.86 0 0 0 .065-.553 3.596 3.596 0 0 0-2.561-3.46 3.603 3.603 0 0 0-4.049 1.469v-.341a3.601 3.601 0 0 0-1.747-3.273 3.613 3.613 0 0 0-3.714 0 3.604 3.604 0 0 0-1.748 3.273v.304a3.555 3.555 0 0 0-2.151-.728 3.607 3.607 0 0 0-3.609 3.594c.003.199.025.396.065.59a3.604 3.604 0 0 0-4.976 1.079 3.592 3.592 0 0 0 1.08 4.968 3.586 3.586 0 0 0-2.934 3.753 3.589 3.589 0 0 0 3.387 3.353 3.589 3.589 0 0 0-.804 3.931 3.599 3.599 0 0 0 5.493 1.498 5.718 5.718 0 0 0 2.511.922c2.538.212 5.298 1.484 8.695 1.272 3.019-.185 7.385-3.89 8.308-4.701a3.604 3.604 0 0 0 3.865 1.413 3.593 3.593 0 0 0 .649-6.713 3.587 3.587 0 0 0 3.138-3.521z" fill="#263238" stroke="#263238" stroke-linecap="round" stroke-linejoin="round"/>
    <path d="M821.037 114.572c-4.782-3.097-10.246-3.134-14.437.71a26.179 26.179 0 0 0-3.582 4.037c-3.6 5.079 1.062 16.932 1.911 19.9s6.785 11.217 12.083 9.521c5.299-1.696 7.209-6.139 8.308-12.489 1.098-6.351.849-13.761-.637-17.568a8.974 8.974 0 0 0-3.646-4.111v0z" fill="#CCC" stroke="#263238" stroke-linecap="round" stroke-linejoin="round"/>
    <path d="M807.052 132.26a4.787 4.787 0 0 0 4.874 0M819.56 131.808c1.786.727 3.829.4 5.298-.848M816.615 131.808s-.637 1.696.425 2.111c1.061.415 2.123 1.696.637 2.544-1.486.848-2.539.848-2.963-.848M805.778 129.495s.85-1.908 5.724-1.484M818.462 127.78a7.23 7.23 0 0 1 5.723.636" stroke="#263238" stroke-linecap="round" stroke-linejoin="round"/>
    <path d="M804.929 120.582a43.705 43.705 0 0 1 6.997-4.443s6.259 6.12 13.92 8.959a23.034 23.034 0 0 0-1.2-6.452 8.973 8.973 0 0 0-3.609-4.111c-4.782-3.097-10.246-3.133-14.437.71a26.225 26.225 0 0 0-3.582 4.037 8.67 8.67 0 0 0-1.329 4.692 9.833 9.833 0 0 1 3.24-3.392z" fill="#263238" stroke="#263238" stroke-linecap="round" stroke-linejoin="round"/>
    <path d="M785.849 192.355c-1.911 2.765-4.449 5.079-6.784 4.443-2.336-.636-6.148-4.867-8.908-8.296-2.76-3.428-9.748-16.083-9.748-16.083s-3.184-7.835-3.609-9.319c-.425-1.484-1.062-6.35-1.062-6.35s-3.6 0-4.236-.636c-.637-.636 3.609-.636 3.609-.636s-2.769-.424-2.769-1.272c0-.848 5.935-.627 5.935-.627a12.452 12.452 0 0 1-3.6-1.484c-1.062-.848 0-1.272 0-1.272l6.785 1.696a26.659 26.659 0 0 1-2.77-3.392c-.212-.636.637-1.484 2.336 0 1.698 1.484 5.298 4.028 5.298 4.028a16.598 16.598 0 0 0-1.274 4.608c-.212 2.332-1.061 6.139-1.061 6.139s2.123 7.623 5.935 10.581c3.812 2.959 12.508 9.531 14.419 15.033" fill="#CCC"/>
    <path d="M785.849 192.355c-1.911 2.765-4.449 5.079-6.784 4.443-2.336-.636-6.148-4.867-8.908-8.296-2.76-3.428-9.748-16.083-9.748-16.083s-3.184-7.835-3.609-9.319c-.425-1.484-1.062-6.35-1.062-6.35s-3.6 0-4.236-.636c-.637-.636 3.609-.636 3.609-.636s-2.769-.424-2.769-1.272c0-.848 5.935-.627 5.935-.627a12.452 12.452 0 0 1-3.6-1.484c-1.062-.848 0-1.272 0-1.272l6.785 1.696a26.659 26.659 0 0 1-2.77-3.392c-.212-.636.637-1.484 2.336 0 1.698 1.484 5.298 4.028 5.298 4.028a16.598 16.598 0 0 0-1.274 4.608c-.212 2.332-1.061 6.139-1.061 6.139s2.123 7.623 5.935 10.581c3.812 2.959 12.508 9.531 14.419 15.033" stroke="#263238" stroke-linecap="round" stroke-linejoin="round"/>
    <path d="M760.834 165.441s-1.274-2.968-.637-4.876c.637-1.908 3.175-3.806 3.388-4.866.135-.767.206-1.544.212-2.323" stroke="#263238" stroke-linecap="round" stroke-linejoin="round"/>
    <path d="M741.957 159.837a1.357 1.357 0 0 1-1.339-1.201 1.357 1.357 0 0 1 1.034-1.472l83.326-19.485a1.359 1.359 0 1 1 .619 2.646L742.271 159.8a1.189 1.189 0 0 1-.314.037v0z" fill="#4788D8" stroke="#263238" stroke-linecap="round" stroke-linejoin="round"/>
    <path d="M748.788 155.911c.055.239-.351.525-.923.636-.573.11-1.034 0-1.08-.221-.047-.222.35-.526.923-.646.572-.119 1.033-.009 1.08.231zM757.409 153.855c0 .24-.36.526-.923.646-.563.119-1.034 0-1.08-.231-.046-.23.351-.525.923-.636.572-.11 1.025-.018 1.08.221zM766.021 151.809c.047.24-.35.526-.923.636-.572.111-1.024 0-1.08-.221-.055-.221.351-.525.923-.636.573-.111 1.034.028 1.08.221zM774.634 149.772c.055.24-.351.526-.923.636-.573.111-1.034 0-1.08-.221-.046-.221.35-.525.923-.645.572-.12 1.034-.019 1.08.23zM783.255 147.708c0 .239-.35.525-.923.645-.572.12-1.034 0-1.08-.231-.046-.23.351-.525.923-.636.573-.11 1.025-.018 1.08.222zM791.868 145.661c.055.24-.351.526-.923.646-.573.119-1.034 0-1.09-.231-.055-.23.36-.525.923-.636.563-.11 1.043-.018 1.09.221z" fill="#fff" stroke="#263238" stroke-width=".5" stroke-linecap="round" stroke-linejoin="round"/>
    <path d="M829.308 155.727s3.821-6.987 10.606-2.535c6.784 4.452 0 14.388-3.185 19.476-3.184 5.087-16.532 15.669-18.868 16.295-2.335.627-33.71-22.01-34.984-22.858-1.274-.848-4.616-2.968-5.936-4.876a16.7 16.7 0 0 1-1.901-4.019s-4.883-2.119-6.369-2.967c-1.486-.848-1.053-1.687-.203-1.475.849.212 4.873 1.475 4.873 1.475s-2.769-2.323-3.821-3.171c-1.052-.848-.637-1.484.637-1.272.646.097 1.284.238 1.911.424 0 0 3.387-3.807 4.024-3.595a4.817 4.817 0 0 1 1.486 1.263s2.123-1.687 2.77-1.051c.646.636.637 1.899 1.273 6.775a22.913 22.913 0 0 0 2.327 7.825s12.295 5.3 18.027 7.374a117.442 117.442 0 0 0 13.985 3.816s12.305-13.125 12.092-12.489" fill="#263238"/>
    <path d="M829.308 155.727s3.821-6.987 10.606-2.535c6.784 4.452 0 14.388-3.185 19.476-3.184 5.087-16.532 15.669-18.868 16.295-2.335.627-33.71-22.01-34.984-22.858-1.274-.848-4.616-2.968-5.936-4.876a16.7 16.7 0 0 1-1.901-4.019s-4.883-2.119-6.369-2.967c-1.486-.848-1.053-1.687-.203-1.475.849.212 4.873 1.475 4.873 1.475s-2.769-2.323-3.821-3.171c-1.052-.848-.637-1.484.637-1.272.646.097 1.284.238 1.911.424 0 0 3.387-3.807 4.024-3.595a4.817 4.817 0 0 1 1.486 1.263s2.123-1.687 2.77-1.051c.646.636.637 1.899 1.273 6.775a22.913 22.913 0 0 0 2.327 7.825s12.295 5.3 18.027 7.374a117.442 117.442 0 0 0 13.985 3.816s12.305-13.125 12.092-12.489" stroke="#263238" stroke-linecap="round" stroke-linejoin="round"/>
    <path d="M836.185 173.46c-4.985-7.3-9.711-8.738-12.831-8.618-3.397 3.558-7.385 7.826-7.385 7.826a117.374 117.374 0 0 1-13.984-3.816c-5.733-2.111-18.028-7.374-18.028-7.374a22.896 22.896 0 0 1-2.326-7.825c-.637-4.876-.637-6.148-1.274-6.775-.637-.627-2.769 1.051-2.769 1.051a4.807 4.807 0 0 0-1.487-1.263c-.636-.212-4.024 3.595-4.024 3.595a13.87 13.87 0 0 0-1.911-.424c-1.274-.212-1.689.424-.637 1.272 1.052.848 3.822 3.17 3.822 3.17s-4.034-1.262-4.874-1.474c-.84-.212-1.274.636.203 1.474 1.477.839 6.369 2.968 6.369 2.968a16.665 16.665 0 0 0 1.902 4.019c1.274 1.908 4.67 4.028 5.935 4.876 1.265.848 32.659 23.494 34.985 22.858 2.326-.636 14.381-10.231 18.314-15.54z" fill="#CCC" stroke="#263238" stroke-linecap="round" stroke-linejoin="round"/>
    <path d="M777.578 147.929s1.274.848 2.123 4.028M773.766 150.436s.637-1.272 1.486 0l.84 1.272.637 1.696a5.639 5.639 0 0 0-4.615-3.18" stroke="#263238" stroke-linecap="round" stroke-linejoin="round"/>
    <path d="M872.065 214.292h-50.576l11.419-38.666h50.575l-11.418 38.666v0z" fill="#fff" stroke="#263238" stroke-linecap="round" stroke-linejoin="round"/>
    <path d="M821.489 214.283h50.576M819.708 354.345l26.972-30.554V213.988l10.892-36.777M846.68 323.791l26.455 30.038M846.68 325.865v27.964" stroke="#263238" stroke-width="3" stroke-linecap="round" stroke-linejoin="round"/>
    <path d="m827.489 213.472 28.532-31.597 11.41 30.555" stroke="#263238" stroke-linecap="round" stroke-linejoin="round"/>
    <path d="M709.354 210.487s5.458 34.803 5.458 55.334c0 20.532-5.042 56.653-5.042 61.908v8.528l1.754 2.849v3.494a27.99 27.99 0 0 0 5.921 5.034c3.288 1.963 7.444 3.503 7.444 4.609v2.628h-26.508s-.443-4.379-.443-6.343v-3.688s-1.755-2.185-1.533-3.936c.31-1.636.748-3.246 1.311-4.813a18.326 18.326 0 0 1-1.533-3.494c0-.655-.212-19.029-.434-20.559-.222-1.53-3.694-44.843-3.694-44.843l-.822-18.614-2.411.222-9.033 86.661 1.09 3.504-.434 1.963-.222 1.752v1.973c0 1.088.222 10.058.222 10.058h-30.479a9.221 9.221 0 0 1 1.311-3.061c.924-1.097 9.643-5.245 11.398-6.121 1.754-.876 2.854-3.688 2.854-3.688s-1.1-1.088-1.1-1.964c0-.876 2.411-4.241 2.411-4.241s-1.099-5.467-1.099-6.342c0-.876-1.533-47.019-1.533-47.019l-2.623-54.247.655-16.594 2.411-4.158a41.968 41.968 0 0 0 19.941 5.033 220.062 220.062 0 0 0 24.762-1.825v0z" fill="#263238" stroke="#263238" stroke-linecap="round" stroke-linejoin="round"/>
    <path d="M696.423 154.489s5.921 20.347 8.11 30.424c2.189 10.076 5.911 27.344 5.911 27.344s-5.477 2.84-15.776 3.688a43.144 43.144 0 0 1-18.841-2.84s4.378-40.03.877-47.018c-3.5-6.989-6.798-11.82-3.944-14.438 2.854-2.618 12.931-1.53 15.12-1.097 2.189.433 8.543 3.937 8.543 3.937z" fill="#fff" stroke="#263238" stroke-linecap="round" stroke-linejoin="round"/>
    <path d="m716.142 217.485 6.678 20.715-9.421 4.813s-7.989-42.409-8.211-47.185c-.221-4.775-4.387-18.678-1.32-14.299 3.066 4.379 12.274 35.956 12.274 35.956z" fill="#C9C9C9" stroke="#263238" stroke-linecap="round" stroke-linejoin="round"/>
    <path d="M696.211 160.832s9.855 31.723 13.799 42.409c3.943 10.685 6.576 14.88 6.576 14.88s-5.256-37.625-6.133-42.658c-.877-5.034 1.09-19.25-.222-22.127-1.311-2.876-15.563-.221-15.563-.221l1.543 7.717zM677.36 150.119s9.642 23.841 9.864 30.424c.222 6.582-2.327 26.736-4.304 35.033-1.976 8.297-4.775 30.424-4.775 30.424s-5.486-1.097-14.685-2.849c-9.2-1.752-15.776-8.528-15.776-8.528l12.635-41.413s-5.541-37.624-5.541-39.809c0-2.185 12.062-6.758 22.582-3.282z" fill="#fff" stroke="#263238" stroke-linecap="round" stroke-linejoin="round"/>
    <path clip-rule="evenodd" d="m679.115 148.146-1.977 2.849 3.695 17.516 7.444-6.131 10.086 5.256-3.695-17.278s-5.033-8.325-15.553-2.212z" stroke="#263238" stroke-linecap="round" stroke-linejoin="round"/>
    <path clip-rule="evenodd" d="m681.96 153.834 6.797 13.341 4.166-15.092-10.963 1.751v0z" stroke="#263238" stroke-linecap="round" stroke-linejoin="round"/>
    <path d="m732.149 166.64-2.975-.074c-2.327-1.392-5.375-1.586-6.28-1.973-1.201-.516-1.542-1.715-2.771-1.198a4 4 0 0 1-3.768 1.539c-2.771-.175-4.461-2.572-4.461-3.079 0-.507 1.542-2.231.517-3.079-1.025-.848-2.771-.517-3.768-1.374a13.042 13.042 0 0 0-6.687-2.766c-3.602-.516-12.174 2.563-16.801 7.016a18.688 18.688 0 0 0-2.974 3.642h-1.653l-.185 3.863s-.175 2.609.074 2.839a4.445 4.445 0 0 0 1.145 2.305c2.568 2.766 6.336 1.033 7.537 1.89 1.201.857 3.085 1.54 3.602.166.517-1.374 3.085-1.023 4.618-1.364 1.21-.277 3.999.617 5.394 1.595l-1.108.11v3.494c-.268.139-.361.36 0 .784a2.09 2.09 0 0 0 2.226.516s3.768 4.278 9.088 4.444c5.32.166 11.656-2.047 15.249-5.476a12.736 12.736 0 0 0 3.768-7.182v-.074a9.258 9.258 0 0 0 .056-2.194l.157-4.37z" fill="#4788D8"/>
    <path opacity=".3" d="m732.149 166.64-2.975-.074c-2.327-1.392-5.375-1.586-6.28-1.973-1.201-.516-1.542-1.715-2.771-1.198a4 4 0 0 1-3.768 1.539c-2.771-.175-4.461-2.572-4.461-3.079 0-.507 1.542-2.231.517-3.079-1.025-.848-2.771-.517-3.768-1.374a13.042 13.042 0 0 0-6.687-2.766c-3.602-.516-12.174 2.563-16.801 7.016a18.688 18.688 0 0 0-2.974 3.642h-1.653l-.185 3.863s-.175 2.609.074 2.839a4.445 4.445 0 0 0 1.145 2.305c2.568 2.766 6.336 1.033 7.537 1.89 1.201.857 3.085 1.54 3.602.166.517-1.374 3.085-1.023 4.618-1.364 1.21-.277 3.999.617 5.394 1.595l-1.108.11v3.494c-.268.139-.361.36 0 .784a2.09 2.09 0 0 0 2.226.516s3.768 4.278 9.088 4.444c5.32.166 11.656-2.047 15.249-5.476a12.736 12.736 0 0 0 3.768-7.182v-.074a9.258 9.258 0 0 0 .056-2.194l.157-4.37z" fill="#000"/>
    <path clip-rule="evenodd" d="m732.149 166.64-2.975-.074c-2.327-1.392-5.375-1.586-6.28-1.973-1.201-.516-1.542-1.715-2.771-1.198a4 4 0 0 1-3.768 1.539c-2.771-.175-4.461-2.572-4.461-3.079 0-.507 1.542-2.231.517-3.079-1.025-.848-2.771-.517-3.768-1.374a13.042 13.042 0 0 0-6.687-2.766c-3.602-.516-12.174 2.563-16.801 7.016a18.688 18.688 0 0 0-2.974 3.642h-1.653l-.185 3.863s-.175 2.609.074 2.839a4.445 4.445 0 0 0 1.145 2.305c2.568 2.766 6.336 1.033 7.537 1.89 1.201.857 3.085 1.54 3.602.166.517-1.374 3.085-1.023 4.618-1.364 1.21-.277 3.999.617 5.394 1.595l-1.108.11v3.494c-.268.139-.361.36 0 .784a2.09 2.09 0 0 0 2.226.516s3.768 4.278 9.088 4.444c5.32.166 11.656-2.047 15.249-5.476a12.736 12.736 0 0 0 3.768-7.182v0-.074a9.258 9.258 0 0 0 .056-2.194l.157-4.37z" stroke="#263238" stroke-linecap="round" stroke-linejoin="round"/>
    <path d="M720.151 159.117a4.004 4.004 0 0 1-3.769 1.54c-2.77-.176-4.461-2.573-4.461-3.08 0-.507 1.543-2.231.518-3.079-1.026-.848-2.771-.516-3.769-1.374a13.046 13.046 0 0 0-6.687-2.765c-3.602-.517-12.173 2.572-16.8 7.015-4.627 4.444-6.17 9.948-3.621 12.686 2.55 2.738 6.336 1.033 7.537 1.844 1.201.811 3.085 1.54 3.602.166.517-1.374 3.085-1.023 4.618-1.364 1.533-.341 5.653 1.198 6.17 2.387a1.842 1.842 0 0 1-.517 2.397c-.508.342-2.226.176-1.367 1.199a2.07 2.07 0 0 0 2.226.516s3.768 4.278 9.088 4.444c5.32.166 11.656-2.047 15.249-5.467 3.593-3.42 4.978-9.072 2.918-12.151-2.059-3.079-7.028-3.255-8.229-3.762-1.201-.507-1.505-1.641-2.706-1.152z" fill="#4788D8" stroke="#263238" stroke-linecap="round" stroke-linejoin="round"/>
    <path d="m710.555 161.339-5.145 4.443 44.906 20.882 2.06-3.088-41.821-22.237v0z" fill="#263238" stroke="#263238" stroke-linecap="round" stroke-linejoin="round"/>
    <path d="M752.376 183.585s6.345 3.586 7.887 5.467c1.543 1.881 3.769 4.278 3.769 4.278s1.034-1.844 2.401-1.844c2.374 0 5.375 1.088 6.17 3.937.314 1.106.859 3.936-2.06 5.135-2.919 1.198-4.618.682-7.389-1.199-2.771-1.881-7.537-6.158-9.762-7.532a44.918 44.918 0 0 1-3.778-2.563v-2.766l2.762-2.913z" fill="#4788D8" stroke="#263238" stroke-linecap="round" stroke-linejoin="round"/>
    <path d="M764.032 193.33s-1.543 1.374-.859 4.278c.683 2.904 4.285 3.77 6.52 2.572 2.235-1.199 1.026-3.55-1.034-4.112-1.293-.35-2.909-1.023-3.593.516-.683 1.54 1.367 3.08 3.251 2.766 1.884-.313.176-1.198-.683-1.374" stroke="#263238" stroke-linecap="round" stroke-linejoin="round"/>
    <path d="M750.325 186.664s4.794 2.222 7.537 5.467a54.177 54.177 0 0 0 5.311 5.477" stroke="#263238" stroke-linecap="round" stroke-linejoin="round"/>
    <path d="m698.843 157.642-3.473 3.807-8.663-4.674 1.561-1.383 10.575 2.25v0z" fill="#263238" stroke="#263238" stroke-linecap="round" stroke-linejoin="round"/>
    <path d="M703.868 166.64s-.342 2.083-2.078 2.083c-1.737 0-5.542-2.599-7.805-1.908-2.263.692-.342 2.074.868 2.074M710.462 160.583a1.314 1.314 0 0 0-.692-1.899c-1.395-.526-5.034-1.734-3.298-3.467 1.737-1.733 3.298 1.217 3.298 1.217M692.729 176.394v-3.199" stroke="#263238" stroke-linecap="round" stroke-linejoin="round"/>
    <path d="M711.543 114.025c.443-7.873-7.444-6.997-14.242-4.37a21.338 21.338 0 0 1-4.978 1.263 34.279 34.279 0 0 0-5.099-.396c-.609 0-1.21 0-1.847.055l-.166-.055.074.064c-8.562.471-15.452 3.992-16.071 5.624-.619 1.632 1.321 7.219 1.755 10.501a44.396 44.396 0 0 0 3.066 9.846c.656 1.309 2.854 4.158 4.821 1.752 1.968-2.406 1.533-6.131 5.699-8.095 4.165-1.963 13.632 1.088 13.632 1.088l4.618 1.752c.09-2.429.688-4.813 1.755-6.998.292-.579.626-1.137.998-1.668a12.74 12.74 0 0 0 5.985-10.363z" fill="#263238" stroke="#263238" stroke-linecap="round" stroke-linejoin="round"/>
    <path d="M700.155 127.365c-3.251-2.47-10.807-4.038-14.686-3.936a76.645 76.645 0 0 0-8.986-2.406l6.797 3.955a5.06 5.06 0 0 1-2.41 4.794 13.122 13.122 0 0 1-4.849 1.973s1.311 4.37.434 4.812a.923.923 0 0 1-1.312-.442s-.415-4.149-2.817-3.301c-2.401.848-2.189 6.343-1.09 7.883 1.1 1.539 5.034.212 5.034.212s.665 7.218 3.51 11.598c2.845 4.379 8.155 5.338 11.619 3.494 6.567-3.494 7.232-10.934 7.232-10.934a6.604 6.604 0 0 0 3.944-6.122c.23-4.794 2.179-8.076-2.42-11.58z" fill="#fff" stroke="#263238" stroke-linecap="round" stroke-linejoin="round"/>
    <path d="M693.135 139.397s.924 4.158-.656 5.033c-1.579.876-4.821.434-4.821-1.972M683.28 136.99s1.755 1.973 5.034 0M694.89 137.645s1.755 2.194 5.043.876" stroke="#263238" stroke-linecap="round" stroke-linejoin="round"/>
    <path d="M690.512 134.584a10.176 10.176 0 0 0-8.109-.654M694.013 135.46a6.178 6.178 0 0 1 7.675.443" stroke="#263238" stroke-width="1.5" stroke-linecap="round" stroke-linejoin="round"/>
    <path d="M693.366 147.842a8.807 8.807 0 0 1-8.783-4.02" stroke="#263238" stroke-linecap="round" stroke-linejoin="round"/>
    <path d="M670.784 151.649s-8.978-6.343-13.799-4.812c-4.821 1.53-8.987 16.595-13.152 26.247-4.166 9.653 1.099 13.562 5.477 13.562s10.52-3.937 12.93-7.44c2.411-3.504 7.666-18.153 7.666-18.153" fill="#fff"/>
    <path d="M670.784 151.649s-8.978-6.343-13.799-4.812c-4.821 1.53-8.987 16.595-13.152 26.247-4.166 9.653 1.099 13.562 5.477 13.562s10.52-3.937 12.93-7.44c2.411-3.504 7.666-18.153 7.666-18.153" stroke="#263238" stroke-linecap="round" stroke-linejoin="round"/>
    <path d="m725.572 207.638 3.279-12.686-6.788 2.849 3.509 9.837v0z" fill="#fff" stroke="#263238" stroke-linecap="round" stroke-linejoin="round"/>
    <path d="M723.384 199.553s9.236-5.255 12.708-7.219c3.473-1.964 8.544-4.61 9.237-7.44.692-2.83 1.099-5.9.443-6.997-.656-1.097-1.755-1.752-2.854-.655l-1.09 1.088a1.846 1.846 0 0 0-1.976-1.309 2.456 2.456 0 0 0-1.977 1.309s.222-1.743-1.312-1.743a3.285 3.285 0 0 0-2.41 1.088s.443-3.06-.924-3.282c-1.367-.221-2.632 0-2.844 2.194a27.342 27.342 0 0 1-2.633 8.528c-1.311 2.407-1.755 6.565-1.755 6.565l-5.477 2.406s-.425 5.024 2.864 5.467z" fill="#fff" stroke="#263238" stroke-linecap="round" stroke-linejoin="round"/>
    <path d="M741.791 178.33s.868 2.849.434 4.61a5.932 5.932 0 0 1-1.311 2.618M737.838 178.33a9.805 9.805 0 0 1-.656 5.034M734.116 177.675a8.94 8.94 0 0 1 0 4.61" stroke="#263238" stroke-linecap="round" stroke-linejoin="round"/>
    <path d="m723.162 192.113 2.41 15.525-9.707 4.389-2.466-17.904 9.763-2.01v0z" fill="#fff" stroke="#263238" stroke-linecap="round" stroke-linejoin="round"/>
    <path d="m734.301 111.25-23.451 55.851" stroke="#263238" stroke-linecap="round" stroke-linejoin="round"/>
    <path d="m705.826 171.443 25.796-61.871 1.681 1.678" stroke="#263238" stroke-width="2" stroke-linecap="round" stroke-linejoin="round"/>
    <path d="M687.002 167.175s19.285-4.813 21.243-4.61c1.959.203 3.076 1.752 4.822 3.937 1.745 2.185-.868 4.379-.868 4.379s1.089 1.964-1.543 3.061a18.887 18.887 0 0 1-5.034 1.309l.435-2.619s-7.888 3.061-10.077 3.273c-2.189.212-4.387-1.742-4.387-1.742h-3.288l-1.303-6.988z" fill="#fff" stroke="#263238" stroke-linecap="round" stroke-linejoin="round"/>
    <path d="m709.354 166.741 2.854 4.158" stroke="#263238" stroke-linecap="round" stroke-linejoin="round"/>
    <path d="M643.833 173.084s-5.477 10.058-2.632 15.535c2.844 5.476 48.434-12.253 48.434-12.253l-.878-10.279-37.258 4.609" fill="#fff"/>
    <path d="M643.833 173.084s-5.477 10.058-2.632 15.535c2.844 5.476 48.434-12.253 48.434-12.253l-.878-10.279-37.258 4.609" stroke="#263238" stroke-linecap="round" stroke-linejoin="round"/>
    <path d="M749.568 214.866h-50.605l11.416-38.675h50.605l-11.416 38.675v0z" fill="#fff" stroke="#263238" stroke-linecap="round" stroke-linejoin="round"/>
    <path d="M698.963 214.857h50.605M697.181 354.954l26.988-30.562v-109.83l10.898-36.785M724.169 324.392l26.47 30.046M724.169 326.466v27.972" stroke="#263238" stroke-width="3" stroke-linecap="round" stroke-linejoin="round"/>
    <path d="m704.967 214.046 28.539-31.604 11.416 30.562" stroke="#263238" stroke-linecap="round" stroke-linejoin="round"/>
    <path d="M942.202 73.61a12.155 12.155 0 0 0-7.733 4.6c-2.939 4.049-4.785 8.106-6.99 10.692-2.204 2.585-5.713 2.954-4.969 4.6.744 1.648 4.593 2.761 4.593 2.761s-.561 10.692-.184 12.882c.377 2.19 2.939.92 4.225.92 1.286 0 7.917-1.84 7.917-1.84l1.295 9.781 18.37-6.441-2.214-8.116s5.511-7.186 6.081-13.461c.569-6.276 0-11.428-5.713-14.722-5.713-3.294-14.678-1.657-14.678-1.657z" fill="#fff" stroke="#263238" stroke-linecap="round" stroke-linejoin="round"/>
    <path d="M952.572 76.61s-11.784.56-10.471 3.744c1.314 3.184 2.995 7.73 2.995 8.65 0 .92-4.675 5.805-3.555 6.55 1.121.746 5.796-3.183 7.477-3.183 1.68 0 .56 10.489 2.241 11.041 1.68.552 5.428-.184 5.988-.377.56-.193 4.859-7.867 7.853-14.98 2.994-7.112 1.837-13.111-1.837-15.55-3.674-2.438-19.821-1.122-26.737-1.84-6.916-.718-16.073-8.06-14.953-.377 1.121 7.683 7.66 9.201 13.649 7.306 5.988-1.896 17.35-.985 17.35-.985z" fill="#263238" stroke="#263238" stroke-linecap="round" stroke-linejoin="round"/>
    <path d="m934.836 84.67-1.102 2.76s.735 1.656 5.511 1.104M934.285 88.911s.735.92 4.785.368" stroke="#263238" stroke-linecap="round" stroke-linejoin="round"/>
    <path d="M935.231 80.915s3.674-1.426 5.511 3.267" stroke="#263238" stroke-width="2" stroke-linecap="round" stroke-linejoin="round"/>
    <path d="m932.448 310-8.349 5.842c-3.968 2.761-12.978 5.576-12.978 6.368 0 .791.138 1.84 1.066 1.84h20.39c.661 0 2.921-1.196 3.315-1.325a7.73 7.73 0 0 1 1.984-.267c.662 0 .799 1.454.799 1.454h9.268c.561-1.528.832-3.148.799-4.776a52.522 52.522 0 0 0-.404-5.971L932.448 310z" fill="#787878" stroke="#263238" stroke-linecap="round" stroke-linejoin="round"/>
    <path d="M936.159 250.752s-1.727 30.089-1.727 39.115c0 9.027-.597 12.035-.597 12.035s-2.709 1.509-2.709 3.616c0 2.108-.303 4.813-.303 4.813s1.506 2.41 6.916 3.91a60.506 60.506 0 0 0 11.416 1.841s3.307-2.108 4.207-8.429c.9-6.321-.606-17.482-1.837-26.187-1.231-8.704-10.893-36.704-10.893-36.704s-4.17 2.374-4.473 5.99z" fill="#263238" stroke="#263238" stroke-linecap="round" stroke-linejoin="round"/>
    <path d="M947.649 313.045s-6.31 4.509-9.617 5.714a88.593 88.593 0 0 0-8.404 3.911s0 1.509 1.194 1.509h19.233s2.701.598 3.601-.304a5.156 5.156 0 0 1 1.837-1.205h1.837v1.84h9.313a30.977 30.977 0 0 0-.303-3.92 22.811 22.811 0 0 0-1.497-4.812l-17.194-2.733z" fill="#787878" stroke="#263238" stroke-linecap="round" stroke-linejoin="round"/>
    <path d="M922.685 166.34s-2.398 1.343-8.928.534c-6.53-.81-9.065-2.135-9.46-1.068-.395 1.068-2.535 7.886-2.673 9.082-.138 1.196 2.939 1.739 3.472 1.739.533 0-.799 2.54.918 2.273 1.718-.267 5.869-.672 6.935-1.206a18.837 18.837 0 0 0 3.068-2.539l7.347-1.997-.679-6.818z" fill="#fff" stroke="#263238" stroke-linecap="round" stroke-linejoin="round"/>
    <path d="M910.157 169.974s-1.837 3.607-2.535 4.546a12.144 12.144 0 0 1-2.526 2.135M908.292 172.753l-2.268-.938" stroke="#263238" stroke-linecap="round" stroke-linejoin="round"/>
    <path d="M922.336 178.256s1.506 25.579 3.306 41.231c1.8 15.651 7.807 28.257 10.82 36.059 3.012 7.803 10.884 40.32 11.49 44.535.361 2.287.463 4.608.303 6.919a2.952 2.952 0 0 0-2.103 2.714c.043 1.52.243 3.031.597 4.509 0 0 6.31 1.84 10.213 2.411 2.988.388 5.998.587 9.011.598.588-3.689.99-7.405 1.203-11.134a60.72 60.72 0 0 0-.597-12.339c-.303-1.84-4.28-32.489-7.587-40.918a94.607 94.607 0 0 1-6.613-25.285c-1.203-9.928 8.413-29.196 5.41-40.927-3.003-11.732-7.21-15.642-7.21-15.642l-27.94.598-.303 6.671z" fill="#263238" stroke="#263238" stroke-linecap="round" stroke-linejoin="round"/>
    <path d="M949.091 254.304c-6.246-26.619-10.379-61.998-10.425-62.348l-3.582.414c.046.359 4.207 35.931 10.498 62.762 2.287 9.744 4.336 18.458 6.283 24.466 3.297 10.122 5.152 23.823 5.189 37.072 1.158.166 2.416.295 3.61.378 0-14.087-2.058-28.386-5.373-38.572-1.929-5.935-3.95-14.575-6.2-24.172z" fill="#787878" stroke="#263238" stroke-linecap="round" stroke-linejoin="round"/>
    <path d="m920.6 166.294 1.304 14.05s5.235 2.439 9.543 1.123a27.39 27.39 0 0 0 5.796-2.245v-14.198s-12.161 3.745-16.643 1.27z" fill="#fff" stroke="#263238" stroke-linecap="round" stroke-linejoin="round"/>
    <path d="M940.421 118.944s-10.664 8.051-13.649 16.48c-2.985 8.428-6.732 26.601-7.293 29.968-.56 3.368 2.241 2.816 6.916 4.316 4.675 1.499 6.356-2.061 12.345-19.857 5.988-17.795 10.654-23.417 10.103-26.785-.551-3.367-2.627-7.305-8.422-4.122z" fill="#fff" stroke="#263238" stroke-linecap="round" stroke-linejoin="round"/>
    <path d="m958.037 108.271-18.967 8.851.735 3.69 19.334-9.956-1.102-2.585v0z" fill="#fff" stroke="#263238" stroke-linecap="round" stroke-linejoin="round"/>
    <path d="M958.404 109.752s-18.222 10.324-20.436 13.296c-2.213 2.972-8.101 13.645-11.022 26.187-2.92 12.541-.376 33.373 2.756 40.384 3.132 7.012 22.824 37.615 25.589 44.994 2.764 7.38 6.255 21.945 6.255 21.945s4.785-28.772 4.05-48.499c-.735-19.728-10.856-35.775-10.856-35.775s12.858-28.772 11.591-40.753c-1.268-11.98-7.927-21.779-7.927-21.779z" fill="#263238" stroke="#263238" stroke-linecap="round" stroke-linejoin="round"/>
    <path d="m869.863 121.732-40.661 18.863" stroke="#263238" stroke-linecap="round" stroke-linejoin="round"/>
    <path d="M896.967 115.282s-6.429-4.978-8.468-6.082c-2.039-1.104-6.08-.92-7.183.368-1.102 1.288-7.549 4.978-9.57 5.521-2.021.543-4.785 1.472-4.785 2.392 0 .92-.184 4.426-.184 4.426l4.05 2.217 6.43 1.657s3.132-2.209 3.499-2.945c.368-.736-.367-2.033-.367-2.033a21.762 21.762 0 0 0 2.948-2.945 12.547 12.547 0 0 1 2.021-2.217l7.917 6.266 3.692-6.625z" fill="#fff" stroke="#263238" stroke-linecap="round" stroke-linejoin="round"/>
    <path d="M870.782 124.134c-.102-.7.027-1.414.367-2.034.551-.736 2.572-4.232 2.572-4.232M872.067 120.076h-2.02M880.352 120.812a20.608 20.608 0 0 1-2.755 2.218M875.199 119.156s-3.132 3.68-2.029 5.162M877.404 119.892s-2.388 1.84-2.205 3.322c.184 1.481 2.021 2.576 2.021 2.576" stroke="#263238" stroke-linecap="round" stroke-linejoin="round"/>
    <path d="M954.721 117.868a13.453 13.453 0 0 0-8.836 1.656c-4.234 2.576-9.754 15.642-9.754 15.642l-40.082-21.54-6.08 9.036s39.026 28.579 40.679 29.683c1.653 1.104 6.815 4.794 10.866 2.953 4.05-1.84 19.141-22.313 19.141-22.313" fill="#263238"/>
    <path d="M954.721 117.868a13.453 13.453 0 0 0-8.836 1.656c-4.234 2.576-9.754 15.642-9.754 15.642l-40.082-21.54-6.08 9.036s39.026 28.579 40.679 29.683c1.653 1.104 6.815 4.794 10.866 2.953 4.05-1.84 19.141-22.313 19.141-22.313" stroke="#263238" stroke-linecap="round" stroke-linejoin="round"/>
    <path d="M945.821 94.984s3.196-5.447 5.63-3.58c2.434 1.869 2.058 6.745-.918 9.202s-6.732-2.061-6.732-2.061" fill="#fff"/>
    <path d="M945.821 94.984s3.196-5.447 5.63-3.58c2.434 1.869 2.058 6.745-.918 9.202s-6.732-2.061-6.732-2.061" stroke="#263238" stroke-linecap="round" stroke-linejoin="round"/>
    <path d="M939.667 121.373s-4.114-4.867-4.858-2.622c-.744 2.245-3.362 6.376-1.305 6.376 2.058 0 6.163-3.754 6.163-3.754z" fill="#263238" stroke="#263238" stroke-linecap="round" stroke-linejoin="round"/>
    <path fill="#4788D8" stroke="#263238" stroke-linecap="round" stroke-linejoin="round" d="M890.905 324.087h106.47v29.785h-106.47z"/>
</svg>
