<svg width="375" height="219" fill="none" xmlns="http://www.w3.org/2000/svg">
    <path d="M-367.812 214.799h849.067" stroke="#263238" stroke-width="1.213" stroke-linecap="round" stroke-linejoin="round"/>
    <path d="M333.104 74.606c-32.502-49.249-119.379-76.969-162.1-24.72a72.628 72.628 0 0 0-4.689 6.431c-10.549 16.259-25.943 44.402-49.592 37.609C100.537 89.28 88.257 76.35 72.216 71.36c-21.176-6.582-38.942 7.1-49.363 24.54-12.118 20.274-16.248 44.062-5.398 65.948 20.206 40.815 81.14 49.812 121.678 45.924 29.677-2.85 56.871-17.809 86.805-18.852 21.539-.747 42.86 4.652 63.149 11.39 9.4 3.123 18.827 6.564 28.695 7.401 35.309 2.989 38.2-29.003 35.856-55.886-2.327-26.727-5.347-54.257-20.534-77.22z" fill="#4788D8"/>
    <path opacity=".7" d="M333.104 74.606c-32.502-49.249-119.379-76.969-162.1-24.72a72.628 72.628 0 0 0-4.689 6.431c-10.549 16.259-25.943 44.402-49.592 37.609C100.537 89.28 88.257 76.35 72.216 71.36c-21.176-6.582-38.942 7.1-49.363 24.54-12.118 20.274-16.248 44.062-5.398 65.948 20.206 40.815 81.14 49.812 121.678 45.924 29.677-2.85 56.871-17.809 86.805-18.852 21.539-.747 42.86 4.652 63.149 11.39 9.4 3.123 18.827 6.564 28.695 7.401 35.309 2.989 38.2-29.003 35.856-55.886-2.327-26.727-5.347-54.257-20.534-77.22z" fill="#fff"/>
    <path d="M244.779 10.893s15.565 42.877 57.078 73.497v130.488M273.552 1.468s7.548 46.173 32.542 81.974M302.794 1s-.831 55.313 10.848 80.563M278.443 50.14a148.21 148.21 0 0 1-1.591-2.967M304.207 82.974s-12.282-9.988-23.721-29.271M313.24 50.145c-.24 8.331.111 22.088 4.176 31.418M313.642 42.93s-.118 1.176-.229 3.161M305.625 87.691l-.944 88.102" stroke="#263238" stroke-width=".606" stroke-linecap="round" stroke-linejoin="round"/>
    <path d="M301.857 84.39s-50.468-18.374-71.693-67.843M303.453 83.844h15.654M302.845 86.28H318.7M309.957 86.688l-1.624 26.198M313.212 86.487l.815 10.355M134.873 10.893S119.303 53.77 77.802 84.39v130.488M106.1 1.468s-7.542 46.173-32.541 81.974M76.875 1s.832 55.313-10.847 80.563M75.446 82.974S90.519 70.704 102.8 47.166M66.011 42.93s2.406 24.44-3.774 38.633M74.028 87.691l.943 88.102M147.607 20.718a101.544 101.544 0 0 0 1.887-4.17" stroke="#263238" stroke-width=".606" stroke-linecap="round" stroke-linejoin="round"/>
    <path d="M77.802 84.39s44.985-16.378 67.874-59.835" stroke="#263238" stroke-width=".606" stroke-linecap="round" stroke-linejoin="round"/>
    <path opacity=".2" fill-rule="evenodd" clip-rule="evenodd" d="m157.139 56.39.15 1.14a9.43 9.43 0 0 0-1.128-.375 4.927 4.927 0 0 0-1.118-.09 2.622 2.622 0 0 0-2.52 2.562 2.555 2.555 0 0 0 2.38 2.433 4.059 4.059 0 0 0 3.023-1.051 2.127 2.127 0 0 0 .889-1.975c-.101-.746-.207-1.491-.319-2.237l-.073-.477c-.435-2.808-.872-5.64-1.29-8.473-.05-.308-.201-.38-.453-.442l-6.867-1.645a10.872 10.872 0 0 0-.547-.116l-.258-.051.286 3.427c.2 2.401.4 4.792.597 7.2l-.33-.111a4.509 4.509 0 0 0-2.307-.291 2.663 2.663 0 0 0-2.152 2.847 2.37 2.37 0 0 0 2.632 2.047 4.3 4.3 0 0 0 3.213-1.678 1.75 1.75 0 0 0 .347-1.118 240.922 240.922 0 0 0-.479-5.164l-.17-1.706c-.019-.212-.035-.42-.051-.637l-.038-.481 1.781.43c1.312.316 2.603.627 3.891.951.138.087.232.23.257.392.127.816.24 1.635.353 2.453l.094.674c.071.52.139 1.038.207 1.561zm-6.052-7.749c-.743-.19-.771-.24-.648-1.119l1.71.42 3.263.844c.771.207.827.297.771 1.17l-2.95-.756-2.146-.559zM336.817 50.875l.091.68a9.502 9.502 0 0 0-1.095-.386 5.254 5.254 0 0 0-1.146-.083 2.61 2.61 0 0 0-2.514 2.556 2.56 2.56 0 0 0 2.374 2.439 4.116 4.116 0 0 0 3.029-1.052 2.143 2.143 0 0 0 .883-1.98 74.83 74.83 0 0 0-.319-2.237c-.149-.98-.3-1.962-.451-2.945-.308-1.997-.616-4-.912-6.005-.045-.314-.201-.386-.447-.442l-6.879-1.606c-.163-.04-.333-.074-.516-.11l-.288-.057.332 4.005.551 6.623-.336-.112a4.507 4.507 0 0 0-2.307-.291 2.667 2.667 0 0 0-2.146 2.847 2.37 2.37 0 0 0 2.632 2.053 4.313 4.313 0 0 0 3.213-1.678c.244-.331.366-.736.346-1.147a249.81 249.81 0 0 0-.44-4.737c-.07-.71-.14-1.422-.208-2.132-.027-.294-.05-.574-.075-.879l-.02-.24c1.939.464 3.805.912 5.672 1.382.117.028.257.246.257.391.162 1.04.307 2.081.447 3.127.092.668.181 1.336.272 2.016zm-6.117-8.202c-.743-.19-.766-.246-.643-1.12v-.016l.19.045c.507.119 1.013.237 1.52.392.542.142 1.086.282 1.629.422.543.14 1.087.28 1.629.422.776.202.832.297.776 1.164l-2.955-.75a110.78 110.78 0 0 0-1.834-.48c-.103-.026-.207-.052-.312-.08z" fill="#000"/>
    <path opacity=".2" d="M228.796 42.768c.335.833.642 1.616.966 2.388.705 1.682 1.41 3.36 2.118 5.035a1.72 1.72 0 0 1 0 1.398 4.04 4.04 0 0 1-2.503 2.394c-1.196.409-2.71-.665-2.839-2.002a2.497 2.497 0 0 1 2.52-2.887h1.118l-3.688-9.285c.302-.123.559-.246.861-.347a.222.222 0 0 1 .206.045c.632.772 1.548 1.068 2.392 1.493.723.296 1.429.634 2.112 1.013 2.04 1.337 2.548 3.188 1.866 5.543-.039.134-.184.235-.285.352a1.312 1.312 0 0 1-.156-.442 4.618 4.618 0 0 0-4.47-4.693l-.218-.005zM42.584 48.266c.34.834.648 1.617.972 2.389.699 1.678 1.414 3.356 2.118 5.034.195.446.195.953 0 1.399a4.042 4.042 0 0 1-2.504 2.394c-1.195.408-2.71-.666-2.838-2.003a2.491 2.491 0 0 1 2.52-2.886h1.117L40.3 45.29c.301-.123.558-.246.86-.346a.223.223 0 0 1 .207.044c.631.772 1.547 1.069 2.386 1.494.725.295 1.432.633 2.117 1.012 2.04 1.337 2.548 3.189 1.867 5.544-.04.134-.19.235-.285.352a1.316 1.316 0 0 1-.157-.442 4.618 4.618 0 0 0-4.47-4.693l-.24.011zM106.653 36.257c.335.833.643 1.616.967 2.388a756.083 756.083 0 0 0 2.123 5.034c.193.447.193.953 0 1.399a4.047 4.047 0 0 1-2.509 2.394c-1.19.408-2.71-.666-2.838-2.008a2.496 2.496 0 0 1 2.48-2.858h1.118l-3.671-9.303c.302-.123.559-.246.86-.347a.236.236 0 0 1 .213.045c.626.766 1.548 1.069 2.386 1.494a19.88 19.88 0 0 1 2.112 1.012c2.045 1.337 2.548 3.189 1.866 5.543-.039.135-.184.235-.279.353a1.369 1.369 0 0 1-.162-.442 4.619 4.619 0 0 0-4.443-4.693c-.061-.017-.117-.011-.223-.011zM252.248 79.429l-5.856-11.825c.419-.134.793-.28 1.184-.37.084 0 .257.14.319.258 1.039 2.002 2.062 4.016 3.095 6.024a267.324 267.324 0 0 0 3.443 6.668 3.288 3.288 0 0 1-.341 3.916 3.742 3.742 0 0 1-4.605 1.242c-1.542-.733-2.548-2.892-1.676-4.397a2.934 2.934 0 0 1 2.297-1.482 18.146 18.146 0 0 1 2.14-.034zM261.149 76.285l-5.862-11.825c.419-.14.799-.28 1.191-.37.083 0 .257.14.312.258 1.04 2.003 2.062 4.017 3.096 6.025 1.146 2.237 2.269 4.475 3.448 6.662a3.297 3.297 0 0 1-.347 3.915 3.741 3.741 0 0 1-4.604 1.248c-1.542-.733-2.548-2.898-1.676-4.402a2.92 2.92 0 0 1 2.296-1.477 17.02 17.02 0 0 1 2.146-.034zM100.367 74.713a2306.895 2306.895 0 0 0-5.85-11.825c.418-.14.793-.28 1.184-.369.084 0 .257.14.319.252 1.039 2.008 2.061 4.022 3.095 6.03a260.026 260.026 0 0 0 3.442 6.662 3.29 3.29 0 0 1-.341 3.916 3.758 3.758 0 0 1-4.61 1.247c-1.536-.733-2.542-2.898-1.676-4.402a2.911 2.911 0 0 1 2.297-1.477 16.93 16.93 0 0 1 2.14-.034zM328.727 83.563l-5.828-11.825c.419-.135.794-.28 1.185-.37.084 0 .257.14.318.258 1.04 2.008 2.062 4.016 3.096 6.03 1.146 2.237 2.269 4.475 3.442 6.662a3.29 3.29 0 0 1-.341 3.916 3.741 3.741 0 0 1-4.604 1.241c-1.542-.732-2.548-2.892-1.676-4.396a2.93 2.93 0 0 1 2.296-1.483 18.107 18.107 0 0 1 2.112-.033z" fill="#000"/>
    <path d="M270.194 143.598s-4.736 28.902-5.038 35.217c-.694 15.062 1.299 35.217 1.299 35.217M238.435 178.994l1.439 35.004M224.087 179.172l-5.027 35.005M244.538 177.56c-.084.415-.144.834-.18 1.255-.252 15.33 1.26 35.022 1.26 35.022" stroke="#263238" stroke-width="1.819" stroke-linecap="round" stroke-linejoin="round"/>
    <path d="M251.714 139.303h13.593a4.904 4.904 0 0 1 4.619 3.236v0c.29.809.364 1.68.212 2.527l-3.359 18.375h-19.37l4.305-24.138z" fill="#787878" stroke="#263238" stroke-width=".606" stroke-linecap="round" stroke-linejoin="round"/>
    <rect x="220.857" y="172.735" width="45.749" height="7.152" rx="3.226" fill="#787878" stroke="#263238" stroke-width=".606" stroke-linecap="round" stroke-linejoin="round"/>
    <path d="M235.793 120.626s-11.264 1.334-13.184 2.07c-1.92.736-3.023 1.328-7.143 3.838-4.12 2.51-9.064 3.983-11.672 6.198-2.609 2.214-6.455 12.105-6.455 12.105l4.394 4.279s-.134.295 3.158-3.392c3.292-3.688 8.24-8.708 10.989-9.746a28.684 28.684 0 0 1 6.158-1.623c.56 0 3.023 1.478 3.023 1.478l-2.34 29.923c3.727.687 7.486 1.18 11.264 1.478 4.943.296 19.09-2.359 19.09-2.359l.414-24.612 12.092 6.766s.56-.591-1.78-7.676c-2.34-7.084-1.511-9.74-3.297-12.546-1.786-2.806-9.892-3.693-11.538-4.574-1.646-.881-8.924-1.629-10.027-1.629l-3.146.022z" fill="#263238" stroke="#263238" stroke-width=".606" stroke-linecap="round" stroke-linejoin="round"/>
    <path d="M197.339 144.837s.968-2.845 2.95-3.297a3.142 3.142 0 0 1 3.812 2.125 3.694 3.694 0 0 1-.302 3.041c-.308.457-1.371 1.673-1.371 1.673s-5.145-.697-5.089-3.542zM230.1 127.265s.475 2.499.834 4.278c.358 1.78 1.55 7.119 1.55 7.119l5.106-11.157-2.385-3.805-5.105 3.565z" fill="#fff" stroke="#263238" stroke-width=".606" stroke-linecap="round" stroke-linejoin="round"/>
    <path d="m231.527 126.791.717 3.447-1.193 2.02 1.669 4.401 2.866-4.993-1.551-1.545 1.909-3.213-1.315-2.616-3.102 2.499v0z" fill="#263238" stroke="#263238" stroke-width=".606" stroke-linecap="round" stroke-linejoin="round"/>
    <path d="m232.96 126.673-4.058 1.546 3.7-8.206 2.626.357-2.268 6.303v0z" fill="#fff" stroke="#263238" stroke-width=".606" stroke-linecap="round" stroke-linejoin="round"/>
    <path d="M234.869 96.94s-5.598.781-6.046 1.719a7.812 7.812 0 0 0-.627 2.114s-1.965 3.051-1.886 3.285c.078.235.078 2.037-.236 2.583-.313.547-1.886 3.52-1.886 4.697s.705 8.217 1.338 8.842c.632.625 1.987.631 2.513.631.527 0 4.082-2.109 4.082-2.109l.856 9.36 8.789-8.367s.096-5.261.56-6.198c.465-.937 4.792-5.322 5.106-9.16.313-3.838-4.871-6.571-7.463-7.04a23.692 23.692 0 0 0-5.1-.357v0z" fill="#fff" stroke="#263238" stroke-width=".606" stroke-linecap="round" stroke-linejoin="round"/>
    <path d="M239.975 97.253a23.69 23.69 0 0 0-5.106-.313s-5.598.781-6.046 1.719a7.812 7.812 0 0 0-.627 2.114s1.646-.558 3.611-1.016c1.965-.457 7.838-.63 7.463.86-.375 1.489-3.538 1.88-2.906 2.789.633.909 1.96 1.406 2.116 2.661.157 1.255-2.194 6.024-1.802 6.415.392.39 1.41.865 1.567.469a13.707 13.707 0 0 1 1.73-3.442c.94-1.172 2.435-1.958 2.435.557 0 2.516-2.592 3.682-2.592 3.682l2.514-.312c.47-.943 4.792-5.322 5.105-9.16.314-3.838-4.87-6.555-7.462-7.023z" fill="#263238" stroke="#263238" stroke-width=".606" stroke-linecap="round" stroke-linejoin="round"/>
    <path d="m228.118 104.633.157 1.958s-2.984 4.619-2.906 5.166c.079.546 1.411 1.327 1.411 1.327M225.996 114.155l2.514.313M232.356 105.782l-.706 1.116a6.459 6.459 0 0 0 3.359.234M231.572 107.579c.959.167 1.934.22 2.906.156M231.494 108.365s-.471 1.015 1.965 1.952" stroke="#263238" stroke-width=".606"/>
    <path d="m226.858 105.47-.784 1.171 1.803.078" stroke="#263238" stroke-width=".606"/>
    <path d="M231.259 103.824a2.804 2.804 0 0 1 3.61.625M228.196 103.902s-.156-1.171-1.416-.234" stroke="#263238" stroke-width="1.213"/>
    <path d="m232.121 118.691 4.002-2.577-3.767 5.16-.235-2.583z" fill="#263238" stroke="#263238" stroke-width=".606"/>
    <path d="m241.789 118.35-7.395 8.558 2.267 3.213 6.035-9.255-.907-2.516v0z" fill="#fff" stroke="#263238" stroke-width=".606" stroke-linecap="round" stroke-linejoin="round"/>
    <path d="M251.451 145.512a121.426 121.426 0 0 1 3.018 13.003c1.377 7.665 2.888 12.998 2.888 12.998s-3.163 4.926-7.966 7.938c-4.803 3.012-8.515 2.6-8.515 2.6s.958-8.368 1.12-16.831c.162-8.462-1.512-18.749-1.512-18.749s-1.371-1.233-1.371-6.571c0-5.339 4.943-15.62 4.943-15.62" fill="#263238"/>
    <path d="M251.451 145.512a121.426 121.426 0 0 1 3.018 13.003c1.377 7.665 2.888 12.998 2.888 12.998s-3.163 4.926-7.966 7.938c-4.803 3.012-8.515 2.6-8.515 2.6s.958-8.368 1.12-16.831c.162-8.462-1.512-18.749-1.512-18.749s-1.371-1.233-1.371-6.571c0-5.339 4.943-15.62 4.943-15.62" stroke="#263238" stroke-width=".606" stroke-linecap="round" stroke-linejoin="round"/>
    <path d="m206.268 200.253 1.232 4.926a48.643 48.643 0 0 0-4.804 4.245c-1.786 1.913-6.718 2.733-5.217 3.559 1.5.826 6.718 1.64 8.789.82a19.218 19.218 0 0 0 4.12-2.466l.135 1.78 4.114-1.378s0-2.739-.823-4.518a13.486 13.486 0 0 0-1.925-3.013l-.683-2.873-4.938-1.082z" fill="#263238" stroke="#263238" stroke-width=".606" stroke-linecap="round" stroke-linejoin="round"/>
    <path d="M211.62 160.021s-12.91-2.739-15.115-.139c-2.206 2.599 4.696 40.371 4.696 40.371l10.71 2.053-3.84-21.198-1.926-11.637s14.147 5.065 19.504 4.245c5.358-.82 4.12-10.677.957-12.456-3.163-1.78-14.986-1.239-14.986-1.239z" fill="#263238" stroke="#263238" stroke-width=".606" stroke-linecap="round" stroke-linejoin="round"/>
    <path d="M225.358 197.793c-.56 0-1.377 6.298-2.474 8.368-1.098 2.069-2.475 4.105-5.218 5.338-2.743 1.233-4.669 2.053-3.712 3.007.958.954 10.85.273 11.404.273.554 0 1.78-.134 1.78-.134.754.01 1.502-.13 2.2-.412.689-.408.689-3.28.689-4.926v-2.326l1.511-5.473s-4.674-3.715-6.18-3.715z" fill="#fff" stroke="#263238" stroke-width=".606" stroke-linecap="round" stroke-linejoin="round"/>
    <path d="M224.804 206.272c-1.12-1.5-2.06.686-2.06.686l-.376.095a10.173 10.173 0 0 1-4.702 4.424c-2.749 1.227-4.669 2.053-3.712 3.007.958.954 10.85.273 11.404.273.554 0 1.78-.134 1.78-.134.754.01 1.502-.13 2.2-.413.689-.407.689-3.28.689-4.925a32.72 32.72 0 0 0-4.26-.408s.14-1.099-.963-2.605z" fill="#263238" stroke="#263238" stroke-width=".606" stroke-linecap="round" stroke-linejoin="round"/>
    <path d="m239.326 141.49-2.856-4.05-2.048 2.337c-4.434-.072-9.781 2.973-13.391 7.916-4.395 6.03-5.834 8.998-5.834 8.998s3.113.363 2.2 2.003c-.912 1.64-2.379 1.645-11.902 9.31-5.536 4.463-8.285 8.97-9.041 12.83-1.237.062-2.133.123-2.133.123l-.56 2.008.286.38 4.249 5.684c.341.318.73.579 1.153.776 3.801 2.822 10.889 3.107 19.622-2.996 10.435-7.297 11.499-16.071 11.499-26.47 0 0 .733-2.917 2.928-3.469 2.194-.553 3.297-.179 3.297-.179a20.077 20.077 0 0 0 4.031-6.387c1.204-3.141 1.17-6.622-1.5-8.814z" fill="#4788D8"/>
    <path opacity=".3" d="m239.326 141.49-2.856-4.05-2.048 2.337c-4.434-.072-9.781 2.973-13.391 7.916-4.395 6.03-5.834 8.998-5.834 8.998s3.113.363 2.2 2.003c-.912 1.64-2.379 1.645-11.902 9.31-5.536 4.463-8.285 8.97-9.041 12.83-1.237.062-2.133.123-2.133.123l-.56 2.008.286.38 4.249 5.684c.341.318.73.579 1.153.776 3.801 2.822 10.889 3.107 19.622-2.996 10.435-7.297 11.499-16.071 11.499-26.47 0 0 .733-2.917 2.928-3.469 2.194-.553 3.297-.179 3.297-.179a20.077 20.077 0 0 0 4.031-6.387c1.204-3.141 1.17-6.622-1.5-8.814z" fill="#000"/>
    <path clip-rule="evenodd" d="m239.326 141.49-2.856-4.05-2.048 2.337c-4.434-.072-9.781 2.973-13.391 7.916-4.395 6.03-5.834 8.998-5.834 8.998s3.113.363 2.2 2.003c-.912 1.64-2.379 1.645-11.902 9.31-5.536 4.463-8.285 8.97-9.041 12.83-1.237.062-2.133.123-2.133.123l-.56 2.008.286.38 4.249 5.684c.341.318.73.579 1.153.776 3.801 2.822 10.889 3.107 19.622-2.996 10.435-7.297 11.499-16.071 11.499-26.47 0 0 .733-2.917 2.928-3.469 2.194-.553 3.297-.179 3.297-.179a20.077 20.077 0 0 0 4.031-6.387c1.204-3.141 1.17-6.622-1.5-8.814z" stroke="#263238" stroke-width=".606"/>
    <path d="M226.729 155.397s.734-2.923 2.928-3.47c2.195-.547 3.298-.178 3.298-.178a20.079 20.079 0 0 0 4.03-6.388c1.462-3.832 1.12-8.211-3.666-10.041-4.787-1.83-11.757 1.389-16.135 7.414-4.377 6.025-5.839 9.009-5.839 9.009s3.113.363 2.201 2.003c-.913 1.64-2.38 1.645-11.902 9.31-9.523 7.665-10.805 15.508-7.877 19.887 2.928 4.379 11.023 6.215 21.464-1.082 10.44-7.297 11.498-16.049 11.498-26.464z" fill="#4788D8" stroke="#263238" stroke-width=".606" stroke-linecap="round" stroke-linejoin="round"/>
    <path d="m211.581 158.889 6.102.312-.594 1.406-6.37-.513.862-1.205v0z" fill="#fff" stroke="#263238" stroke-width=".606" stroke-linecap="round" stroke-linejoin="round"/>
    <path d="m245.176 121.017 2.334 4.518s2.889-3.832 4.395-4.931c1.506-1.099 2.889 0 5.497-1.227 2.609-1.227 5.352-4.379 3.846-8.078-1.506-3.698-6.869-3.559-7.837-.68-.969 2.878.823 4.379 2.06 4.239 1.237-.139 2.06-1.233 1.237-2.053 0 0 3.706 1.233.963 3.559-1.786 1.507-3.157-.139-5.906 1.116-2.749 1.255-6.589 3.537-6.589 3.537z" fill="#4788D8" stroke="#263238" stroke-width=".606" stroke-linecap="round" stroke-linejoin="round"/>
    <path d="M246.643 121.017h-1.467" stroke="#263238" stroke-width=".606" stroke-linecap="round" stroke-linejoin="round"/>
    <path d="M246.917 121.703s-12.462 11.029-19.672 19.19c-5.168 5.829-8.778 10.672-8.778 10.672l3.784.479 7.574-10.292s4.871-6.354 8.303-9.366c3.431-3.013 9.886-8.485 9.886-8.485l-1.097-2.198z" fill="#263238" stroke="#263238" stroke-width=".606" stroke-linecap="round" stroke-linejoin="round"/>
    <path d="M247.208 122.356s-19.622 14.922-41.483 46.485" stroke="#fff" stroke-width=".5" stroke-linecap="round" stroke-linejoin="round"/>
    <path d="M247.896 122.702s-19.621 14.922-41.483 46.479" stroke="#fff" stroke-width=".5" stroke-linecap="round" stroke-linejoin="round"/>
    <path d="M248.417 123.042s-19.627 14.922-41.489 46.485" stroke="#fff" stroke-width=".5" stroke-linecap="round" stroke-linejoin="round"/>
    <ellipse cx="252.325" cy="117.597" rx="1.495" ry="1.489" fill="#263238" stroke="#263238" stroke-width=".606" stroke-linecap="round" stroke-linejoin="round"/>
    <path d="M250.399 119.94a1.496 1.496 0 0 1-.924 1.386 1.503 1.503 0 0 1-1.637-.323 1.49 1.49 0 0 1-.324-1.632 1.5 1.5 0 0 1 1.39-.92c.397 0 .777.157 1.057.436.28.279.438.658.438 1.053v0z" fill="#263238" stroke="#263238" stroke-width=".606" stroke-linecap="round" stroke-linejoin="round"/>
    <path d="m246.642 121.017 2.335 4.518s2.883-3.832 4.395-4.931c1.511-1.099 2.883 0 5.491-1.227 2.609-1.227 5.358-4.379 3.846-8.078-1.511-3.698-6.863-3.559-7.837-.68-.974 2.878.823 4.379 2.06 4.239 1.237-.139 2.06-1.233 1.237-2.053 0 0 3.706 1.233.958 3.559-1.781 1.507-3.158-.139-5.901 1.116-2.743 1.255-6.584 3.537-6.584 3.537z" fill="#4788D8"/>
    <path opacity=".3" d="m246.642 121.017 2.335 4.518s2.883-3.832 4.395-4.931c1.511-1.099 2.883 0 5.491-1.227 2.609-1.227 5.358-4.379 3.846-8.078-1.511-3.698-6.863-3.559-7.837-.68-.974 2.878.823 4.379 2.06 4.239 1.237-.139 2.06-1.233 1.237-2.053 0 0 3.706 1.233.958 3.559-1.781 1.507-3.158-.139-5.901 1.116-2.743 1.255-6.584 3.537-6.584 3.537z" fill="#000"/>
    <path clip-rule="evenodd" d="m246.642 121.017 2.335 4.518s2.883-3.832 4.395-4.931c1.511-1.099 2.883 0 5.491-1.227 2.609-1.227 5.358-4.379 3.846-8.078-1.511-3.698-6.863-3.559-7.837-.68-.974 2.878.823 4.379 2.06 4.239 1.237-.139 2.06-1.233 1.237-2.053 0 0 3.706 1.233.958 3.559-1.781 1.507-3.158-.139-5.901 1.116-2.743 1.255-6.584 3.537-6.584 3.537z" stroke="#263238" stroke-width=".606"/>
    <path d="M256.171 120.152c0 .823-.67 1.49-1.495 1.49a1.492 1.492 0 0 1-1.495-1.49c0-.822.669-1.489 1.495-1.489.825 0 1.495.667 1.495 1.489v0zM252.75 122.484a1.495 1.495 0 0 1-.923 1.386 1.505 1.505 0 0 1-1.638-.323 1.49 1.49 0 0 1-.324-1.632 1.499 1.499 0 0 1 1.39-.92 1.497 1.497 0 0 1 1.495 1.489z" fill="#263238" stroke="#263238" stroke-width=".606" stroke-linecap="round" stroke-linejoin="round"/>
    <path d="M222.609 157.282s-2.06-.558-.274-1.779c1.176-.815 2.334.959 1.237 2.873-1.097 1.913-4.12 3.425-3.846 5.338.274 1.914 3.158.96 3.706-.558.549-1.517-.688-1.779-1.371-.82M213.68 156.323s1.12-1.116.274-1.233c-.845-.117-2.06 1.646-3.017 3.286-.957 1.64-1.926 3.425-3.438 3.559-1.511.134-.957-1.233.275-1.78 1.231-.546 1.119.558.414.82" stroke="#263238" stroke-width=".606" stroke-linecap="round" stroke-linejoin="round"/>
    <path d="m209.683 167.982-4.003-1.233s-2.183 3.604-2.732 5.523c-.548 1.919-2.474 5.673-3.572 6.906-1.097 1.233-1.92 6.694-1.92 6.694l.823.558 3.482-5.885s1.932-4.815 2.615-6.042c.683-1.227 5.307-6.521 5.307-6.521z" fill="#263238" stroke="#263238" stroke-width=".606" stroke-linecap="round" stroke-linejoin="round"/>
    <path d="m198.162 187.663-8.398 23.842a.468.468 0 0 0 .23.558v0a.466.466 0 0 0 .644-.251l9.018-23.882-1.494-.267z" fill="#fff" stroke="#263238" stroke-width=".606" stroke-linecap="round" stroke-linejoin="round"/>
    <path d="m193.655 195.796-1.808 9.522 1.119.408 5.28-9.015a.649.649 0 0 0-.471-.971l-3.359-.463a.644.644 0 0 0-.761.519v0zM243.071 170.693s1.651-7.118-2.743-9.991c-4.395-2.873-9.618 1.233-10.99 4.379-1.371 3.146-1.237 9.31-2.2 14.783-.963 5.472-4.254 18.063-4.254 18.063s4.808 2.739 5.491 3.286l2.609 2.052s2.06-5.338 6.321-14.096c4.26-8.758 5.491-15.056 5.766-18.476z" fill="#263238" stroke="#263238" stroke-width=".606" stroke-linecap="round" stroke-linejoin="round"/>
    <path d="M247.74 138.807a26.825 26.825 0 0 1-3.706-5.066c-1.372-2.599-3.981-3.966-4.669-3.966-.689 0-2.475.686-3.846 1.506a9.6 9.6 0 0 0-2.335 2.053s-2.334-.413-2.06.407 2.335.14 3.572 1.116c1.237.976 3.571 3.007 4.803 3.559 1.196.405 2.433.675 3.689.803l3.298 4.106 2.608-3.559-1.354-.959z" fill="#fff" stroke="#263238" stroke-width=".606" stroke-linecap="round" stroke-linejoin="round"/>
    <path d="m246.967 137.434-3.661 4.407 1.377 1.066 3.745-4.234-1.461-1.239v0z" fill="#fff" stroke="#263238" stroke-width=".606" stroke-linecap="round" stroke-linejoin="round"/>
    <path d="m248.428 138.661-5.217 6.137a67.145 67.145 0 0 0 10.054 6.599c5.492 2.873 10.161 3.972 11.807.413 1.646-3.559 1.377-3.699-1.646-6.572-3.023-2.872-14.998-6.577-14.998-6.577z" fill="#263238" stroke="#263238" stroke-width=".606" stroke-linecap="round" stroke-linejoin="round"/>
    <path d="M202.971 145.914s-.963-2.739-1.926-2.873c-.963-.134-2.06.557-2.883 1.506-.823.948-3.432 4.379-3.706 4.926a36.567 36.567 0 0 0-1.926 3.553c-.56 1.372-.958 2.605 0 2.192.957-.412 1.926-3.146 1.926-3.146s-.415 2.46-.14 3.007c.274.547.688 1.919 1.377 2.332.688.413 2.743-.826 2.743-.826s1.12.686 1.651-.82c.532-1.506.683-.407 1.646-3.693.963-3.286.415-3.548 1.238-6.158z" fill="#fff" stroke="#263238" stroke-width=".606" stroke-linecap="round" stroke-linejoin="round"/>
    <path d="M198.436 156.596c.233-1.077.325-2.179.274-3.28 0-.959.963-2.326.963-2.326M196.516 157.282c.134-.412-1.12-2.192-1.12-3.693 0-1.5.823-1.919.823-2.465M197.339 151.124s-.823 1.913-.56 2.739c.263.825.823 3.146.823 3.146" stroke="#263238" stroke-width=".606" stroke-linecap="round" stroke-linejoin="round"/>
    <path d="m199.13 153.333 33.78 2.856" stroke="#263238" stroke-width="1.213" stroke-linecap="round" stroke-linejoin="round"/>
    <path d="m231.673 156.189.414 1.367-33.102-3.013" stroke="#263238" stroke-width=".606" stroke-linecap="round" stroke-linejoin="round"/>
    <path d="M176.099 148.162h30.673l-6.925-23.396H169.18l6.919 23.396v0z" fill="#fff" stroke="#263238" stroke-width=".606" stroke-linecap="round" stroke-linejoin="round"/>
    <path d="M206.772 148.162h-30.673M207.852 215.058l-16.358-18.492v-48.583l-6.606-22.258M191.494 196.566l-16.044 18.18M191.494 197.821v16.925" stroke="#263238" stroke-width="1.819" stroke-linecap="round" stroke-linejoin="round"/>
    <path d="m203.133 147.665-17.299-19.117-6.925 18.492" stroke="#263238" stroke-width=".606" stroke-linecap="round" stroke-linejoin="round"/>
    <path d="M352.944 143.628s-4.723 28.89-5.025 35.202c-.692 15.056 1.295 35.202 1.295 35.202M321.269 179.009l1.435 34.99M306.953 179.187l-5.008 34.99M327.35 177.576c-.079.415-.137.833-.173 1.254-.252 15.323 1.256 35.007 1.256 35.007" stroke="#263238" stroke-width="1.819" stroke-linecap="round" stroke-linejoin="round"/>
    <path d="M334.513 139.334h13.562a4.893 4.893 0 0 1 4.607 3.235v0c.291.809.362 1.68.206 2.526l-3.35 18.367h-19.33l4.305-24.128z" fill="#787878" stroke="#263238" stroke-width=".606" stroke-linecap="round" stroke-linejoin="round"/>
    <rect x="303.737" y="172.752" width="45.628" height="7.149" rx="3.226" fill="#787878" stroke="#263238" stroke-width=".606" stroke-linecap="round" stroke-linejoin="round"/>
    <path d="M318.634 124.067s-11.234 1.232-13.149 1.913c-1.915.68-3.015 1.232-7.125 3.557-4.109 2.325-9.039 3.692-11.641 5.744-2.602 2.052-6.438 11.219-6.438 11.219l4.383 3.964s-.139.274 3.149-3.145c3.289-3.418 8.219-8.068 10.961-9.027a30.109 30.109 0 0 1 6.141-1.506c.559 0 3.01 1.372 3.01 1.372l-2.284 27.73s6.304 1.115 11.234 1.366c4.93.251 19.04-2.186 19.04-2.186l.413-22.812 12.049 6.296s.558-.558-1.781-7.115c-2.34-6.558-1.502-9.028-3.283-11.627-1.781-2.598-9.866-3.418-11.508-4.237-1.641-.82-8.933-1.506-10-1.506h-3.171z" fill="#263238" stroke="#263238" stroke-width=".606" stroke-linecap="round" stroke-linejoin="round"/>
    <path d="M334.251 145.541a121.486 121.486 0 0 1 3.009 12.998c1.374 7.661 2.876 12.992 2.876 12.992s-3.149 4.924-7.94 7.935c-4.79 3.011-8.492 2.598-8.492 2.598s.954-8.364 1.116-16.823c.162-8.459-1.507-18.741-1.507-18.741s-1.368-1.233-1.368-6.569 4.93-15.613 4.93-15.613" fill="#263238"/>
    <path d="M334.251 145.541a121.486 121.486 0 0 1 3.009 12.998c1.374 7.661 2.876 12.992 2.876 12.992s-3.149 4.924-7.94 7.935c-4.79 3.011-8.492 2.598-8.492 2.598s.954-8.364 1.116-16.823c.162-8.459-1.507-18.741-1.507-18.741s-1.368-1.233-1.368-6.569 4.93-15.613 4.93-15.613" stroke="#263238" stroke-width=".606" stroke-linecap="round" stroke-linejoin="round"/>
    <path d="m289.064 201.112 1.234 4.924a48.725 48.725 0 0 0-4.796 4.238c-1.781 1.918-6.7 2.738-5.204 3.558 1.496.819 6.7 1.639 8.766.819a19.317 19.317 0 0 0 4.11-2.459l.139 1.779 4.11-1.372s0-2.732-.827-4.511a13.586 13.586 0 0 0-1.915-3.011l-.687-2.872-4.93-1.093z" fill="#263238" stroke="#263238" stroke-width=".606" stroke-linecap="round" stroke-linejoin="round"/>
    <path d="M294.525 160.044s-12.876-2.738-15.076-.139c-2.2 2.598 4.534 41.207 4.534 41.207l10.687 2.047-3.719-22.048-1.915-11.632s14.109 5.063 19.453 4.243c5.343-.819 4.109-10.672.955-12.451-3.155-1.779-14.919-1.227-14.919-1.227z" fill="#263238" stroke="#263238" stroke-width=".606" stroke-linecap="round" stroke-linejoin="round"/>
    <path d="M316.607 121.24s1.435 3.708 1.435 6.217c0 2.509-1.077 4.779-.357 5.258.72.48 3.707-3.468 6.22-5.498 2.512-2.029 3.953-2.269 3.953-4.901v-5.978s-4.428 3.229-7.063 3.709a19.117 19.117 0 0 0-4.188 1.193h0z" fill="#fff" stroke="#263238" stroke-width=".606" stroke-linecap="round" stroke-linejoin="round"/>
    <path d="M311.688 115.351s-.184 2.354-1.117 3.078l-.876.748s3.076 1.449 3.623 1.449c.548 0-.184-4.706-.184-4.706l-1.446-.569z" fill="#263238" stroke="#263238" stroke-width=".606" stroke-linecap="round" stroke-linejoin="round"/>
    <path d="M313.374 104.032s-1.675 2.749-1.675 4.662c0 1.912-.96 6.931 0 9.323.961 2.392 1.318 4.896 3.831 4.896 2.512 0 7.18-1.913 8.257-2.866 1.078-.954 2.87-4.902.955-8.727s-6.817-7.171-7.655-7.288a36.496 36.496 0 0 0-3.713 0v0z" fill="#fff" stroke="#263238" stroke-width=".606" stroke-linecap="round" stroke-linejoin="round"/>
    <path d="M314.095 111.203a12.096 12.096 0 0 1-1.441 2.269c-.597.597-1.312 1.316.363 1.673a6.73 6.73 0 0 0 2.272.24M312.9 117.298s1.077.596 3.115.239" stroke="#263238" stroke-width=".606" stroke-linecap="round" stroke-linejoin="round"/>
    <path d="M317.802 111.928c0 .557-.184.959-.419.959-.234 0-.419-.43-.419-.959 0-.53.19-.954.419-.954.229 0 .419.396.419.954zM313.073 111.32c0 .558-.184.959-.419.959-.234 0-.419-.429-.419-.959s.19-.954.419-.954c.229 0 .419.447.419.954z" fill="#263238"/>
    <path d="M312.297 108.694a1.23 1.23 0 0 1 1.675-.24M312.654 113.472a1.738 1.738 0 0 1-2.122 0c-1.077-.836-1.797-3.345-.837-3.942s4.517-.24 4.517-.24l2.875.24" stroke="#263238" stroke-width=".606" stroke-linecap="round" stroke-linejoin="round"/>
    <path d="M313.86 110.288s.598-1.076 1.195.235c.597 1.31.999 4.288 3.155 4.288a4.303 4.303 0 0 0 3.305-1.578" stroke="#263238" stroke-width=".606" stroke-linecap="round" stroke-linejoin="round"/>
    <path d="M322.23 113.601s-5.98-3.943-8.135-7.411c-2.156-3.468-3.953-5.615-1.318-6.809 2.635-1.193 10.77-2.871 16.996-.24 6.225 2.633 6.823 8.365 6.823 12.19 0 3.825.614 5.364 0 6.318-.614.953-2.636 3.106-7.661 3.106a33.611 33.611 0 0 1-8.375-.954s2.507.006 1.67-6.2z" fill="#263238" stroke="#263238" stroke-width=".606" stroke-linecap="round" stroke-linejoin="round"/>
    <path d="m322.157 141.52-2.836-4.048-2.055 2.336c-4.422-.072-9.754 2.973-13.356 7.913-4.383 6.017-5.823 9.005-5.823 9.005s3.104.363 2.194 2.002c-.91 1.64-2.378 1.645-11.87 9.307-5.522 4.461-8.264 8.966-9.017 12.825-1.234.061-2.128.123-2.128.123l-.558 2.007.285.379 4.237 5.682c.34.318.729.579 1.151.775 3.791 2.822 10.859 3.106 19.542-2.994 10.446-7.305 11.535-16.076 11.535-26.47 0 0 .731-2.916 2.92-3.468s3.289-.179 3.289-.179a19.977 19.977 0 0 0 4.014-6.384c1.173-3.14 1.139-6.619-1.524-8.811z" fill="#4788D8"/>
    <path opacity=".3" d="m322.157 141.52-2.836-4.048-2.055 2.336c-4.422-.072-9.754 2.973-13.356 7.913-4.383 6.017-5.823 9.005-5.823 9.005s3.104.363 2.194 2.002c-.91 1.64-2.378 1.645-11.87 9.307-5.522 4.461-8.264 8.966-9.017 12.825-1.234.061-2.128.123-2.128.123l-.558 2.007.285.379 4.237 5.682c.34.318.729.579 1.151.775 3.791 2.822 10.859 3.106 19.542-2.994 10.446-7.305 11.535-16.076 11.535-26.47 0 0 .731-2.916 2.92-3.468s3.289-.179 3.289-.179a19.977 19.977 0 0 0 4.014-6.384c1.173-3.14 1.139-6.619-1.524-8.811z" fill="#000"/>
    <path clip-rule="evenodd" d="m322.157 141.52-2.836-4.048-2.055 2.336c-4.422-.072-9.754 2.973-13.356 7.913-4.383 6.017-5.823 9.005-5.823 9.005s3.104.363 2.194 2.002c-.91 1.64-2.378 1.645-11.87 9.307-5.522 4.461-8.264 8.966-9.017 12.825-1.234.061-2.128.123-2.128.123l-.558 2.007.285.379 4.237 5.682c.34.318.729.579 1.151.775 3.791 2.822 10.859 3.106 19.542-2.994 10.446-7.305 11.535-16.076 11.535-26.47 0 0 .731-2.916 2.92-3.468s3.289-.179 3.289-.179a19.977 19.977 0 0 0 4.014-6.384c1.173-3.14 1.139-6.619-1.524-8.811z" stroke="#263238" stroke-width=".606"/>
    <path d="M309.594 155.422s.732-2.922 2.921-3.469c2.188-.546 3.288-.178 3.288-.178a20.053 20.053 0 0 0 4.02-6.391c1.458-3.83 1.117-8.208-3.657-10.037-4.774-1.829-11.725 1.389-16.091 7.411-4.367 6.022-5.824 9.006-5.824 9.006s3.105.362 2.194 2.001c-.91 1.64-2.373 1.645-11.87 9.307-9.497 7.662-10.776 15.502-7.856 19.879 2.92 4.377 10.994 6.212 21.407-1.082 10.413-7.293 11.468-16.037 11.468-26.447z" fill="#4788D8" stroke="#263238" stroke-width=".606" stroke-linecap="round" stroke-linejoin="round"/>
    <path d="m294.48 158.912 6.092.312-.598 1.406-6.348-.513.854-1.205v0z" fill="#fff" stroke="#263238" stroke-width=".606" stroke-linecap="round" stroke-linejoin="round"/>
    <path d="m327.975 121.056 2.328 4.517s2.876-3.831 4.383-4.93c1.508-1.098 2.881 0 5.483-1.226 2.602-1.227 5.338-4.378 3.836-8.075-1.502-3.697-6.851-3.557-7.817-.68-.966 2.877.821 4.377 2.055 4.238 1.234-.14 2.055-1.232 1.234-2.052 0 0 3.696 1.232.96 3.557-1.781 1.506-3.154-.139-5.89 1.116-2.736 1.254-6.572 3.535-6.572 3.535z" fill="#4788D8" stroke="#263238" stroke-width=".606" stroke-linecap="round" stroke-linejoin="round"/>
    <path d="M329.728 121.742s-12.429 11.024-19.62 19.182c-5.154 5.827-8.755 10.667-8.755 10.667l3.775.479 7.554-10.288s4.858-6.351 8.28-9.362c3.423-3.011 9.861-8.481 9.861-8.481l-1.095-2.197z" fill="#263238" stroke="#263238" stroke-width=".606" stroke-linecap="round" stroke-linejoin="round"/>
    <path d="M330.019 122.394s-19.543 14.916-41.374 46.466" stroke="#fff" stroke-width=".5" stroke-linecap="round" stroke-linejoin="round"/>
    <path d="M330.705 122.74s-19.542 14.916-41.373 46.46" stroke="#fff" stroke-width=".5" stroke-linecap="round" stroke-linejoin="round"/>
    <path d="M331.225 123.08s-19.576 14.916-41.379 46.466" stroke="#fff" stroke-width=".5" stroke-linecap="round" stroke-linejoin="round"/>
    <ellipse cx="335.122" cy="117.638" rx="1.491" ry="1.489" fill="#263238" stroke="#263238" stroke-width=".606" stroke-linecap="round" stroke-linejoin="round"/>
    <ellipse cx="331.71" cy="119.98" rx="1.491" ry="1.489" fill="#263238" stroke="#263238" stroke-width=".606" stroke-linecap="round" stroke-linejoin="round"/>
    <path d="m329.455 121.056 2.328 4.517s2.875-3.831 4.383-4.93c1.507-1.098 2.875 0 5.477-1.226 2.602-1.227 5.344-4.378 3.836-8.075-1.507-3.697-6.845-3.557-7.817-.68-.971 2.877.821 4.377 2.055 4.238 1.234-.14 2.055-1.232 1.234-2.052 0 0 3.696 1.232.955 3.557-1.776 1.506-3.149-.139-5.891 1.116-2.741 1.254-6.56 3.535-6.56 3.535z" fill="#4788D8"/>
    <path opacity=".3" d="m329.455 121.056 2.328 4.517s2.875-3.831 4.383-4.93c1.507-1.098 2.875 0 5.477-1.226 2.602-1.227 5.344-4.378 3.836-8.075-1.507-3.697-6.845-3.557-7.817-.68-.971 2.877.821 4.377 2.055 4.238 1.234-.14 2.055-1.232 1.234-2.052 0 0 3.696 1.232.955 3.557-1.776 1.506-3.149-.139-5.891 1.116-2.741 1.254-6.56 3.535-6.56 3.535z" fill="#000"/>
    <path clip-rule="evenodd" d="m329.455 121.056 2.328 4.517s2.875-3.831 4.383-4.93c1.507-1.098 2.875 0 5.477-1.226 2.602-1.227 5.344-4.378 3.836-8.075-1.507-3.697-6.845-3.557-7.817-.68-.971 2.877.821 4.377 2.055 4.238 1.234-.14 2.055-1.232 1.234-2.052 0 0 3.696 1.232.955 3.557-1.776 1.506-3.149-.139-5.891 1.116-2.741 1.254-6.56 3.535-6.56 3.535z" stroke="#263238" stroke-width=".606"/>
    <path d="M338.958 120.192a1.496 1.496 0 1 1-2.878-.569 1.497 1.497 0 0 1 2.878.569v0zM335.546 122.522a1.495 1.495 0 0 1-2.554 1.063 1.493 1.493 0 0 1 1.063-2.551 1.495 1.495 0 0 1 1.491 1.488v0z" fill="#263238" stroke="#263238" stroke-width=".606" stroke-linecap="round" stroke-linejoin="round"/>
    <path d="M305.485 157.306s-2.055-.557-.274-1.779c1.173-.814 2.329.96 1.234 2.872-1.094 1.913-4.109 3.424-3.835 5.337.273 1.912 3.149.959 3.696-.558.547-1.517-.687-1.779-1.368-.82M296.579 156.347s1.117-1.115.274-1.232c-.843-.117-2.055 1.645-3.009 3.284-.955 1.64-1.921 3.424-3.429 3.558-1.507.134-.954-1.232.274-1.779 1.228-.546 1.117.558.413.82" stroke="#263238" stroke-width=".606" stroke-linecap="round" stroke-linejoin="round"/>
    <path d="m292.593 168.001-3.97-1.232s-2.178 3.602-2.725 5.52c-.547 1.919-2.468 5.671-3.562 6.904-1.094 1.232-1.921 6.691-1.921 6.691l.827.558 3.422-5.883s1.921-4.812 2.608-6.039c.687-1.227 5.321-6.519 5.321-6.519z" fill="#263238" stroke="#263238" stroke-width=".606" stroke-linecap="round" stroke-linejoin="round"/>
    <path d="m281.102 187.674-8.375 23.832a.463.463 0 0 0 .229.558v0a.463.463 0 0 0 .642-.251l8.995-23.871-1.491-.268z" fill="#fff" stroke="#263238" stroke-width=".606" stroke-linecap="round" stroke-linejoin="round"/>
    <path d="m276.607 195.804-1.803 9.518 1.117.407 5.265-9.011a.651.651 0 0 0-.469-.97l-3.35-.463a.642.642 0 0 0-.76.519v0z" fill="#263238" stroke="#263238" stroke-width=".606" stroke-linecap="round" stroke-linejoin="round"/>
    <path d="M329.455 121.056h-1.463" stroke="#263238" stroke-width=".606" stroke-linecap="round" stroke-linejoin="round"/>
    <path d="M330.549 138.838a26.842 26.842 0 0 1-3.696-5.063c-1.368-2.598-3.976-3.965-4.657-3.965s-2.468.686-3.836 1.506a9.582 9.582 0 0 0-2.328 2.052s-2.328-.413-2.055.407c.274.82 2.329.139 3.563 1.115 1.233.976 3.556 3.006 4.79 3.558 1.199.412 2.441.687 3.702.82l3.283 4.104 2.607-3.558-1.373-.976z" fill="#fff" stroke="#263238" stroke-width=".606" stroke-linecap="round" stroke-linejoin="round"/>
    <path d="m331.236 138.693-5.204 6.134a67.062 67.062 0 0 0 9.994 6.563c5.483 2.872 10.14 3.97 11.781.413 1.642-3.558 1.374-3.697-1.641-6.569s-14.93-6.541-14.93-6.541z" fill="#263238" stroke="#263238" stroke-width=".606" stroke-linecap="round" stroke-linejoin="round"/>
    <path d="M285.898 145.942s-.96-2.738-1.92-2.872c-.961-.133-2.055.558-2.876 1.506-.821.948-3.423 4.377-3.696 4.924a35.54 35.54 0 0 0-1.921 3.552c-.558 1.371-.955 2.604 0 2.191.955-.413 1.921-3.145 1.921-3.145s-.413 2.459-.14 3.006c.274.546.687 1.918 1.374 2.331.687.412 2.736-.826 2.736-.826s1.116.686 1.675-.819c.558-1.506.681-.407 1.641-3.692.961-3.284.386-3.546 1.206-6.156z" fill="#fff" stroke="#263238" stroke-width=".606" stroke-linecap="round" stroke-linejoin="round"/>
    <path d="M281.376 156.62c.232-1.076.324-2.178.273-3.278 0-.959.961-2.326.961-2.326M279.461 157.306c.134-.412-1.117-2.191-1.117-3.691s.821-1.918.821-2.465M280.281 151.15s-.82 1.913-.558 2.738c.262.825.821 3.145.821 3.145" stroke="#263238" stroke-width=".606" stroke-linecap="round" stroke-linejoin="round"/>
    <path d="m282.068 153.358 33.69 2.855" stroke="#263238" stroke-width="1.213" stroke-linecap="round" stroke-linejoin="round"/>
    <path d="m314.525 156.213.413 1.366-33.015-3.011" stroke="#263238" stroke-width=".606" stroke-linecap="round" stroke-linejoin="round"/>
    <path d="M308.221 197.8c-.559 0-1.368 6.296-2.463 8.364-1.094 2.069-2.467 4.104-5.203 5.337-2.736 1.232-4.657 2.052-3.702 3.005.955.954 10.821.273 11.368.273.547 0 1.781-.133 1.781-.133a5.644 5.644 0 0 0 2.194-.413c.687-.407.687-3.279.687-4.924v-2.325l1.502-5.47s-4.657-3.714-6.164-3.714z" fill="#fff" stroke="#263238" stroke-width=".606" stroke-linecap="round" stroke-linejoin="round"/>
    <path d="M307.674 206.276c-1.117-1.5-2.055.686-2.055.686l-.374.095a10.159 10.159 0 0 1-4.69 4.421c-2.742 1.227-4.657 2.053-3.702 3.006.955.954 10.821.273 11.368.273.547 0 1.781-.134 1.781-.134.752.01 1.498-.13 2.194-.412.687-.407.687-3.279.687-4.924a32.709 32.709 0 0 0-4.249-.407s.14-1.098-.96-2.604zM325.892 170.711s1.675-7.115-2.741-9.987c-4.417-2.871-9.587 1.233-10.955 4.378-1.368 3.145-1.234 9.306-2.194 14.776-.96 5.471-4.243 18.056-4.243 18.056s4.796 2.738 5.477 3.284l2.602 2.052s2.054-5.336 6.303-14.091c4.249-8.754 5.478-15.05 5.751-18.468z" fill="#263238" stroke="#263238" stroke-width=".606" stroke-linecap="round" stroke-linejoin="round"/>
    <path d="M254.531 148.189h30.591l-6.901-23.386h-30.592l6.902 23.386v0z" fill="#fff" stroke="#263238" stroke-width=".606" stroke-linecap="round" stroke-linejoin="round"/>
    <path d="M285.122 148.189h-30.586M286.205 215.058l-16.314-18.485v-48.562l-6.589-22.249M269.891 196.573l-16.003 18.173M269.89 197.828v16.918" stroke="#263238" stroke-width="1.819" stroke-linecap="round" stroke-linejoin="round"/>
    <path d="m281.499 147.693-17.259-19.109-6.901 18.485" stroke="#263238" stroke-width=".606" stroke-linecap="round" stroke-linejoin="round"/>
    <path d="M128.574 200.823s0 8.268.386 9.408c.386 1.14.632 5.467 2.418 6.613 1.786 1.146 3.18 1.526 3.309-1.017.129-2.544-2.547-5.976-2.799-6.708-.252-.733 1.909-8.268 1.909-8.268l-5.223-.028z" fill="#fff" stroke="#263238" stroke-width=".606" stroke-linecap="round" stroke-linejoin="round"/>
    <path d="M128.937 210.231c.381 1.146.633 5.467 2.419 6.613 1.786 1.146 3.18 1.526 3.308-1.017.129-2.544-2.547-5.976-2.799-6.708 0 0-1.276-.895-1.785-.257a2.23 2.23 0 0 0-.51 1.274l-.767-.688c.019.265.064.527.134.783v0z" fill="#263238" stroke="#263238" stroke-width=".606" stroke-linecap="round" stroke-linejoin="round"/>
    <path d="m120.047 200.572 1.12 9.027s-3.18 3.047-4.966 4.193c-1.785 1.146-2.289 1.397-1.909 1.778.381.38.891.894 3.309.508s5.352-1.012 6.242-1.269c.89-.257 2.038.129 2.038-1.146 0-1.274-.258-5.209-.258-5.209l-.632-8.385-4.944.503z" fill="#fff" stroke="#263238" stroke-width=".606" stroke-linecap="round" stroke-linejoin="round"/>
    <path d="M125.903 213.647c0-.559-.05-1.677-.106-2.711l-2.699 1.062a9.291 9.291 0 0 1-.761-1.907.826.826 0 0 0-1.159-.62v.112s-3.18 3.046-4.965 4.192c-1.786 1.146-2.29 1.398-1.909 1.778.38.38.89.894 3.308.508 2.419-.385 5.352-1.011 6.242-1.268.89-.258 2.049.145 2.049-1.146zM126.088 92.272s-7.205 1.677-9.26 1.537c-2.054-.14-3.599 1.929-4.478 4.238-.879 2.308-8.873 15.025-9.002 17.077-.129 2.051 1.803 3.98 3.085 4.109 1.282.128 8.078-10.677 8.078-10.677s1.931 8.088 1.931 9.754a23.804 23.804 0 0 1-1.931 8.217c-1.282 2.829-4.753 14.383-4.753 21.572s4.243 25.155 4.479 27.732c.235 2.577 3.213 25.037 3.213 25.037a13.61 13.61 0 0 0 4.478 1.286 8.735 8.735 0 0 0 3.986-.772l-.257-35.434 1.797 35.049a6.677 6.677 0 0 0 4.243 1.8c2.447 0 4.63-1.8 4.63-1.8l3.729-35.049 1.679-23.478s-.129-7.194-2.318-12.969c-2.189-5.774-3.471-7.826-3.471-9.246 0-1.419 5.403-12.968 5.403-17.591 0-4.623.386-8.474-2.827-9.503-3.214-1.029-8.358-1.029-9.389-1.286-1.03-.257-3.045.397-3.045.397z" fill="#263238" stroke="#263238" stroke-width=".606" stroke-linecap="round" stroke-linejoin="round"/>
    <path d="m117.215 123.089 4.372 1.158-1.047 7.183h1.03l.773-6.546.38 7.06 1.288-.514-.644-6.932s5.789 1.157 10.805-1.543" stroke="#fff" stroke-width=".606" stroke-linecap="round" stroke-linejoin="round"/>
    <path d="m121.201 138.495 3.342 5.389 1.159 22.086" stroke="#263238" stroke-width=".606" stroke-linecap="round" stroke-linejoin="round"/>
    <path d="M135.986 120.261c0-1.414 5.402-12.969 5.402-17.592 0-4.622.386-8.474-2.827-9.502-3.214-1.029-8.358-1.029-9.388-1.286-1.03-.257-3.085.386-3.085.386s-7.205 1.677-9.26 1.537c-2.054-.14-3.599 1.928-4.478 4.237-.448 1.146-2.631 4.852-4.736 8.547l4.098 6.278c1.55-2.276 2.799-4.294 2.799-4.294s1.931 8.089 1.931 9.755a17.543 17.543 0 0 1-.352 3.03c2.429 1.118 11.09 4.421 20.002-.33a3.359 3.359 0 0 1-.106-.766z" fill="#263238" stroke="#263238" stroke-width=".606" stroke-linecap="round" stroke-linejoin="round"/>
    <path d="M108.694 104.671c-2.48 4.309-5.29 9.24-5.369 10.453-.128 2.057 1.803 3.98 3.085 4.108.991.101 5.262-6.271 7.171-9.206-.878-4.629-3.37-5.383-4.887-5.355zM122.869 87.778s.772 7.574 1.416 10.268c.644 2.695 3.857 3.354 4.888 1.415 1.03-1.94 1.545-12.583 1.545-12.583l-7.849.9zM119.141 79.946s-1.54-1.8-2.313 0c-.772 1.8 1.031 3.354 1.926 4.237.896.884 1.545.386 1.545-.514s-1.158-3.723-1.158-3.723zM132.644 79.046s1.287-1.414 1.802.515c.515 1.928-.901 3.465-1.931 4.622-1.03 1.158-.902-1.285-.902-1.285l1.031-3.852z" fill="#CCC" stroke="#263238" stroke-width=".606" stroke-linecap="round" stroke-linejoin="round"/>
    <path d="M135.986 70.443a2.187 2.187 0 0 0-2.184-2.18h-.056a2.178 2.178 0 0 0-1.011-3.969 2.183 2.183 0 0 0-2.185 1.22 1.72 1.72 0 0 0 .039-.336 2.183 2.183 0 0 0-4.008-1.207v-.207a2.187 2.187 0 0 0-3.313-1.985 2.185 2.185 0 0 0-1.06 1.984v.185a2.156 2.156 0 0 0-1.304-.442 2.187 2.187 0 0 0-2.189 2.18c.002.12.015.24.039.358a2.185 2.185 0 0 0-3.017.654 2.178 2.178 0 0 0 .655 3.013 2.175 2.175 0 0 0-1.78 2.277c.07 1.1.952 1.972 2.054 2.033a2.177 2.177 0 0 0-.488 2.384 2.184 2.184 0 0 0 3.332.909c.456.304.978.495 1.523.559 1.539.128 3.213.9 5.273.77 1.831-.11 4.479-2.358 5.039-2.85a2.185 2.185 0 0 0 3.961-1.042 2.18 2.18 0 0 0-1.224-2.172 2.176 2.176 0 0 0 1.904-2.136z" fill="#263238" stroke="#263238" stroke-width=".606" stroke-linecap="round" stroke-linejoin="round"/>
    <path d="M129.94 69.879c-2.9-1.878-6.214-1.9-8.756.43-.807.74-1.535 1.56-2.172 2.449-2.184 3.08.644 10.268 1.159 12.068.515 1.8 4.114 6.803 7.328 5.775 3.213-1.029 4.372-3.723 5.038-7.575.666-3.851.515-8.345-.386-10.654a5.442 5.442 0 0 0-2.211-2.493v0z" fill="#CCC" stroke="#263238" stroke-width=".606" stroke-linecap="round" stroke-linejoin="round"/>
    <path d="M121.458 80.606c.912.539 2.045.539 2.956 0M129.044 80.332a3.138 3.138 0 0 0 3.213-.514M127.258 80.332s-.386 1.029.257 1.28c.644.252 1.288 1.029.387 1.543-.902.514-1.54.514-1.797-.514M120.686 78.929s.515-1.157 3.471-.9M128.378 77.89a4.385 4.385 0 0 1 3.471.385" stroke="#263238" stroke-width=".606" stroke-linecap="round" stroke-linejoin="round"/>
    <path d="M120.171 73.523a26.462 26.462 0 0 1 4.243-2.694s3.796 3.712 8.442 5.434a13.918 13.918 0 0 0-.728-3.913 5.443 5.443 0 0 0-2.188-2.493c-2.9-1.879-6.214-1.901-8.756.43-.807.739-1.535 1.56-2.172 2.448a5.245 5.245 0 0 0-.806 2.846 5.956 5.956 0 0 1 1.965-2.058z" fill="#263238" stroke="#263238" stroke-width=".606" stroke-linecap="round" stroke-linejoin="round"/>
    <path d="M108.599 117.052c-1.159 1.677-2.698 3.08-4.115 2.695-1.416-.386-3.728-2.952-5.402-5.031-1.674-2.08-5.912-9.755-5.912-9.755s-1.931-4.751-2.189-5.651c-.257-.9-.643-3.852-.643-3.852s-2.184 0-2.57-.385c-.386-.386 2.189-.386 2.189-.386s-1.68-.257-1.68-.771c0-.515 3.6-.38 3.6-.38a7.55 7.55 0 0 1-2.183-.9c-.644-.515 0-.772 0-.772l4.114 1.029a16.162 16.162 0 0 1-1.679-2.058c-.129-.385.386-.9 1.416 0 1.03.9 3.214 2.443 3.214 2.443-.391.89-.652 1.831-.773 2.795-.129 1.415-.644 3.723-.644 3.723s1.288 4.623 3.6 6.417c2.312 1.795 7.586 5.78 8.745 9.118" fill="#CCC"/>
    <path d="M108.599 117.052c-1.159 1.677-2.698 3.08-4.115 2.695-1.416-.386-3.728-2.952-5.402-5.031-1.674-2.08-5.912-9.755-5.912-9.755s-1.931-4.751-2.189-5.651c-.257-.9-.643-3.852-.643-3.852s-2.184 0-2.57-.385c-.386-.386 2.189-.386 2.189-.386s-1.68-.257-1.68-.771c0-.515 3.6-.38 3.6-.38a7.55 7.55 0 0 1-2.183-.9c-.644-.515 0-.772 0-.772l4.114 1.029a16.162 16.162 0 0 1-1.679-2.058c-.129-.385.386-.9 1.416 0 1.03.9 3.214 2.443 3.214 2.443-.391.89-.652 1.831-.773 2.795-.129 1.415-.644 3.723-.644 3.723s1.288 4.623 3.6 6.417c2.312 1.795 7.586 5.78 8.745 9.118" stroke="#263238" stroke-width=".606" stroke-linecap="round" stroke-linejoin="round"/>
    <path d="M93.428 100.73s-.773-1.8-.386-2.957c.386-1.157 1.925-2.309 2.054-2.952.082-.465.125-.936.129-1.409" stroke="#263238" stroke-width=".606" stroke-linecap="round" stroke-linejoin="round"/>
    <path d="M81.98 97.331a.822.822 0 0 1-.185-1.621l50.535-11.817a.824.824 0 1 1 .375 1.604L82.17 97.31a.74.74 0 0 1-.19.022v0z" fill="#4788D8" stroke="#263238" stroke-width=".606" stroke-linecap="round" stroke-linejoin="round"/>
    <path d="M86.122 94.95c.034.145-.213.318-.56.385-.347.068-.627 0-.655-.134-.028-.134.213-.318.56-.391.347-.073.627-.005.655.14zM91.35 93.703c0 .146-.218.319-.559.391-.341.073-.627 0-.655-.14-.028-.139.213-.318.56-.385.347-.067.621-.011.655.134zM96.574 92.462c.028.145-.213.319-.56.386-.347.067-.621 0-.655-.134-.033-.134.213-.319.56-.386.347-.067.627.017.655.134zM101.797 91.227c.034.145-.213.319-.56.386-.347.067-.627 0-.655-.135-.028-.134.213-.318.56-.39.347-.074.627-.012.655.139zM107.026 89.975c0 .145-.213.318-.56.391-.347.073-.627 0-.655-.14-.028-.14.213-.318.56-.385.347-.067.621-.012.655.134zM112.249 88.734c.034.145-.213.318-.56.391-.347.073-.627 0-.66-.14-.034-.14.218-.318.559-.385.342-.067.633-.012.661.134z" fill="#fff" stroke="#263238" stroke-width=".5" stroke-linecap="round" stroke-linejoin="round"/>
    <path d="M134.956 94.838s2.317-4.237 6.432-1.537 0 8.726-1.931 11.811c-1.932 3.086-10.027 9.503-11.443 9.883-1.417.38-20.445-13.349-21.218-13.863-.772-.514-2.799-1.8-3.599-2.957a10.105 10.105 0 0 1-1.154-2.437s-2.961-1.286-3.862-1.8c-.902-.514-.638-1.023-.123-.895.514.13 2.955.895 2.955.895s-1.68-1.409-2.317-1.923c-.638-.514-.387-.9.386-.772a8.51 8.51 0 0 1 1.159.258s2.054-2.309 2.441-2.18c.349.19.656.451.901.765 0 0 1.288-1.022 1.679-.637.392.386.387 1.152.773 4.109.182 1.653.66 3.26 1.411 4.746 0 0 7.457 3.214 10.933 4.472a71.29 71.29 0 0 0 8.481 2.314s7.463-7.96 7.334-7.575" fill="#263238"/>
    <path d="M134.956 94.838s2.317-4.237 6.432-1.537 0 8.726-1.931 11.811c-1.932 3.086-10.027 9.503-11.443 9.883-1.417.38-20.445-13.349-21.218-13.863-.772-.514-2.799-1.8-3.599-2.957a10.105 10.105 0 0 1-1.154-2.437s-2.961-1.286-3.862-1.8c-.902-.514-.638-1.023-.123-.895.514.13 2.955.895 2.955.895s-1.68-1.409-2.317-1.923c-.638-.514-.387-.9.386-.772a8.51 8.51 0 0 1 1.159.258s2.054-2.309 2.441-2.18c.349.19.656.451.901.765 0 0 1.288-1.022 1.679-.637.392.386.387 1.152.773 4.109.182 1.653.66 3.26 1.411 4.746 0 0 7.457 3.214 10.933 4.472a71.29 71.29 0 0 0 8.481 2.314s7.463-7.96 7.334-7.575" stroke="#263238" stroke-width=".606" stroke-linecap="round" stroke-linejoin="round"/>
    <path d="M139.126 105.593c-3.023-4.427-5.889-5.299-7.781-5.227-2.061 2.158-4.479 4.746-4.479 4.746a71.048 71.048 0 0 1-8.481-2.314c-3.477-1.28-10.934-4.472-10.934-4.472a13.902 13.902 0 0 1-1.41-4.746c-.387-2.957-.387-3.728-.773-4.108-.386-.38-1.679.637-1.679.637a2.919 2.919 0 0 0-.902-.766c-.386-.129-2.441 2.18-2.441 2.18a8.481 8.481 0 0 0-1.158-.257c-.773-.129-1.025.257-.387.771.639.515 2.318 1.923 2.318 1.923s-2.447-.765-2.956-.894c-.51-.129-.773.386.123.894.896.509 3.863 1.8 3.863 1.8.274.86.662 1.68 1.153 2.438.773 1.157 2.833 2.442 3.6 2.957.767.514 19.807 14.248 21.217 13.863 1.411-.386 8.722-6.205 11.107-9.425z" fill="#CCC" stroke="#263238" stroke-width=".606" stroke-linecap="round" stroke-linejoin="round"/>
    <path d="M103.583 90.109s.773.514 1.288 2.443M101.271 91.63s.386-.772.901 0l.51.77.386 1.03a3.42 3.42 0 0 0-2.799-1.93" stroke="#263238" stroke-width=".606" stroke-linecap="round" stroke-linejoin="round"/>
    <path d="M160.887 130.356h-30.673l6.925-23.449h30.673l-6.925 23.449v0z" fill="#fff" stroke="#263238" stroke-width=".606" stroke-linecap="round" stroke-linejoin="round"/>
    <path d="M130.214 130.351h30.673M129.133 215.296l16.358-18.531v-66.593l6.606-22.304M145.491 196.765l16.045 18.218M145.491 198.023v16.96" stroke="#263238" stroke-width="1.819" stroke-linecap="round" stroke-linejoin="round"/>
    <path d="m133.853 129.859 17.304-19.162 6.919 18.53" stroke="#263238" stroke-width=".606" stroke-linecap="round" stroke-linejoin="round"/>
    <path d="M62.206 128.049s3.311 21.107 3.311 33.559c0 12.452-3.058 34.359-3.058 37.546v5.172l1.064 1.727v2.119a16.956 16.956 0 0 0 3.59 3.053c1.995 1.191 4.515 2.125 4.515 2.796v1.593H55.552s-.269-2.655-.269-3.846v-2.237s-1.064-1.325-.93-2.387c.188-.993.454-1.969.796-2.919a11.06 11.06 0 0 1-.93-2.119c0-.397-.129-11.541-.264-12.469-.134-.928-2.24-27.196-2.24-27.196l-.499-11.289-1.462.134-5.478 52.559.661 2.124-.263 1.191-.135 1.063v1.196c0 .66.135 6.1.135 6.1H26.189c.15-.661.42-1.291.795-1.856.56-.665 5.848-3.181 6.913-3.713 1.064-.531 1.73-2.236 1.73-2.236s-.666-.66-.666-1.191 1.462-2.572 1.462-2.572-.667-3.316-.667-3.847c0-.531-.93-28.516-.93-28.516l-1.59-32.899.397-10.064 1.462-2.522a25.448 25.448 0 0 0 12.094 3.053 133.52 133.52 0 0 0 15.017-1.107v0z" fill="#263238" stroke="#263238" stroke-width=".606" stroke-linecap="round" stroke-linejoin="round"/>
    <path d="M54.364 94.087s3.59 12.34 4.919 18.452c1.327 6.111 3.584 16.583 3.584 16.583s-3.321 1.723-9.567 2.237a26.167 26.167 0 0 1-11.427-1.722s2.655-24.278.532-28.516c-2.123-4.238-4.123-7.168-2.392-8.756 1.731-1.588 7.843-.928 9.17-.665 1.328.263 5.181 2.387 5.181 2.387z" fill="#fff" stroke="#263238" stroke-width=".606" stroke-linecap="round" stroke-linejoin="round"/>
    <path d="m66.324 132.293 4.05 12.563-5.714 2.919s-4.845-25.72-4.98-28.616c-.134-2.897-2.66-11.328-.8-8.672 1.859 2.655 7.444 21.806 7.444 21.806z" fill="#C9C9C9" stroke="#263238" stroke-width=".606" stroke-linecap="round" stroke-linejoin="round"/>
    <path d="M54.236 97.934s5.976 19.24 8.368 25.72c2.392 6.481 3.988 9.025 3.988 9.025s-3.187-22.819-3.719-25.871c-.532-3.053.661-11.675-.134-13.42-.796-1.744-9.439-.134-9.439-.134l.936 4.68zM42.803 91.437s5.848 14.459 5.982 18.451c.135 3.993-1.411 16.215-2.61 21.247-1.199 5.032-2.896 18.452-2.896 18.452s-3.327-.666-8.906-1.728c-5.58-1.062-9.568-5.172-9.568-5.172l7.663-25.116s-3.36-22.818-3.36-24.144c0-1.325 7.315-4.098 13.695-1.99z" fill="#fff" stroke="#263238" stroke-width=".606" stroke-linecap="round" stroke-linejoin="round"/>
    <path clip-rule="evenodd" d="m43.867 90.24-1.198 1.728 2.24 10.624 4.515-3.718 6.117 3.187-2.24-10.479s-3.054-5.048-9.434-1.341z" stroke="#263238" stroke-width=".606" stroke-linecap="round" stroke-linejoin="round"/>
    <path clip-rule="evenodd" d="m45.593 93.69 4.122 8.091 2.526-9.153-6.648 1.062v0z" stroke="#263238" stroke-width=".606" stroke-linecap="round" stroke-linejoin="round"/>
    <path d="m76.031 101.457-1.804-.045c-1.411-.844-3.26-.962-3.809-1.197-.728-.313-.935-1.04-1.68-.726a2.427 2.427 0 0 1-2.286.933c-1.68-.106-2.705-1.56-2.705-1.867 0-.308.935-1.353.314-1.868-.622-.514-1.68-.313-2.286-.833a7.911 7.911 0 0 0-4.055-1.677c-2.185-.313-7.383 1.554-10.19 4.255-.691.657-1.297 1.4-1.803 2.208h-1.003l-.112 2.343s-.106 1.582.045 1.722c.088.524.33 1.011.695 1.398 1.557 1.677 3.842.626 4.57 1.146.729.52 1.871.934 2.185.101.314-.833 1.87-.621 2.8-.828.735-.167 2.426.375 3.272.968l-.672.067v2.119c-.163.084-.219.218 0 .475.348.363.878.486 1.35.313 0 0 2.285 2.595 5.512 2.695 3.226.101 7.069-1.241 9.248-3.321a7.722 7.722 0 0 0 2.285-4.356v-.044c.064-.441.075-.888.034-1.331l.095-2.65z" fill="#4788D8"/>
    <path opacity=".3" d="m76.031 101.457-1.804-.045c-1.411-.844-3.26-.962-3.809-1.197-.728-.313-.935-1.04-1.68-.726a2.427 2.427 0 0 1-2.286.933c-1.68-.106-2.705-1.56-2.705-1.867 0-.308.935-1.353.314-1.868-.622-.514-1.68-.313-2.286-.833a7.911 7.911 0 0 0-4.055-1.677c-2.185-.313-7.383 1.554-10.19 4.255-.691.657-1.297 1.4-1.803 2.208h-1.003l-.112 2.343s-.106 1.582.045 1.722c.088.524.33 1.011.695 1.398 1.557 1.677 3.842.626 4.57 1.146.729.52 1.871.934 2.185.101.314-.833 1.87-.621 2.8-.828.735-.167 2.426.375 3.272.968l-.672.067v2.119c-.163.084-.219.218 0 .475.348.363.878.486 1.35.313 0 0 2.285 2.595 5.512 2.695 3.226.101 7.069-1.241 9.248-3.321a7.722 7.722 0 0 0 2.285-4.356v-.044c.064-.441.075-.888.034-1.331l.095-2.65z" fill="#000"/>
    <path clip-rule="evenodd" d="m76.031 101.457-1.804-.045c-1.411-.844-3.26-.962-3.809-1.197-.728-.313-.935-1.04-1.68-.726a2.427 2.427 0 0 1-2.286.933c-1.68-.106-2.705-1.56-2.705-1.867 0-.308.935-1.353.314-1.868-.622-.514-1.68-.313-2.286-.833a7.911 7.911 0 0 0-4.055-1.677c-2.185-.313-7.383 1.554-10.19 4.255-.691.657-1.297 1.4-1.803 2.208h-1.003l-.112 2.343s-.106 1.582.045 1.722c.088.524.33 1.011.695 1.398 1.557 1.677 3.842.626 4.57 1.146.729.52 1.871.934 2.185.101.314-.833 1.87-.621 2.8-.828.735-.167 2.426.375 3.272.968l-.672.067v2.119c-.163.084-.219.218 0 .475.348.363.878.486 1.35.313 0 0 2.285 2.595 5.512 2.695 3.226.101 7.069-1.241 9.248-3.321a7.722 7.722 0 0 0 2.285-4.356v0-.044c.064-.441.075-.888.034-1.331l.095-2.65z" stroke="#263238" stroke-width=".606" stroke-linecap="round" stroke-linejoin="round"/>
    <path d="M68.755 96.894a2.427 2.427 0 0 1-2.286.934c-1.68-.106-2.705-1.56-2.705-1.868 0-.307.935-1.353.313-1.867-.621-.514-1.68-.313-2.285-.833a7.911 7.911 0 0 0-4.056-1.678c-2.184-.313-7.382 1.56-10.189 4.256-2.806 2.695-3.741 6.032-2.195 7.693 1.546 1.661 3.842.626 4.57 1.118.729.492 1.871.934 2.185.101.314-.833 1.87-.621 2.8-.827.93-.207 3.429.726 3.743 1.448.28.493.145 1.118-.314 1.453-.308.207-1.35.107-.83.727.347.366.879.489 1.35.313 0 0 2.286 2.595 5.513 2.695 3.226.101 7.069-1.241 9.248-3.315 2.179-2.075 3.019-5.502 1.77-7.37-1.25-1.867-4.263-1.973-4.991-2.28-.728-.308-.913-.996-1.641-.7z" fill="#4788D8" stroke="#263238" stroke-width=".606" stroke-linecap="round" stroke-linejoin="round"/>
    <path d="m62.935 98.242-3.12 2.695 27.234 12.664 1.25-1.873-25.364-13.486v0z" fill="#263238" stroke="#263238" stroke-width=".606" stroke-linecap="round" stroke-linejoin="round"/>
    <path d="M88.298 111.734s3.848 2.175 4.784 3.315c.935 1.141 2.285 2.595 2.285 2.595s.628-1.119 1.457-1.119c1.44 0 3.26.66 3.741 2.388.191.671.521 2.387-1.249 3.114-1.77.727-2.8.414-4.48-.727-1.681-1.14-4.572-3.735-5.922-4.568a27.395 27.395 0 0 1-2.29-1.554V113.5l1.674-1.766z" fill="#4788D8" stroke="#263238" stroke-width=".606" stroke-linecap="round" stroke-linejoin="round"/>
    <path d="M95.367 117.644s-.935.833-.52 2.594c.414 1.761 2.598 2.287 3.954 1.56 1.356-.727.622-2.153-.627-2.494-.785-.212-1.765-.62-2.18.313-.414.934.83 1.868 1.972 1.678 1.143-.19.107-.727-.414-.833M87.055 113.601s2.907 1.348 4.57 3.316a32.836 32.836 0 0 0 3.221 3.321" stroke="#263238" stroke-width=".606" stroke-linecap="round" stroke-linejoin="round"/>
    <path d="m55.832 96-2.106 2.309-5.254-2.835.946-.839L55.832 96v0z" fill="#263238" stroke="#263238" stroke-width=".606" stroke-linecap="round" stroke-linejoin="round"/>
    <path d="M58.88 101.457s-.208 1.263-1.261 1.263-3.361-1.576-4.733-1.157c-1.373.419-.208 1.258.526 1.258M62.879 97.783a.798.798 0 0 0-.42-1.152c-.846-.318-3.053-1.05-2-2.102 1.053-1.051 2 .738 2 .738M52.124 107.372v-1.94" stroke="#263238" stroke-width=".606" stroke-linecap="round" stroke-linejoin="round"/>
    <path d="M63.534 69.547c.269-4.775-4.515-4.244-8.637-2.65-.972.376-1.986.633-3.02.766a20.771 20.771 0 0 0-3.092-.24c-.37 0-.733 0-1.12.033l-.1-.034.044.04c-5.193.285-9.371 2.42-9.747 3.41-.375.99.801 4.378 1.065 6.369a26.944 26.944 0 0 0 1.86 5.971c.397.794 1.73 2.522 2.923 1.063 1.194-1.46.93-3.719 3.456-4.91 2.527-1.19 8.268.66 8.268.66l2.801 1.063a10.552 10.552 0 0 1 1.064-4.244c.177-.352.38-.69.605-1.012a7.724 7.724 0 0 0 3.63-6.285z" fill="#263238" stroke="#263238" stroke-width=".606" stroke-linecap="round" stroke-linejoin="round"/>
    <path d="M56.627 77.638c-1.971-1.499-6.553-2.45-8.906-2.388a46.503 46.503 0 0 0-5.45-1.46l4.123 2.4a3.068 3.068 0 0 1-1.462 2.907c-.89.592-1.89 1-2.941 1.197 0 0 .795 2.65.263 2.918a.56.56 0 0 1-.795-.268s-.253-2.516-1.709-2.002c-1.456.515-1.327 3.847-.66 4.78.666.934 3.052.13 3.052.13s.403 4.377 2.128 7.033c1.726 2.656 4.947 3.238 7.047 2.12 3.983-2.12 4.386-6.632 4.386-6.632a4.003 4.003 0 0 0 2.392-3.713c.14-2.907 1.322-4.898-1.468-7.022z" fill="#fff" stroke="#263238" stroke-width=".606" stroke-linecap="round" stroke-linejoin="round"/>
    <path d="M52.37 84.934s.56 2.522-.397 3.053c-.958.532-2.924.263-2.924-1.196M46.394 83.475s1.064 1.197 3.052 0M53.435 83.872s1.064 1.33 3.058.531" stroke="#263238" stroke-width=".606" stroke-linecap="round" stroke-linejoin="round"/>
    <path d="M50.78 82.016a6.172 6.172 0 0 0-4.919-.397M52.902 82.547a3.747 3.747 0 0 1 4.655.268" stroke="#263238" stroke-width=".91" stroke-linecap="round" stroke-linejoin="round"/>
    <path d="M52.51 90.056a5.342 5.342 0 0 1-5.327-2.438" stroke="#263238" stroke-width=".606" stroke-linecap="round" stroke-linejoin="round"/>
    <path d="M38.815 92.365s-5.445-3.846-8.369-2.918c-2.924.928-5.45 10.064-7.976 15.918-2.527 5.854.666 8.225 3.321 8.225 2.655 0 6.38-2.388 7.842-4.512 1.462-2.125 4.65-11.01 4.65-11.01" fill="#fff"/>
    <path d="M38.815 92.365s-5.445-3.846-8.369-2.918c-2.924.928-5.45 10.064-7.976 15.918-2.527 5.854.666 8.225 3.321 8.225 2.655 0 6.38-2.388 7.842-4.512 1.462-2.125 4.65-11.01 4.65-11.01" stroke="#263238" stroke-width=".606" stroke-linecap="round" stroke-linejoin="round"/>
    <path d="m72.043 126.321 1.988-7.693-4.117 1.727 2.129 5.966v0z" fill="#fff" stroke="#263238" stroke-width=".606" stroke-linecap="round" stroke-linejoin="round"/>
    <path d="M70.715 121.418s5.602-3.187 7.708-4.378c2.106-1.191 5.181-2.796 5.601-4.513.42-1.716.667-3.578.27-4.243-.399-.666-1.065-1.063-1.732-.397l-.66.659a1.12 1.12 0 0 0-1.2-.793c-.509.041-.962.341-1.198.793 0 0 .134-1.056-.796-1.056a1.99 1.99 0 0 0-1.462.659s.27-1.856-.56-1.99c-.829-.134-1.596 0-1.725 1.331a16.583 16.583 0 0 1-1.596 5.172c-.796 1.459-1.065 3.981-1.065 3.981l-3.321 1.459s-.258 3.047 1.736 3.316z" fill="#fff" stroke="#263238" stroke-width=".606" stroke-linecap="round" stroke-linejoin="round"/>
    <path d="M81.879 108.547s.526 1.727.263 2.795a3.6 3.6 0 0 1-.795 1.588M79.481 108.547a5.947 5.947 0 0 1-.397 3.052M77.224 108.15a5.417 5.417 0 0 1 0 2.795" stroke="#263238" stroke-width=".606" stroke-linecap="round" stroke-linejoin="round"/>
    <path d="m70.58 116.906 1.463 9.415-5.888 2.662-1.495-10.859 5.92-1.218v0z" fill="#fff" stroke="#263238" stroke-width=".606" stroke-linecap="round" stroke-linejoin="round"/>
    <path d="m77.336 67.864-14.222 33.872" stroke="#263238" stroke-width=".606" stroke-linecap="round" stroke-linejoin="round"/>
    <path d="m60.067 104.37 15.645-37.523 1.02 1.017" stroke="#263238" stroke-width="1.213" stroke-linecap="round" stroke-linejoin="round"/>
    <path d="M48.65 101.781s11.697-2.919 12.884-2.796c1.188.123 1.866 1.063 2.924 2.388 1.059 1.325-.526 2.656-.526 2.656s.66 1.191-.936 1.856c-.976.404-2.003.672-3.053.794l.264-1.588s-4.784 1.856-6.111 1.985c-1.328.129-2.661-1.057-2.661-1.057H49.44l-.79-4.238z" fill="#fff" stroke="#263238" stroke-width=".606" stroke-linecap="round" stroke-linejoin="round"/>
    <path d="m62.206 101.518 1.731 2.522" stroke="#263238" stroke-width=".606" stroke-linecap="round" stroke-linejoin="round"/>
    <path d="M22.47 105.365s-3.322 6.1-1.597 9.421c1.725 3.322 29.374-7.43 29.374-7.43l-.532-6.235-22.596 2.796" fill="#fff"/>
    <path d="M22.47 105.365s-3.322 6.1-1.597 9.421c1.725 3.322 29.374-7.43 29.374-7.43l-.532-6.235-22.596 2.796" stroke="#263238" stroke-width=".606" stroke-linecap="round" stroke-linejoin="round"/>
    <path d="M86.595 130.705h-30.69l6.923-23.456h30.69l-6.923 23.456v0z" fill="#fff" stroke="#263238" stroke-width=".606" stroke-linecap="round" stroke-linejoin="round"/>
    <path d="M55.905 130.699h30.69M54.824 215.665 71.19 197.13v-66.61l6.61-22.309M71.191 197.13l16.054 18.222M71.191 198.388v16.964" stroke="#263238" stroke-width="1.819" stroke-linecap="round" stroke-linejoin="round"/>
    <path d="m59.546 130.207 17.308-19.167 6.924 18.535" stroke="#263238" stroke-width=".606" stroke-linecap="round" stroke-linejoin="round"/>
    <path d="M203.424 45.036a7.374 7.374 0 0 0-4.691 2.79c-1.782 2.455-2.902 4.916-4.239 6.484-1.337 1.569-3.464 1.792-3.013 2.79.451 1 2.785 1.675 2.785 1.675s-.34 6.484-.111 7.812c.228 1.328 1.782.558 2.562.558.78 0 4.802-1.116 4.802-1.116l.785 5.932 11.141-3.906-1.343-4.922s3.342-4.358 3.688-8.164c.345-3.806 0-6.93-3.465-8.929-3.465-1.997-8.901-1.004-8.901-1.004z" fill="#fff" stroke="#263238" stroke-width=".606" stroke-linecap="round" stroke-linejoin="round"/>
    <path d="M209.713 46.855s-7.147.34-6.351 2.271c.797 1.931 1.816 4.688 1.816 5.246 0 .558-2.835 3.521-2.155 3.973.679.452 3.514-1.93 4.534-1.93 1.019 0 .34 6.36 1.359 6.696 1.019.335 3.292-.112 3.632-.23.34-.116 2.947-4.77 4.762-9.084 1.816-4.314 1.115-7.952-1.114-9.43-2.228-1.48-12.02-.682-16.215-1.117-4.194-.435-9.748-4.888-9.068-.229.679 4.66 4.645 5.58 8.277 4.431 3.632-1.15 10.523-.597 10.523-.597z" fill="#263238" stroke="#263238" stroke-width=".606" stroke-linecap="round" stroke-linejoin="round"/>
    <path d="m198.956 51.743-.668 1.674s.445 1.005 3.342.67M198.622 54.316s.446.558 2.902.223" stroke="#263238" stroke-width=".606" stroke-linecap="round" stroke-linejoin="round"/>
    <path d="M199.196 49.467s2.228-.865 3.342 1.98" stroke="#263238" stroke-width="1.213" stroke-linecap="round" stroke-linejoin="round"/>
    <path d="m197.508 188.401-5.064 3.543c-2.406 1.675-7.871 3.382-7.871 3.862s.084 1.116.647 1.116h12.366c.401 0 1.771-.725 2.011-.803a4.656 4.656 0 0 1 1.203-.162c.401 0 .485.881.485.881h5.62a7.94 7.94 0 0 0 .485-2.896 31.989 31.989 0 0 0-.245-3.621l-9.637-1.92z" fill="#787878" stroke="#263238" stroke-width=".606" stroke-linecap="round" stroke-linejoin="round"/>
    <path d="M199.758 152.469s-1.047 18.248-1.047 23.722-.362 7.299-.362 7.299-1.643.915-1.643 2.193-.184 2.919-.184 2.919.913 1.462 4.194 2.371c2.267.593 4.586.967 6.924 1.116 0 0 2.006-1.277 2.551-5.111.546-3.834-.367-10.603-1.114-15.882-.746-5.279-6.606-22.26-6.606-22.26s-2.529 1.44-2.713 3.633z" fill="#263238" stroke="#263238" stroke-width=".606" stroke-linecap="round" stroke-linejoin="round"/>
    <path d="M206.727 190.248s-3.827 2.734-5.832 3.465a53.564 53.564 0 0 0-5.097 2.372s0 .915.724.915h11.664s1.638.363 2.184-.184c.315-.321.695-.57 1.114-.731h1.114v1.116h5.648c-.01-.795-.072-1.59-.184-2.377a13.74 13.74 0 0 0-.908-2.919l-10.427-1.657z" fill="#787878" stroke="#263238" stroke-width=".606" stroke-linecap="round" stroke-linejoin="round"/>
    <path d="M191.587 101.275s-1.454.814-5.415.323c-3.96-.491-5.498-1.294-5.737-.647-.24.647-1.538 4.782-1.621 5.508-.084.725 1.782 1.055 2.105 1.055.323 0-.484 1.54.557 1.378 1.042-.162 3.56-.408 4.206-.731a11.488 11.488 0 0 0 1.861-1.54l4.456-1.211-.412-4.135z" fill="#fff" stroke="#263238" stroke-width=".606" stroke-linecap="round" stroke-linejoin="round"/>
    <path d="M183.989 103.479s-1.114 2.188-1.538 2.757a7.356 7.356 0 0 1-1.532 1.294M182.858 105.164l-1.376-.569" stroke="#263238" stroke-width=".606" stroke-linecap="round" stroke-linejoin="round"/>
    <path d="M191.375 108.501s.913 15.514 2.005 25.006c1.092 9.492 4.735 17.137 6.562 21.869 1.827 4.732 6.601 24.453 6.969 27.009.219 1.388.28 2.795.183 4.197a1.79 1.79 0 0 0-1.275 1.646c.026.921.147 1.838.362 2.734 0 0 3.827 1.116 6.194 1.462 1.812.236 3.637.357 5.465.363.357-2.237.6-4.491.729-6.752a36.745 36.745 0 0 0-.362-7.484c-.184-1.116-2.596-19.704-4.601-24.815a57.365 57.365 0 0 1-4.01-15.335c-.73-6.021 5.102-17.707 3.28-24.822-1.821-7.115-4.372-9.486-4.372-9.486l-16.945.362-.184 4.046z" fill="#263238" stroke="#263238" stroke-width=".606" stroke-linecap="round" stroke-linejoin="round"/>
    <path d="M207.601 154.623c-3.787-16.144-6.294-37.601-6.322-37.813l-2.172.252c.027.217 2.551 21.791 6.366 38.063 1.387 5.91 2.63 11.194 3.811 14.838 1.999 6.139 3.125 14.448 3.147 22.484.702.1 1.465.178 2.189.228 0-8.543-1.248-17.215-3.259-23.392-1.169-3.6-2.395-8.84-3.76-14.66z" fill="#787878" stroke="#263238" stroke-width=".606" stroke-linecap="round" stroke-linejoin="round"/>
    <path d="m190.322 101.247.791 8.521s3.175 1.479 5.788.681a16.626 16.626 0 0 0 3.515-1.362v-8.61s-7.376 2.271-10.094.77z" fill="#fff" stroke="#263238" stroke-width=".606" stroke-linecap="round" stroke-linejoin="round"/>
    <path d="M202.343 72.53s-6.467 4.883-8.278 9.995c-1.81 5.111-4.083 16.133-4.423 18.175-.339 2.042 1.36 1.708 4.195 2.617 2.835.91 3.855-1.25 7.487-12.042 3.631-10.793 6.461-14.202 6.127-16.245-.334-2.042-1.593-4.43-5.108-2.5z" fill="#fff" stroke="#263238" stroke-width=".606" stroke-linecap="round" stroke-linejoin="round"/>
    <path d="m213.027 66.057-11.503 5.368.446 2.238 11.725-6.038-.668-1.568v0z" fill="#fff" stroke="#263238" stroke-width=".606" stroke-linecap="round" stroke-linejoin="round"/>
    <path d="M213.25 66.956s-11.052 6.26-12.394 8.063c-1.343 1.803-4.913 8.276-6.685 15.882-1.771 7.606-.228 20.24 1.671 24.492 1.9 4.252 13.843 22.813 15.519 27.288 1.677 4.475 3.794 13.309 3.794 13.309s2.902-17.45 2.456-29.414c-.445-11.964-6.584-21.696-6.584-21.696s7.799-17.45 7.03-24.716c-.769-7.265-4.807-13.208-4.807-13.208z" fill="#263238" stroke="#263238" stroke-width=".606" stroke-linecap="round" stroke-linejoin="round"/>
    <path d="m159.551 74.221-24.66 11.44" stroke="#263238" stroke-width=".606" stroke-linecap="round" stroke-linejoin="round"/>
    <path d="M175.99 70.31s-3.9-3.02-5.136-3.69c-1.237-.669-3.688-.557-4.356.224-.669.781-4.579 3.019-5.805 3.348-1.225.33-2.902.893-2.902 1.451s-.111 2.684-.111 2.684l2.456 1.345 3.9 1.005s1.899-1.34 2.122-1.786c.223-.447-.223-1.233-.223-1.233a13.2 13.2 0 0 0 1.788-1.786 7.631 7.631 0 0 1 1.226-1.345l4.801 3.8 2.24-4.018z" fill="#fff" stroke="#263238" stroke-width=".606" stroke-linecap="round" stroke-linejoin="round"/>
    <path d="M160.108 75.678a1.98 1.98 0 0 1 .223-1.234c.334-.446 1.56-2.567 1.56-2.567M160.888 73.217h-1.225M165.913 73.663c-.518.496-1.077.946-1.671 1.345M162.788 72.659s-1.9 2.232-1.231 3.13M164.125 73.105s-1.449 1.116-1.337 2.015c.111.898 1.225 1.562 1.225 1.562" stroke="#263238" stroke-width=".606" stroke-linecap="round" stroke-linejoin="round"/>
    <path d="M211.016 71.877a8.16 8.16 0 0 0-5.359 1.005c-2.568 1.562-5.915 9.486-5.915 9.486l-24.309-13.063-3.688 5.48s23.668 17.332 24.671 18.002c1.003.67 4.133 2.907 6.59 1.791 2.456-1.116 11.608-13.532 11.608-13.532" fill="#263238"/>
    <path d="M211.016 71.877a8.16 8.16 0 0 0-5.359 1.005c-2.568 1.562-5.915 9.486-5.915 9.486l-24.309-13.063-3.688 5.48s23.668 17.332 24.671 18.002c1.003.67 4.133 2.907 6.59 1.791 2.456-1.116 11.608-13.532 11.608-13.532" stroke="#263238" stroke-width=".606" stroke-linecap="round" stroke-linejoin="round"/>
    <path d="M205.618 57.999s1.939-3.304 3.415-2.17c1.476 1.132 1.248 4.09-.557 5.58-1.805 1.49-4.083-1.25-4.083-1.25" fill="#fff"/>
    <path d="M205.618 57.999s1.939-3.304 3.415-2.17c1.476 1.132 1.248 4.09-.557 5.58-1.805 1.49-4.083-1.25-4.083-1.25" stroke="#263238" stroke-width=".606" stroke-linecap="round" stroke-linejoin="round"/>
    <path d="M201.886 74.003s-2.495-2.952-2.947-1.59c-.451 1.362-2.038 3.867-.791 3.867 1.248 0 3.738-2.277 3.738-2.277z" fill="#263238" stroke="#263238" stroke-width=".606" stroke-linecap="round" stroke-linejoin="round"/>
    <path fill="#4788D8" stroke="#263238" stroke-width=".606" stroke-linecap="round" stroke-linejoin="round" d="M172.313 196.944h64.572v18.064h-64.572z"/>
</svg>
