<svg width="530" height="337" fill="none" xmlns="http://www.w3.org/2000/svg">
    <path d="M497.033 114.777c-50.16-76.01-184.238-118.792-250.171-38.15a111.826 111.826 0 0 0-7.235 9.924c-16.281 25.093-40.039 68.53-76.537 58.045-24.98-7.171-43.931-27.124-68.688-34.829-32.682-10.157-60.1 10.959-76.183 37.876-18.701 31.291-25.076 68.005-8.33 101.783 31.183 62.995 125.223 76.88 187.787 70.88 45.801-4.399 87.769-27.486 133.966-29.096 33.242-1.153 66.148 7.179 97.46 17.578 14.506 4.821 29.055 10.132 44.285 11.423 54.493 4.614 58.955-44.762 55.337-86.254-3.592-41.25-8.253-83.74-31.691-119.18z" fill="#4788D8"/>
    <path opacity=".7" d="M497.033 114.777c-50.16-76.01-184.238-118.792-250.171-38.15a111.826 111.826 0 0 0-7.235 9.924c-16.281 25.093-40.039 68.53-76.537 58.045-24.98-7.171-43.931-27.124-68.688-34.829-32.682-10.157-60.1 10.959-76.183 37.876-18.701 31.291-25.076 68.005-8.33 101.783 31.183 62.995 125.223 76.88 187.787 70.88 45.801-4.399 87.769-27.486 133.966-29.096 33.242-1.153 66.148 7.179 97.46 17.578 14.506 4.821 29.055 10.132 44.285 11.423 54.493 4.614 58.955-44.762 55.337-86.254-3.592-41.25-8.253-83.74-31.691-119.18z" fill="#fff"/>
    <path d="M361.245 16.263s24.034 66.152 88.134 113.393v201.322M405.674 1.723s11.655 71.237 50.248 126.471M450.828 1s-1.285 85.338 16.749 124.294M413.226 76.814a222.271 222.271 0 0 1-2.457-4.577M453.008 127.471s-18.964-15.409-36.627-45.16M466.956 76.823c-.371 12.853.173 34.078 6.448 48.472M467.577 65.69s-.181 1.815-.354 4.878M455.198 134.75l-1.457 135.926" stroke="#263238" stroke-width=".8" stroke-linecap="round" stroke-linejoin="round"/>
    <path d="M449.379 129.656s-77.927-28.348-110.701-104.67M451.845 128.813h24.171M450.905 132.573h24.482M461.887 133.201l-2.508 40.419M466.913 132.891l1.259 15.977M191.538 16.263s-24.042 66.152-88.126 113.393v201.322M147.109 1.723S135.463 72.96 96.861 128.194M101.982 1s1.284 85.338-16.75 124.294M99.775 127.471s23.275-18.928 42.239-55.243M85.206 65.69s3.716 37.709-5.827 59.604M97.585 134.75l1.457 135.926M211.201 31.422a157.004 157.004 0 0 0 2.913-6.436" stroke="#263238" stroke-width=".8" stroke-linecap="round" stroke-linejoin="round"/>
    <path d="M103.412 129.656s69.463-25.268 104.806-92.315" stroke="#263238" stroke-width=".8" stroke-linecap="round" stroke-linejoin="round"/>
    <path opacity=".2" fill-rule="evenodd" clip-rule="evenodd" d="M225.549 86.846c.075.582.152 1.168.231 1.761a14.43 14.43 0 0 0-1.742-.579 7.59 7.59 0 0 0-1.725-.138 4.048 4.048 0 0 0-3.889 3.957 3.945 3.945 0 0 0 3.674 3.759 6.26 6.26 0 0 0 4.665-1.624 3.285 3.285 0 0 0 1.372-3.05 227.984 227.984 0 0 0-.492-3.457l-.114-.736c-.67-4.339-1.345-8.714-1.99-13.09-.078-.474-.311-.587-.699-.682l-10.599-2.54c-.267-.067-.542-.121-.844-.18a68.886 68.886 0 0 1-.398-.08l.441 5.295c.31 3.709.618 7.402.922 11.123l-.509-.173a6.958 6.958 0 0 0-3.562-.45 4.112 4.112 0 0 0-3.32 4.4 3.658 3.658 0 0 0 4.062 3.162 6.638 6.638 0 0 0 4.959-2.593c.371-.497.56-1.107.535-1.728-.208-2.662-.474-5.32-.739-7.976-.088-.879-.176-1.757-.262-2.635-.03-.327-.054-.65-.08-.984-.018-.24-.036-.485-.058-.744.925.225 1.84.446 2.749.665 2.025.488 4.017.969 6.005 1.47a.862.862 0 0 1 .396.604c.197 1.26.372 2.526.546 3.79l.144 1.04c.111.804.215 1.605.321 2.413zm-9.342-11.97c-1.147-.293-1.19-.37-1-1.727l2.639.648 5.037 1.305c1.19.32 1.276.457 1.19 1.805l-4.554-1.166-3.312-.864zM502.865 78.327l.14 1.052a14.611 14.611 0 0 0-1.69-.597 8.094 8.094 0 0 0-1.768-.13 4.031 4.031 0 0 0-3.881 3.95 3.954 3.954 0 0 0 3.665 3.767 6.348 6.348 0 0 0 4.674-1.624 3.313 3.313 0 0 0 1.363-3.06c-.147-1.148-.31-2.306-.492-3.456-.23-1.513-.463-3.03-.697-4.549-.474-3.085-.95-6.178-1.407-9.276-.069-.484-.31-.596-.69-.682l-10.616-2.48c-.252-.063-.515-.115-.796-.17a35.195 35.195 0 0 1-.446-.09l.513 6.188.85 10.23-.518-.173a6.957 6.957 0 0 0-3.562-.45 4.12 4.12 0 0 0-3.311 4.399 3.657 3.657 0 0 0 4.062 3.171 6.655 6.655 0 0 0 4.959-2.592 2.762 2.762 0 0 0 .534-1.771c-.196-2.443-.437-4.881-.678-7.318-.109-1.098-.218-2.196-.322-3.293a178.71 178.71 0 0 1-.116-1.357l-.031-.372c2.993.718 5.873 1.409 8.754 2.135.181.043.397.38.397.605.25 1.607.474 3.214.689 4.83.143 1.032.281 2.063.421 3.113zm-9.441-12.67c-1.147-.294-1.182-.38-.992-1.728v-.026l.293.069c.782.183 1.564.367 2.346.605.836.22 1.675.436 2.514.652.838.216 1.677.432 2.514.653 1.198.31 1.285.458 1.198 1.797l-4.562-1.158c-.948-.26-1.864-.494-2.83-.74l-.481-.124z" fill="#000"/>
    <path opacity=".2" d="M336.144 65.804c.518 1.287.992 2.497 1.492 3.69 1.087 2.598 2.176 5.19 3.269 7.776a2.656 2.656 0 0 1 0 2.16 6.24 6.24 0 0 1-3.864 3.699c-1.846.63-4.183-1.029-4.381-3.094-.18-1.13.151-2.28.902-3.142a3.845 3.845 0 0 1 2.987-1.316h1.725l-5.692-14.344c.466-.19.863-.38 1.328-.536a.346.346 0 0 1 .32.07c.974 1.192 2.388 1.65 3.691 2.306 1.116.457 2.205.98 3.26 1.565 3.148 2.065 3.932 4.925 2.88 8.563-.06.207-.284.362-.44.544a2.046 2.046 0 0 1-.241-.683c.063-3.899-3.009-7.127-6.899-7.25l-.337-.008zM48.743 74.298c.526 1.287 1 2.497 1.5 3.69 1.078 2.592 2.182 5.184 3.27 7.776a2.693 2.693 0 0 1 0 2.16 6.241 6.241 0 0 1-3.865 3.699c-1.845.63-4.182-1.029-4.38-3.094a3.85 3.85 0 0 1 .898-3.145 3.834 3.834 0 0 1 2.99-1.313h1.726L45.216 69.7c.465-.19.862-.38 1.328-.536a.345.345 0 0 1 .319.07c.974 1.192 2.389 1.65 3.682 2.306 1.12.457 2.211.98 3.269 1.565 3.148 2.065 3.932 4.925 2.88 8.563-.06.207-.293.362-.44.544a2.034 2.034 0 0 1-.24-.683c.062-3.899-3.01-7.127-6.9-7.25l-.371.018zM147.628 55.746c.517 1.288.992 2.497 1.492 3.69 1.087 2.603 2.179 5.196 3.277 7.777a2.73 2.73 0 0 1 0 2.16 6.25 6.25 0 0 1-3.872 3.698c-1.837.63-4.183-1.028-4.381-3.102a3.857 3.857 0 0 1 .902-3.09 3.843 3.843 0 0 1 2.927-1.326h1.725l-5.666-14.37c.465-.19.862-.38 1.328-.535a.36.36 0 0 1 .327.07c.966 1.183 2.389 1.65 3.683 2.306 1.116.457 2.205.98 3.26 1.564 3.156 2.065 3.933 4.925 2.88 8.563-.06.208-.284.363-.431.545a2.135 2.135 0 0 1-.25-.683c.064-3.883-2.983-7.104-6.856-7.25-.095-.026-.181-.017-.345-.017zM372.34 122.436l-9.038-18.267c.647-.207 1.224-.432 1.828-.57.129 0 .397.216.492.397 1.604 3.094 3.182 6.204 4.777 9.306a412.591 412.591 0 0 0 5.313 10.3 5.082 5.082 0 0 1-.526 6.049 5.772 5.772 0 0 1-7.106 1.918c-2.381-1.132-3.933-4.467-2.588-6.792a4.53 4.53 0 0 1 3.545-2.29 28.002 28.002 0 0 1 3.303-.051zM386.078 117.58l-9.047-18.267c.647-.216 1.234-.432 1.837-.57.13 0 .397.216.483.397 1.604 3.094 3.183 6.204 4.778 9.306 1.768 3.457 3.502 6.913 5.321 10.291a5.097 5.097 0 0 1-.534 6.049 5.773 5.773 0 0 1-7.107 1.927c-2.38-1.132-3.932-4.476-2.587-6.8a4.51 4.51 0 0 1 3.545-2.282 26.129 26.129 0 0 1 3.311-.051zM137.926 115.151a3579.155 3579.155 0 0 0-9.03-18.266c.647-.216 1.225-.432 1.828-.57.13 0 .397.216.492.388 1.604 3.102 3.182 6.213 4.778 9.315a398.492 398.492 0 0 0 5.312 10.291 5.088 5.088 0 0 1-.526 6.049 5.798 5.798 0 0 1-7.115 1.927c-2.371-1.132-3.924-4.476-2.587-6.801a4.494 4.494 0 0 1 3.545-2.281 26.19 26.19 0 0 1 3.303-.052zM490.379 128.821l-8.995-18.266c.647-.208 1.225-.432 1.829-.571.129 0 .396.216.491.398 1.604 3.102 3.182 6.204 4.778 9.314 1.768 3.457 3.501 6.913 5.312 10.292a5.086 5.086 0 0 1-.526 6.048 5.77 5.77 0 0 1-7.106 1.918c-2.38-1.131-3.933-4.467-2.587-6.791a4.526 4.526 0 0 1 3.544-2.29 27.925 27.925 0 0 1 3.26-.052z" fill="#000"/>
    <path d="M399.811 221.38s-7.32 44.723-7.787 54.494c-1.073 23.307 2.007 54.495 2.007 54.495M350.728 276.151l2.223 54.166M328.552 276.427l-7.769 54.166M360.158 273.932a17.42 17.42 0 0 0-.276 1.942c-.39 23.721 1.946 54.192 1.946 54.192" stroke="#263238" stroke-width="2.4" stroke-linecap="round" stroke-linejoin="round"/>
    <path d="M371.25 214.733h21.008a7.58 7.58 0 0 1 7.138 5.007v0c.449 1.252.563 2.6.329 3.91l-5.192 28.434h-29.936l6.653-37.351z" fill="#787878" stroke="#263238" stroke-width=".8" stroke-linecap="round" stroke-linejoin="round"/>
    <rect x="323.56" y="266.465" width="70.705" height="11.066" rx="4.256" fill="#787878" stroke="#263238" stroke-width=".8" stroke-linecap="round" stroke-linejoin="round"/>
    <path d="M346.644 185.833s-17.408 2.063-20.376 3.203c-2.968 1.139-4.672 2.054-11.04 5.938-6.368 3.885-14.008 6.164-18.04 9.591-4.032 3.427-9.976 18.731-9.976 18.731l6.792 6.621s-.207.458 4.88-5.248c5.088-5.706 12.736-13.475 16.984-15.08a44.174 44.174 0 0 1 9.518-2.512c.865 0 4.672 2.287 4.672 2.287l-3.617 46.303a169.63 169.63 0 0 0 17.408 2.287c7.64.458 29.504-3.651 29.504-3.651l.64-38.085 18.689 10.471s.865-.915-2.752-11.878c-3.616-10.963-2.336-15.072-5.096-19.414-2.76-4.341-15.288-5.714-17.832-7.078-2.543-1.364-13.791-2.52-15.496-2.52l-4.862.034z" fill="#263238" stroke="#263238" stroke-width=".8" stroke-linecap="round" stroke-linejoin="round"/>
    <path d="M287.212 223.296s1.497-4.402 4.56-5.101a4.854 4.854 0 0 1 5.892 3.289 5.718 5.718 0 0 1-.467 4.704c-.476.708-2.12 2.59-2.12 2.59s-7.951-1.079-7.865-5.482zM337.845 196.105s.735 3.867 1.289 6.621c.553 2.754 2.396 11.015 2.396 11.015l7.891-17.265-3.686-5.887-7.89 5.516z" fill="#fff" stroke="#263238" stroke-width=".8" stroke-linecap="round" stroke-linejoin="round"/>
    <path d="m340.051 195.372 1.107 5.334-1.843 3.125 2.579 6.811 4.43-7.726-2.397-2.391 2.95-4.972-2.033-4.049-4.793 3.868v0z" fill="#263238" stroke="#263238" stroke-width=".8" stroke-linecap="round" stroke-linejoin="round"/>
    <path d="m342.266 195.19-6.273 2.391 5.719-12.697 4.058.552-3.504 9.754v0z" fill="#fff" stroke="#263238" stroke-width=".8" stroke-linecap="round" stroke-linejoin="round"/>
    <path d="M345.216 149.181s-8.652 1.209-9.344 2.659a12.03 12.03 0 0 0-.969 3.272s-3.037 4.721-2.916 5.084c.121.362.121 3.151-.363 3.996-.485.846-2.916 5.447-2.916 7.269 0 1.821 1.09 12.715 2.068 13.682.977.966 3.071.975 3.885.975.813 0 6.307-3.263 6.307-3.263l1.324 14.485 13.584-12.948s.147-8.141.865-9.591c.718-1.45 7.406-8.235 7.891-14.174.484-5.938-7.528-10.168-11.534-10.893a36.586 36.586 0 0 0-7.882-.553v0z" fill="#fff" stroke="#263238" stroke-width=".8" stroke-linecap="round" stroke-linejoin="round"/>
    <path d="M353.107 149.665a36.59 36.59 0 0 0-7.891-.484s-8.652 1.209-9.344 2.659a12.03 12.03 0 0 0-.969 3.272s2.544-.864 5.58-1.572c3.037-.707 12.113-.975 11.534 1.33-.58 2.305-5.468 2.909-4.491 4.316.978 1.407 3.029 2.175 3.271 4.117.242 1.943-3.392 9.323-2.786 9.927.605.605 2.18 1.338 2.422.725a21.3 21.3 0 0 1 2.674-5.326c1.453-1.812 3.764-3.029 3.764.864s-4.006 5.697-4.006 5.697l3.884-.484c.727-1.458 7.407-8.235 7.891-14.174.485-5.938-7.527-10.142-11.533-10.867z" fill="#263238" stroke="#263238" stroke-width=".8" stroke-linecap="round" stroke-linejoin="round"/>
    <path d="m334.782 161.085.242 3.03s-4.612 7.147-4.49 7.993c.121.846 2.18 2.055 2.18 2.055M331.503 175.82l3.884.483M341.331 162.863l-1.09 1.727a9.97 9.97 0 0 0 5.191.362M340.12 165.643c1.482.259 2.989.34 4.491.241M339.999 166.86s-.727 1.571 3.037 3.021" stroke="#263238" stroke-width=".8"/>
    <path d="m332.835 162.38-1.211 1.812 2.786.121" stroke="#263238" stroke-width=".8"/>
    <path d="M339.636 159.833a4.333 4.333 0 0 1 5.58.967M334.903 159.954s-.242-1.813-2.189-.362" stroke="#263238" stroke-width="1.6"/>
    <path d="m340.968 182.838 6.186-3.988-5.823 7.984-.363-3.996z" fill="#263238" stroke="#263238" stroke-width=".8"/>
    <path d="m355.91 182.311-11.429 13.242 3.504 4.972 9.327-14.321-1.402-3.893v0z" fill="#fff" stroke="#263238" stroke-width=".8" stroke-linecap="round" stroke-linejoin="round"/>
    <path d="M370.844 224.341a187.907 187.907 0 0 1 4.663 20.121c2.129 11.861 4.465 20.113 4.465 20.113s-4.889 7.622-12.312 12.283c-7.424 4.662-13.16 4.023-13.16 4.023s1.479-12.948 1.73-26.043c.251-13.095-2.336-29.013-2.336-29.013s-2.119-1.907-2.119-10.168 7.639-24.17 7.639-24.17" fill="#263238"/>
    <path d="M370.844 224.341a187.907 187.907 0 0 1 4.663 20.121c2.129 11.861 4.465 20.113 4.465 20.113s-4.889 7.622-12.312 12.283c-7.424 4.662-13.16 4.023-13.16 4.023s1.479-12.948 1.73-26.043c.251-13.095-2.336-29.013-2.336-29.013s-2.119-1.907-2.119-10.168 7.639-24.17 7.639-24.17" stroke="#263238" stroke-width=".8" stroke-linecap="round" stroke-linejoin="round"/>
    <path d="m301.012 309.047 1.904 7.622a75.643 75.643 0 0 0-7.424 6.569c-2.76 2.961-10.382 4.23-8.063 5.508 2.318 1.277 10.382 2.538 13.583 1.269a29.724 29.724 0 0 0 6.368-3.816l.208 2.754 6.359-2.132s0-4.239-1.271-6.992a20.857 20.857 0 0 0-2.977-4.661l-1.055-4.446-7.632-1.675z" fill="#263238" stroke="#263238" stroke-width=".8" stroke-linecap="round" stroke-linejoin="round"/>
    <path d="M309.284 246.793s-19.952-4.239-23.361-.216c-3.409 4.023 7.259 62.47 7.259 62.47l16.552 3.177-5.936-32.802-2.976-18.006s21.864 7.837 30.144 6.569c8.28-1.269 6.368-16.522 1.48-19.276-4.889-2.753-23.162-1.916-23.162-1.916z" fill="#263238" stroke="#263238" stroke-width=".8" stroke-linecap="round" stroke-linejoin="round"/>
    <path d="M330.516 305.241c-.865 0-2.128 9.745-3.824 12.948-1.696 3.202-3.824 6.353-8.064 8.261-4.239 1.907-7.216 3.176-5.736 4.652 1.479 1.476 16.768.423 17.624.423.857 0 2.752-.207 2.752-.207a8.764 8.764 0 0 0 3.4-.639c1.064-.63 1.064-5.075 1.064-7.622v-3.599l2.336-8.468s-7.224-5.749-9.552-5.749z" fill="#fff" stroke="#263238" stroke-width=".8" stroke-linecap="round" stroke-linejoin="round"/>
    <path d="M329.66 318.361c-1.731-2.322-3.184 1.062-3.184 1.062l-.58.147a15.732 15.732 0 0 1-7.268 6.845c-4.248 1.899-7.216 3.177-5.736 4.653 1.479 1.476 16.768.423 17.624.423.857 0 2.752-.207 2.752-.207a8.764 8.764 0 0 0 3.4-.639c1.064-.63 1.064-5.076 1.064-7.622a50.64 50.64 0 0 0-6.584-.63s.216-1.701-1.488-4.032z" fill="#263238" stroke="#263238" stroke-width=".8" stroke-linecap="round" stroke-linejoin="round"/>
    <path d="m352.103 218.117-4.412-6.267-3.167 3.617c-6.852-.112-15.115 4.601-20.696 12.249-6.792 9.331-9.015 13.923-9.015 13.923s4.81.561 3.4 3.099c-1.41 2.538-3.677 2.547-18.394 14.407-8.557 6.906-12.806 13.881-13.974 19.854-1.912.095-3.296.19-3.296.19l-.865 3.107.441.587 6.567 8.797a6.82 6.82 0 0 0 1.782 1.199c5.875 4.368 16.829 4.808 30.326-4.635 16.127-11.291 17.771-24.869 17.771-40.959 0 0 1.134-4.515 4.525-5.369 3.392-.855 5.097-.277 5.097-.277a31.079 31.079 0 0 0 6.229-9.883c1.86-4.86 1.808-10.247-2.319-13.639z" fill="#4788D8"/>
    <path opacity=".3" d="m352.103 218.117-4.412-6.267-3.167 3.617c-6.852-.112-15.115 4.601-20.696 12.249-6.792 9.331-9.015 13.923-9.015 13.923s4.81.561 3.4 3.099c-1.41 2.538-3.677 2.547-18.394 14.407-8.557 6.906-12.806 13.881-13.974 19.854-1.912.095-3.296.19-3.296.19l-.865 3.107.441.587 6.567 8.797a6.82 6.82 0 0 0 1.782 1.199c5.875 4.368 16.829 4.808 30.326-4.635 16.127-11.291 17.771-24.869 17.771-40.959 0 0 1.134-4.515 4.525-5.369 3.392-.855 5.097-.277 5.097-.277a31.079 31.079 0 0 0 6.229-9.883c1.86-4.86 1.808-10.247-2.319-13.639z" fill="#000"/>
    <path clip-rule="evenodd" d="m352.103 218.117-4.412-6.267-3.167 3.617c-6.852-.112-15.115 4.601-20.696 12.249-6.792 9.331-9.015 13.923-9.015 13.923s4.81.561 3.4 3.099c-1.41 2.538-3.677 2.547-18.394 14.407-8.557 6.906-12.806 13.881-13.974 19.854-1.912.095-3.296.19-3.296.19l-.865 3.107.441.587 6.567 8.797a6.82 6.82 0 0 0 1.782 1.199c5.875 4.368 16.829 4.808 30.326-4.635 16.127-11.291 17.771-24.869 17.771-40.959 0 0 1.134-4.515 4.525-5.369 3.392-.855 5.097-.277 5.097-.277a31.079 31.079 0 0 0 6.229-9.883c1.86-4.86 1.808-10.247-2.319-13.639z" stroke="#263238" stroke-width=".8"/>
    <path d="M332.636 239.637s1.133-4.523 4.525-5.369c3.392-.846 5.096-.277 5.096-.277a31.064 31.064 0 0 0 6.23-9.883c2.258-5.931 1.73-12.707-5.667-15.538-7.398-2.831-18.17 2.149-24.936 11.472-6.766 9.323-9.024 13.941-9.024 13.941s4.811.561 3.4 3.099c-1.41 2.538-3.677 2.546-18.394 14.407-14.717 11.86-16.699 23.997-12.174 30.773 4.525 6.776 17.036 9.616 33.173-1.675 16.136-11.29 17.771-24.834 17.771-40.95z" fill="#4788D8" stroke="#263238" stroke-width=".8" stroke-linecap="round" stroke-linejoin="round"/>
    <path d="m309.223 245.041 9.431.483-.917 2.175-9.846-.794 1.332-1.864v0z" fill="#fff" stroke="#263238" stroke-width=".8" stroke-linecap="round" stroke-linejoin="round"/>
    <path d="m361.145 186.437 3.608 6.992s4.464-5.93 6.792-7.63c2.327-1.701 4.464 0 8.496-1.899 4.032-1.9 8.271-6.777 5.944-12.5-2.327-5.723-10.616-5.507-12.113-1.053-1.497 4.454 1.272 6.776 3.184 6.561 1.912-.216 3.184-1.908 1.912-3.177 0 0 5.728 1.908 1.488 5.507-2.76 2.331-4.88-.216-9.128 1.727-4.248 1.942-10.183 5.472-10.183 5.472z" fill="#4788D8" stroke="#263238" stroke-width=".8" stroke-linecap="round" stroke-linejoin="round"/>
    <path d="M363.412 186.437h-2.267" stroke="#263238" stroke-width=".8" stroke-linecap="round" stroke-linejoin="round"/>
    <path d="M363.836 187.499s-19.26 17.066-30.404 29.694c-7.986 9.021-13.567 16.514-13.567 16.514l5.849.742 11.707-15.926s7.527-9.832 12.831-14.494c5.303-4.661 15.279-13.129 15.279-13.129l-1.695-3.401z" fill="#263238" stroke="#263238" stroke-width=".8" stroke-linecap="round" stroke-linejoin="round"/>
    <path d="M364.285 188.509S333.96 211.6 300.173 260.44" stroke="#fff" stroke-width=".5" stroke-linecap="round" stroke-linejoin="round"/>
    <path d="M365.35 189.044s-30.326 23.091-64.113 71.923" stroke="#fff" stroke-width=".5" stroke-linecap="round" stroke-linejoin="round"/>
    <path d="M366.154 189.571s-30.334 23.091-64.121 71.931" stroke="#fff" stroke-width=".5" stroke-linecap="round" stroke-linejoin="round"/>
    <ellipse cx="372.194" cy="181.146" rx="2.31" ry="2.305" fill="#263238" stroke="#263238" stroke-width=".8" stroke-linecap="round" stroke-linejoin="round"/>
    <path d="M369.217 184.771a2.314 2.314 0 0 1-1.427 2.145 2.323 2.323 0 0 1-2.531-.5 2.31 2.31 0 0 1-.501-2.525 2.317 2.317 0 0 1 2.149-1.424c.613 0 1.2.242 1.634.675a2.3 2.3 0 0 1 .676 1.629v0z" fill="#263238" stroke="#263238" stroke-width=".8" stroke-linecap="round" stroke-linejoin="round"/>
    <path d="m363.412 186.437 3.608 6.992s4.455-5.93 6.791-7.63c2.337-1.701 4.456 0 8.488-1.899 4.032-1.9 8.28-6.777 5.944-12.5-2.336-5.723-10.607-5.507-12.113-1.053-1.505 4.454 1.272 6.776 3.184 6.561 1.912-.216 3.184-1.908 1.912-3.177 0 0 5.728 1.908 1.48 5.507-2.752 2.331-4.88-.216-9.119 1.727-4.24 1.942-10.175 5.472-10.175 5.472z" fill="#4788D8"/>
    <path opacity=".3" d="m363.412 186.437 3.608 6.992s4.455-5.93 6.791-7.63c2.337-1.701 4.456 0 8.488-1.899 4.032-1.9 8.28-6.777 5.944-12.5-2.336-5.723-10.607-5.507-12.113-1.053-1.505 4.454 1.272 6.776 3.184 6.561 1.912-.216 3.184-1.908 1.912-3.177 0 0 5.728 1.908 1.48 5.507-2.752 2.331-4.88-.216-9.119 1.727-4.24 1.942-10.175 5.472-10.175 5.472z" fill="#000"/>
    <path clip-rule="evenodd" d="m363.412 186.437 3.608 6.992s4.455-5.93 6.791-7.63c2.337-1.701 4.456 0 8.488-1.899 4.032-1.9 8.28-6.777 5.944-12.5-2.336-5.723-10.607-5.507-12.113-1.053-1.505 4.454 1.272 6.776 3.184 6.561 1.912-.216 3.184-1.908 1.912-3.177 0 0 5.728 1.908 1.48 5.507-2.752 2.331-4.88-.216-9.119 1.727-4.24 1.942-10.175 5.472-10.175 5.472z" stroke="#263238" stroke-width=".8"/>
    <path d="M378.138 185.099a2.308 2.308 0 0 1-2.311 2.305 2.308 2.308 0 0 1-2.31-2.305 2.307 2.307 0 0 1 2.31-2.304 2.307 2.307 0 0 1 2.311 2.304v0zM372.851 188.708a2.312 2.312 0 0 1-1.427 2.144 2.322 2.322 0 0 1-2.531-.5 2.308 2.308 0 0 1-.501-2.525 2.318 2.318 0 0 1 2.149-1.424 2.316 2.316 0 0 1 2.31 2.305z" fill="#263238" stroke="#263238" stroke-width=".8" stroke-linecap="round" stroke-linejoin="round"/>
    <path d="M326.268 242.554s-3.184-.863-.424-2.753c1.817-1.26 3.608 1.485 1.912 4.445-1.696 2.961-6.368 5.3-5.944 8.261.424 2.961 4.88 1.485 5.728-.863.848-2.348-1.064-2.754-2.12-1.269M312.468 241.07s1.73-1.727.424-1.908c-1.307-.181-3.184 2.546-4.664 5.084-1.479 2.538-2.976 5.3-5.312 5.508-2.336.207-1.48-1.908.424-2.754 1.903-.846 1.73.863.64 1.269" stroke="#263238" stroke-width=".8" stroke-linecap="round" stroke-linejoin="round"/>
    <path d="m306.29 259.111-6.186-1.908s-3.374 5.576-4.222 8.546c-.848 2.969-3.824 8.779-5.52 10.686-1.696 1.908-2.968 10.359-2.968 10.359l1.272.863 5.382-9.107s2.985-7.449 4.04-9.348c1.056-1.899 8.202-10.091 8.202-10.091z" fill="#263238" stroke="#263238" stroke-width=".8" stroke-linecap="round" stroke-linejoin="round"/>
    <path d="m288.484 289.565-12.978 36.893c-.108.336.042.7.355.863v0a.717.717 0 0 0 .995-.388l13.938-36.954-2.31-.414z" fill="#fff" stroke="#263238" stroke-width=".8" stroke-linecap="round" stroke-linejoin="round"/>
    <path d="m281.519 302.15-2.794 14.735 1.73.63 8.159-13.949a1 1 0 0 0-.727-1.502l-5.191-.716a.996.996 0 0 0-1.177.802v0zM357.892 263.306s2.552-11.015-4.24-15.46c-6.792-4.446-14.864 1.908-16.984 6.776-2.12 4.869-1.912 14.407-3.4 22.875-1.489 8.468-6.576 27.951-6.576 27.951s7.432 4.238 8.488 5.084l4.032 3.177s3.184-8.261 9.768-21.814c6.584-13.552 8.488-23.298 8.912-28.589z" fill="#263238" stroke="#263238" stroke-width=".8" stroke-linecap="round" stroke-linejoin="round"/>
    <path d="M365.107 213.965a41.545 41.545 0 0 1-5.727-7.838c-2.12-4.022-6.152-6.137-7.216-6.137s-3.824 1.061-5.944 2.33a14.813 14.813 0 0 0-3.608 3.177s-3.608-.639-3.184.63c.424 1.269 3.608.216 5.52 1.727 1.912 1.51 5.52 4.652 7.423 5.507a26.002 26.002 0 0 0 5.702 1.243l5.096 6.353 4.032-5.507-2.094-1.485z" fill="#fff" stroke="#263238" stroke-width=".8" stroke-linecap="round" stroke-linejoin="round"/>
    <path d="m363.913 211.842-5.658 6.819 2.128 1.649 5.789-6.552-2.259-1.916v0z" fill="#fff" stroke="#263238" stroke-width=".8" stroke-linecap="round" stroke-linejoin="round"/>
    <path d="m366.172 213.741-8.064 9.495a103.781 103.781 0 0 0 15.539 10.212c8.488 4.445 15.704 6.146 18.247.638 2.544-5.507 2.129-5.723-2.543-10.168-4.672-4.446-23.179-10.177-23.179-10.177z" fill="#263238" stroke="#263238" stroke-width=".8" stroke-linecap="round" stroke-linejoin="round"/>
    <path d="M295.916 224.962s-1.488-4.238-2.976-4.445c-1.488-.207-3.184.863-4.456 2.33-1.272 1.468-5.304 6.777-5.727 7.623a56.812 56.812 0 0 0-2.977 5.498c-.865 2.124-1.479 4.031 0 3.393 1.48-.639 2.977-4.869 2.977-4.869s-.641 3.807-.217 4.653c.424.846 1.064 2.969 2.129 3.608 1.064.639 4.239-1.278 4.239-1.278s1.731 1.062 2.553-1.268c.821-2.331 1.055-.631 2.543-5.715 1.488-5.084.641-5.49 1.912-9.53z" fill="#fff" stroke="#263238" stroke-width=".8" stroke-linecap="round" stroke-linejoin="round"/>
    <path d="M288.908 241.493c.36-1.667.503-3.373.424-5.076 0-1.485 1.488-3.599 1.488-3.599M285.941 242.554c.207-.638-1.731-3.392-1.731-5.714 0-2.322 1.272-2.969 1.272-3.815M287.212 233.025s-1.272 2.96-.865 4.238c.407 1.278 1.272 4.868 1.272 4.868" stroke="#263238" stroke-width=".8" stroke-linecap="round" stroke-linejoin="round"/>
    <path d="m289.981 236.443 52.207 4.42" stroke="#263238" stroke-width="1.6" stroke-linecap="round" stroke-linejoin="round"/>
    <path d="m340.276 240.863.64 2.114-51.16-4.661" stroke="#263238" stroke-width=".8" stroke-linecap="round" stroke-linejoin="round"/>
    <path d="M254.386 228.441h47.405l-10.702-36.203h-47.397l10.694 36.203v0z" fill="#fff" stroke="#263238" stroke-width=".8" stroke-linecap="round" stroke-linejoin="round"/>
    <path d="M301.791 228.441h-47.405M303.461 331.957l-25.281-28.615v-75.177l-10.21-34.442M278.18 303.342l-24.797 28.131M278.18 305.284v26.189" stroke="#263238" stroke-width="2.4" stroke-linecap="round" stroke-linejoin="round"/>
    <path d="m296.167 227.673-26.735-29.582-10.702 28.615" stroke="#263238" stroke-width=".8" stroke-linecap="round" stroke-linejoin="round"/>
    <path d="M527.821 221.487s-7.299 44.704-7.765 54.472c-1.069 23.297 2.002 54.472 2.002 54.472M478.877 276.235l2.217 54.144M456.755 276.511l-7.739 54.144M488.272 274.018c-.122.642-.211 1.29-.267 1.941-.389 23.711 1.941 54.17 1.941 54.17" stroke="#263238" stroke-width="2.4" stroke-linecap="round" stroke-linejoin="round"/>
    <path d="M499.341 214.843h20.957a7.558 7.558 0 0 1 7.118 5.005v0c.449 1.252.56 2.6.319 3.909l-5.177 28.422h-29.869l6.652-37.336z" fill="#787878" stroke="#263238" stroke-width=".8" stroke-linecap="round" stroke-linejoin="round"/>
    <rect x="451.786" y="266.554" width="70.505" height="11.062" rx="4.256" fill="#787878" stroke="#263238" stroke-width=".8" stroke-linecap="round" stroke-linejoin="round"/>
    <path d="M474.804 191.218s-17.359 1.907-20.318 2.96c-2.959 1.053-4.659 1.907-11.009 5.505-6.35 3.598-13.968 5.712-17.988 8.887-4.021 3.176-9.948 17.361-9.948 17.361l6.773 6.135s-.216.423 4.866-4.867c5.081-5.289 12.7-12.485 16.936-13.969a46.485 46.485 0 0 1 9.49-2.33c.863 0 4.65 2.123 4.65 2.123l-3.528 42.909s9.74 1.726 17.359 2.114c7.618.388 29.42-3.382 29.42-3.382l.638-35.299 18.619 9.741s.863-.863-2.752-11.01c-3.615-10.147-2.321-13.969-5.073-17.99-2.753-4.021-15.246-5.29-17.782-6.558-2.537-1.268-13.804-2.33-15.452-2.33h-4.901z" fill="#263238" stroke="#263238" stroke-width=".8" stroke-linecap="round" stroke-linejoin="round"/>
    <path d="M498.936 224.447a188.14 188.14 0 0 1 4.65 20.113c2.123 11.855 4.443 20.104 4.443 20.104s-4.866 7.619-12.268 12.279c-7.403 4.659-13.123 4.021-13.123 4.021s1.476-12.943 1.726-26.033c.25-13.089-2.33-29-2.33-29s-2.114-1.907-2.114-10.164c0-8.258 7.619-24.16 7.619-24.16" fill="#263238"/>
    <path d="M498.936 224.447a188.14 188.14 0 0 1 4.65 20.113c2.123 11.855 4.443 20.104 4.443 20.104s-4.866 7.619-12.268 12.279c-7.403 4.659-13.123 4.021-13.123 4.021s1.476-12.943 1.726-26.033c.25-13.089-2.33-29-2.33-29s-2.114-1.907-2.114-10.164c0-8.258 7.619-24.16 7.619-24.16" stroke="#263238" stroke-width=".8" stroke-linecap="round" stroke-linejoin="round"/>
    <path d="m429.112 310.438 1.907 7.619a75.5 75.5 0 0 0-7.411 6.558c-2.753 2.968-10.353 4.237-8.041 5.505 2.312 1.268 10.353 2.537 13.545 1.268a29.736 29.736 0 0 0 6.35-3.805l.216 2.753 6.35-2.123s0-4.228-1.277-6.98a21.012 21.012 0 0 0-2.959-4.66l-1.062-4.443-7.618-1.692z" fill="#263238" stroke="#263238" stroke-width=".8" stroke-linecap="round" stroke-linejoin="round"/>
    <path d="M437.55 246.89s-19.895-4.237-23.295-.216c-3.399 4.021 7.006 63.765 7.006 63.765l16.513 3.166-5.746-34.117-2.959-17.999s21.802 7.835 30.059 6.566c8.256-1.268 6.35-16.515 1.475-19.267-4.874-2.753-23.053-1.898-23.053-1.898z" fill="#263238" stroke="#263238" stroke-width=".8" stroke-linecap="round" stroke-linejoin="round"/>
    <path d="M471.672 186.844s2.218 5.738 2.218 9.621c0 3.882-1.665 7.394-.552 8.136 1.113.742 5.728-5.367 9.611-8.508 3.882-3.14 6.108-3.511 6.108-7.584v-9.25s-6.842 4.996-10.914 5.738c-2.22.368-4.391.987-6.471 1.847h0z" fill="#fff" stroke="#263238" stroke-width=".8" stroke-linecap="round" stroke-linejoin="round"/>
    <path d="M464.071 177.732s-.284 3.641-1.725 4.763l-1.355 1.156s4.754 2.244 5.6 2.244c.845 0-.285-7.283-.285-7.283l-2.235-.88z" fill="#263238" stroke="#263238" stroke-width=".8" stroke-linecap="round" stroke-linejoin="round"/>
    <path d="M466.677 160.216s-2.588 4.254-2.588 7.214c0 2.959-1.484 10.725 0 14.426 1.484 3.702 2.036 7.576 5.918 7.576 3.883 0 11.095-2.959 12.761-4.435 1.665-1.475 4.434-7.584 1.475-13.503-2.959-5.92-10.534-11.097-11.829-11.278a56.012 56.012 0 0 0-5.737 0v0z" fill="#fff" stroke="#263238" stroke-width=".8" stroke-linecap="round" stroke-linejoin="round"/>
    <path d="M467.79 171.312a18.69 18.69 0 0 1-2.226 3.512c-.923.923-2.027 2.037.561 2.589 1.141.323 2.328.448 3.511.371M465.944 180.743s1.665.924 4.814.371" stroke="#263238" stroke-width=".8" stroke-linecap="round" stroke-linejoin="round"/>
    <path d="M473.519 172.434c0 .863-.285 1.484-.647 1.484-.363 0-.647-.664-.647-1.484s.293-1.475.647-1.475c.353 0 .647.612.647 1.475zM466.211 171.494c0 .862-.285 1.484-.647 1.484-.362 0-.647-.665-.647-1.484 0-.82.293-1.476.647-1.476.354 0 .647.69.647 1.476z" fill="#263238"/>
    <path d="M465.012 167.43a1.897 1.897 0 0 1 2.588-.371M465.564 174.824a2.68 2.68 0 0 1-3.278 0c-1.666-1.294-2.779-5.177-1.295-6.1s6.98-.371 6.98-.371l4.443.371" stroke="#263238" stroke-width=".8" stroke-linecap="round" stroke-linejoin="round"/>
    <path d="M467.428 169.897s.923-1.665 1.846.363c.923 2.027 1.544 6.635 4.875 6.635a6.641 6.641 0 0 0 5.107-2.442" stroke="#263238" stroke-width=".8" stroke-linecap="round" stroke-linejoin="round"/>
    <path d="M480.361 175.023s-9.241-6.101-12.571-11.468-6.108-8.689-2.036-10.535c4.072-1.847 16.643-4.444 26.262-.371 9.62 4.073 10.543 12.943 10.543 18.862 0 5.919.95 8.3 0 9.776-.949 1.475-4.072 4.806-11.837 4.806a51.898 51.898 0 0 1-12.941-1.475s3.874.008 2.58-9.595z" fill="#263238" stroke="#263238" stroke-width=".8" stroke-linecap="round" stroke-linejoin="round"/>
    <path d="m480.248 218.226-4.383-6.265-3.174 3.616c-6.834-.113-15.073 4.599-20.638 12.244-6.773 9.31-8.999 13.935-8.999 13.935s4.797.56 3.391 3.097c-1.406 2.537-3.675 2.546-18.342 14.401-8.533 6.903-12.769 13.875-13.934 19.846-1.907.095-3.287.19-3.287.19l-.863 3.106.44.587 6.549 8.792a6.794 6.794 0 0 0 1.777 1.199c5.858 4.366 16.781 4.806 30.197-4.633 16.142-11.303 17.824-24.876 17.824-40.96 0 0 1.131-4.512 4.513-5.367 3.382-.854 5.081-.276 5.081-.276a30.934 30.934 0 0 0 6.204-9.879c1.812-4.858 1.76-10.242-2.356-13.633z" fill="#4788D8"/>
    <path opacity=".3" d="m480.248 218.226-4.383-6.265-3.174 3.616c-6.834-.113-15.073 4.599-20.638 12.244-6.773 9.31-8.999 13.935-8.999 13.935s4.797.56 3.391 3.097c-1.406 2.537-3.675 2.546-18.342 14.401-8.533 6.903-12.769 13.875-13.934 19.846-1.907.095-3.287.19-3.287.19l-.863 3.106.44.587 6.549 8.792a6.794 6.794 0 0 0 1.777 1.199c5.858 4.366 16.781 4.806 30.197-4.633 16.142-11.303 17.824-24.876 17.824-40.96 0 0 1.131-4.512 4.513-5.367 3.382-.854 5.081-.276 5.081-.276a30.934 30.934 0 0 0 6.204-9.879c1.812-4.858 1.76-10.242-2.356-13.633z" fill="#000"/>
    <path clip-rule="evenodd" d="m480.248 218.226-4.383-6.265-3.174 3.616c-6.834-.113-15.073 4.599-20.638 12.244-6.773 9.31-8.999 13.935-8.999 13.935s4.797.56 3.391 3.097c-1.406 2.537-3.675 2.546-18.342 14.401-8.533 6.903-12.769 13.875-13.934 19.846-1.907.095-3.287.19-3.287.19l-.863 3.106.44.587 6.549 8.792a6.794 6.794 0 0 0 1.777 1.199c5.858 4.366 16.781 4.806 30.197-4.633 16.142-11.303 17.824-24.876 17.824-40.96 0 0 1.131-4.512 4.513-5.367 3.382-.854 5.081-.276 5.081-.276a30.934 30.934 0 0 0 6.204-9.879c1.812-4.858 1.76-10.242-2.356-13.633z" stroke="#263238" stroke-width=".8"/>
    <path d="M460.836 239.736s1.13-4.521 4.512-5.366c3.382-.846 5.082-.277 5.082-.277a31.06 31.06 0 0 0 6.212-9.888c2.252-5.928 1.726-12.701-5.651-15.531s-18.118 2.148-24.865 11.467-8.999 13.935-8.999 13.935 4.797.561 3.391 3.098c-1.406 2.537-3.667 2.545-18.342 14.401-14.676 11.855-16.652 23.987-12.14 30.76 4.513 6.774 16.988 9.613 33.079-1.673 16.09-11.287 17.721-24.816 17.721-40.926z" fill="#4788D8" stroke="#263238" stroke-width=".8" stroke-linecap="round" stroke-linejoin="round"/>
    <path d="m437.481 245.138 9.413.483-.923 2.175-9.81-.794 1.32-1.864v0z" fill="#fff" stroke="#263238" stroke-width=".8" stroke-linecap="round" stroke-linejoin="round"/>
    <path d="m489.238 186.559 3.598 6.989s4.443-5.928 6.773-7.628c2.329-1.699 4.452 0 8.472-1.898 4.021-1.898 8.248-6.773 5.927-12.494-2.32-5.721-10.586-5.505-12.078-1.053-1.493 4.453 1.268 6.774 3.175 6.558 1.906-.216 3.175-1.907 1.906-3.175 0 0 5.712 1.907 1.484 5.505-2.752 2.329-4.874-.216-9.102 1.725-4.227 1.942-10.155 5.471-10.155 5.471z" fill="#4788D8" stroke="#263238" stroke-width=".8" stroke-linecap="round" stroke-linejoin="round"/>
    <path d="M491.947 187.62s-19.205 17.059-30.317 29.682c-7.964 9.017-13.528 16.507-13.528 16.507l5.832.742 11.673-15.92s7.506-9.828 12.795-14.487c5.289-4.66 15.236-13.124 15.236-13.124l-1.691-3.4z" fill="#263238" stroke="#263238" stroke-width=".8" stroke-linecap="round" stroke-linejoin="round"/>
    <path d="M492.396 188.63s-30.197 23.081-63.931 71.901" stroke="#fff" stroke-width=".5" stroke-linecap="round" stroke-linejoin="round"/>
    <path d="M493.457 189.165s-30.197 23.081-63.931 71.893" stroke="#fff" stroke-width=".5" stroke-linecap="round" stroke-linejoin="round"/>
    <path d="M494.26 189.691s-30.249 23.081-63.94 71.902" stroke="#fff" stroke-width=".5" stroke-linecap="round" stroke-linejoin="round"/>
    <circle cx="500.282" cy="181.27" fill="#263238" stroke="#263238" stroke-width=".8" stroke-linecap="round" stroke-linejoin="round" r="2.304"/>
    <circle cx="495.01" cy="184.894" fill="#263238" stroke="#263238" stroke-width=".8" stroke-linecap="round" stroke-linejoin="round" r="2.304"/>
    <path d="m491.525 186.559 3.597 6.989s4.444-5.928 6.773-7.628c2.33-1.699 4.443 0 8.464-1.898 4.02-1.898 8.257-6.773 5.927-12.494-2.329-5.721-10.577-5.505-12.079-1.053-1.501 4.453 1.269 6.774 3.175 6.558 1.907-.216 3.175-1.907 1.907-3.175 0 0 5.712 1.907 1.475 5.505-2.743 2.329-4.866-.216-9.102 1.725-4.236 1.942-10.137 5.471-10.137 5.471z" fill="#4788D8"/>
    <path opacity=".3" d="m491.525 186.559 3.597 6.989s4.444-5.928 6.773-7.628c2.33-1.699 4.443 0 8.464-1.898 4.02-1.898 8.257-6.773 5.927-12.494-2.329-5.721-10.577-5.505-12.079-1.053-1.501 4.453 1.269 6.774 3.175 6.558 1.907-.216 3.175-1.907 1.907-3.175 0 0 5.712 1.907 1.475 5.505-2.743 2.329-4.866-.216-9.102 1.725-4.236 1.942-10.137 5.471-10.137 5.471z" fill="#000"/>
    <path clip-rule="evenodd" d="m491.525 186.559 3.597 6.989s4.444-5.928 6.773-7.628c2.33-1.699 4.443 0 8.464-1.898 4.02-1.898 8.257-6.773 5.927-12.494-2.329-5.721-10.577-5.505-12.079-1.053-1.501 4.453 1.269 6.774 3.175 6.558 1.907-.216 3.175-1.907 1.907-3.175 0 0 5.712 1.907 1.475 5.505-2.743 2.329-4.866-.216-9.102 1.725-4.236 1.942-10.137 5.471-10.137 5.471z" stroke="#263238" stroke-width=".8"/>
    <path d="M506.209 185.222a2.312 2.312 0 1 1-4.624.018 2.312 2.312 0 0 1 4.624-.018v0zM500.937 188.828a2.313 2.313 0 1 1-4.625.019 2.313 2.313 0 0 1 4.625-.019v0z" fill="#263238" stroke="#263238" stroke-width=".8" stroke-linecap="round" stroke-linejoin="round"/>
    <path d="M454.486 242.653s-3.175-.863-.423-2.753c1.812-1.259 3.598 1.485 1.907 4.444-1.691 2.96-6.35 5.298-5.927 8.258.423 2.959 4.866 1.484 5.711-.863.846-2.347-1.061-2.753-2.113-1.269M440.725 241.169s1.726-1.726.423-1.907c-1.303-.181-3.175 2.545-4.651 5.082-1.475 2.537-2.967 5.298-5.297 5.505-2.329.207-1.475-1.907.423-2.752 1.898-.846 1.725.862.638 1.268" stroke="#263238" stroke-width=".8" stroke-linecap="round" stroke-linejoin="round"/>
    <path d="m434.565 259.202-6.134-1.906s-3.365 5.574-4.211 8.542c-.845 2.968-3.813 8.775-5.504 10.682-1.691 1.907-2.968 10.354-2.968 10.354l1.277.863 5.289-9.103s2.967-7.447 4.029-9.345c1.061-1.898 8.222-10.087 8.222-10.087z" fill="#263238" stroke="#263238" stroke-width=".8" stroke-linecap="round" stroke-linejoin="round"/>
    <path d="m416.809 289.644-12.941 36.878a.716.716 0 0 0 .353.863v0a.718.718 0 0 0 .993-.388l13.899-36.939-2.304-.414z" fill="#fff" stroke="#263238" stroke-width=".8" stroke-linecap="round" stroke-linejoin="round"/>
    <path d="m409.864 302.224-2.787 14.729 1.726.63 8.136-13.944a1.01 1.01 0 0 0-.725-1.501l-5.177-.716a.992.992 0 0 0-1.173.802v0z" fill="#263238" stroke="#263238" stroke-width=".8" stroke-linecap="round" stroke-linejoin="round"/>
    <path d="M491.525 186.559h-2.261" stroke="#263238" stroke-width=".8" stroke-linecap="round" stroke-linejoin="round"/>
    <path d="M493.216 214.075a41.562 41.562 0 0 1-5.712-7.834c-2.114-4.021-6.143-6.135-7.195-6.135-1.053 0-3.814 1.061-5.927 2.329a14.803 14.803 0 0 0-3.598 3.176s-3.598-.639-3.175.63c.423 1.268 3.598.215 5.504 1.725 1.907 1.51 5.496 4.651 7.403 5.505a25.871 25.871 0 0 0 5.72 1.269l5.073 6.35 4.029-5.505-2.122-1.51z" fill="#fff" stroke="#263238" stroke-width=".8" stroke-linecap="round" stroke-linejoin="round"/>
    <path d="m494.277 213.851-8.041 9.491a103.549 103.549 0 0 0 15.443 10.156c8.473 4.444 15.668 6.144 18.205.639 2.536-5.505 2.122-5.721-2.537-10.165-4.659-4.443-23.07-10.121-23.07-10.121z" fill="#263238" stroke="#263238" stroke-width=".8" stroke-linecap="round" stroke-linejoin="round"/>
    <path d="M424.22 225.068s-1.484-4.237-2.968-4.444c-1.484-.207-3.175.863-4.443 2.33-1.268 1.467-5.289 6.773-5.711 7.619a54.781 54.781 0 0 0-2.968 5.496c-.863 2.123-1.476 4.03 0 3.391 1.475-.638 2.968-4.866 2.968-4.866s-.639 3.805-.216 4.651c.423.845 1.061 2.968 2.122 3.606 1.062.639 4.228-1.277 4.228-1.277s1.725 1.062 2.588-1.268 1.053-.63 2.537-5.712.595-5.488 1.863-9.526z" fill="#fff" stroke="#263238" stroke-width=".8" stroke-linecap="round" stroke-linejoin="round"/>
    <path d="M417.232 241.592a19.79 19.79 0 0 0 .423-5.074c0-1.484 1.484-3.598 1.484-3.598M414.273 242.653c.207-.639-1.726-3.391-1.726-5.712 0-2.321 1.268-2.968 1.268-3.814M415.541 233.127s-1.268 2.96-.863 4.237c.406 1.277 1.268 4.866 1.268 4.866" stroke="#263238" stroke-width=".8" stroke-linecap="round" stroke-linejoin="round"/>
    <path d="m418.302 236.544 52.059 4.418" stroke="#263238" stroke-width="1.6" stroke-linecap="round" stroke-linejoin="round"/>
    <path d="m468.454 240.962.639 2.114-51.016-4.66" stroke="#263238" stroke-width=".8" stroke-linecap="round" stroke-linejoin="round"/>
    <path d="M458.714 305.313c-.863 0-2.114 9.742-3.805 12.943-1.691 3.201-3.814 6.35-8.041 8.257-4.228 1.907-7.196 3.176-5.72 4.651 1.475 1.476 16.72.423 17.566.423.845 0 2.752-.207 2.752-.207a8.72 8.72 0 0 0 3.391-.639c1.061-.63 1.061-5.073 1.061-7.619v-3.598l2.321-8.464s-7.196-5.747-9.525-5.747z" fill="#fff" stroke="#263238" stroke-width=".8" stroke-linecap="round" stroke-linejoin="round"/>
    <path d="M457.868 318.428c-1.725-2.321-3.175 1.062-3.175 1.062l-.578.146a15.7 15.7 0 0 1-7.247 6.843c-4.236 1.898-7.196 3.175-5.72 4.651 1.475 1.475 16.72.422 17.566.422.845 0 2.752-.207 2.752-.207a8.7 8.7 0 0 0 3.391-.638c1.061-.63 1.061-5.074 1.061-7.619a50.365 50.365 0 0 0-6.566-.63s.216-1.7-1.484-4.03zM486.02 263.396s2.589-11.01-4.236-15.454c-6.824-4.444-14.814 1.907-16.927 6.774-2.114 4.866-1.907 14.4-3.391 22.865-1.484 8.465-6.557 27.939-6.557 27.939s7.411 4.237 8.464 5.082l4.02 3.176s3.175-8.258 9.741-21.805c6.565-13.546 8.463-23.288 8.886-28.577z" fill="#263238" stroke="#263238" stroke-width=".8" stroke-linecap="round" stroke-linejoin="round"/>
    <path d="M375.75 228.545h47.271l-10.664-36.188h-47.271l10.664 36.188v0z" fill="#fff" stroke="#263238" stroke-width=".8" stroke-linecap="round" stroke-linejoin="round"/>
    <path d="M423.021 228.545h-47.262M424.695 332.018l-25.21-28.603v-75.146l-10.181-34.428M399.485 303.415l-24.727 28.12M399.485 305.356v26.179" stroke="#263238" stroke-width="2.4" stroke-linecap="round" stroke-linejoin="round"/>
    <path d="m417.422 227.777-26.668-29.57-10.664 28.604" stroke="#263238" stroke-width=".8" stroke-linecap="round" stroke-linejoin="round"/>
    <path d="M180.989 309.562s0 12.75.598 14.508c.598 1.759.98 8.431 3.745 10.198 2.766 1.768 4.924 2.354 5.123-1.569.2-3.922-3.944-9.215-4.334-10.344-.39-1.129 2.956-12.75 2.956-12.75l-8.088-.043z" fill="#fff" stroke="#263238" stroke-width=".8" stroke-linecap="round" stroke-linejoin="round"/>
    <path d="M181.553 324.07c.589 1.768.979 8.431 3.744 10.198 2.766 1.768 4.924 2.354 5.124-1.569.199-3.922-3.945-9.215-4.335-10.344 0 0-1.976-1.379-2.765-.397a3.436 3.436 0 0 0-.789 1.966l-1.188-1.06c.03.408.1.812.209 1.206v0z" fill="#263238" stroke="#263238" stroke-width=".8" stroke-linecap="round" stroke-linejoin="round"/>
    <path d="m167.786 309.174 1.734 13.922s-4.924 4.698-7.689 6.466c-2.766 1.767-3.546 2.155-2.956 2.741.589.586 1.378 1.379 5.123.784 3.745-.594 8.287-1.56 9.666-1.957 1.378-.396 3.155.199 3.155-1.767 0-1.965-.398-8.034-.398-8.034l-.98-12.931-7.655.776z" fill="#fff" stroke="#263238" stroke-width=".8" stroke-linecap="round" stroke-linejoin="round"/>
    <path d="M176.854 329.337c0-.862-.078-2.586-.165-4.18l-4.178 1.637a14.173 14.173 0 0 1-1.179-2.939 1.269 1.269 0 0 0-.657-.924 1.283 1.283 0 0 0-1.138-.033v.172s-4.924 4.699-7.689 6.466c-2.765 1.767-3.545 2.155-2.956 2.741.589.586 1.378 1.379 5.123.784 3.745-.594 8.288-1.56 9.666-1.956 1.379-.397 3.173.224 3.173-1.768zM177.14 142.162s-11.157 2.586-14.338 2.371c-3.182-.216-5.574 2.974-6.935 6.534-1.361 3.56-13.741 23.172-13.94 26.335-.199 3.164 2.791 6.138 4.777 6.336 1.985.199 12.509-16.465 12.509-16.465s2.991 12.474 2.991 15.043a36.59 36.59 0 0 1-2.991 12.672c-1.985 4.362-7.36 22.18-7.36 33.266 0 11.086 6.571 38.792 6.935 42.766.364 3.974 4.976 38.611 4.976 38.611a21.141 21.141 0 0 0 6.935 1.983 13.578 13.578 0 0 0 6.172-1.19l-.398-54.645 2.782 54.05a10.356 10.356 0 0 0 6.571 2.776c3.789 0 7.169-2.776 7.169-2.776l5.774-54.05 2.601-36.205s-.2-11.095-3.589-20c-3.39-8.905-5.375-12.068-5.375-14.258 0-2.19 8.365-19.999 8.365-27.128 0-7.13.599-13.069-4.377-14.655-4.976-1.586-12.943-1.586-14.538-1.983-1.595-.396-4.716.612-4.716.612z" fill="#263238" stroke="#263238" stroke-width=".8" stroke-linecap="round" stroke-linejoin="round"/>
    <path d="m163.4 189.687 6.77 1.784-1.621 11.077h1.595l1.197-10.094.589 10.887 1.994-.793-.997-10.689s8.964 1.784 16.731-2.379" stroke="#fff" stroke-width=".8" stroke-linecap="round" stroke-linejoin="round"/>
    <path d="m169.572 213.444 5.175 8.311 1.795 34.059" stroke="#263238" stroke-width=".8" stroke-linecap="round" stroke-linejoin="round"/>
    <path d="M192.467 185.325c0-2.181 8.365-20 8.365-27.129 0-7.129.598-13.068-4.378-14.654-4.976-1.587-12.942-1.587-14.537-1.983-1.595-.397-4.777.595-4.777.595s-11.157 2.586-14.338 2.37c-3.182-.215-5.574 2.974-6.935 6.535-.694 1.767-4.075 7.482-7.334 13.18l6.345 9.681c2.402-3.509 4.335-6.621 4.335-6.621s2.991 12.474 2.991 15.043a26.982 26.982 0 0 1-.547 4.672c3.763 1.724 17.173 6.819 30.974-.508a5.18 5.18 0 0 1-.164-1.181z" fill="#263238" stroke="#263238" stroke-width=".8" stroke-linecap="round" stroke-linejoin="round"/>
    <path d="M150.206 161.282c-3.841 6.647-8.192 14.25-8.314 16.121-.199 3.172 2.792 6.137 4.777 6.336 1.534.155 8.149-9.673 11.105-14.198-1.361-7.138-5.219-8.302-7.568-8.259zM172.155 135.231s1.197 11.681 2.194 15.836c.997 4.155 5.973 5.172 7.568 2.181 1.595-2.991 2.392-19.404 2.392-19.404l-12.154 1.387zM166.382 123.154s-2.384-2.776-3.58 0c-1.197 2.776 1.595 5.172 2.982 6.534 1.387 1.363 2.392.595 2.392-.793 0-1.387-1.794-5.741-1.794-5.741zM187.291 121.766s1.994-2.181 2.792.793c.797 2.974-1.396 5.345-2.991 7.129-1.595 1.785-1.396-1.982-1.396-1.982l1.595-5.94z" fill="#CCC" stroke="#263238" stroke-width=".8" stroke-linecap="round" stroke-linejoin="round"/>
    <path d="M192.467 108.499a3.38 3.38 0 0 0-3.381-3.361h-.087a3.352 3.352 0 0 0 1.369-3.606 3.375 3.375 0 0 0-2.936-2.515 3.385 3.385 0 0 0-3.383 1.879c.037-.17.058-.343.061-.517a3.365 3.365 0 0 0-2.405-3.235 3.39 3.39 0 0 0-3.802 1.373v-.319a3.367 3.367 0 0 0-1.641-3.06 3.406 3.406 0 0 0-3.488 0 3.366 3.366 0 0 0-1.642 3.06v.285a3.347 3.347 0 0 0-2.019-.681 3.38 3.38 0 0 0-3.39 3.362c.003.185.023.37.061.551a3.393 3.393 0 0 0-4.673 1.009 3.35 3.35 0 0 0 1.015 4.646 3.357 3.357 0 0 0-2.756 3.511 3.364 3.364 0 0 0 3.18 3.136 3.348 3.348 0 0 0-.755 3.676 3.38 3.38 0 0 0 3.139 2.082c.73-.001 1.44-.24 2.02-.681a5.37 5.37 0 0 0 2.358.862c2.384.198 4.976 1.388 8.166 1.19 2.835-.173 6.935-3.638 7.802-4.397a3.391 3.391 0 0 0 3.63 1.322 3.368 3.368 0 0 0 2.504-2.928 3.36 3.36 0 0 0-1.895-3.351 3.36 3.36 0 0 0 2.948-3.293z" fill="#263238" stroke="#263238" stroke-width=".8" stroke-linecap="round" stroke-linejoin="round"/>
    <path d="M183.104 107.629c-4.49-2.897-9.622-2.931-13.558.664a24.458 24.458 0 0 0-3.363 3.775c-3.381 4.75.996 15.836 1.794 18.612.798 2.776 6.372 10.491 11.348 8.905 4.976-1.586 6.77-5.742 7.802-11.681 1.031-5.939.797-12.87-.599-16.431a8.399 8.399 0 0 0-3.424-3.844v0z" fill="#CCC" stroke="#263238" stroke-width=".8" stroke-linecap="round" stroke-linejoin="round"/>
    <path d="M169.971 124.171a4.509 4.509 0 0 0 4.577 0M181.717 123.749a4.877 4.877 0 0 0 4.976-.793M178.952 123.749s-.598 1.586.399 1.974c.997.388 1.993 1.586.598 2.379-1.396.793-2.384.793-2.783-.793M168.775 121.585s.797-1.784 5.374-1.388M180.686 119.982a6.81 6.81 0 0 1 5.374.595" stroke="#263238" stroke-width=".8" stroke-linecap="round" stroke-linejoin="round"/>
    <path d="M167.977 113.249a41.08 41.08 0 0 1 6.571-4.155s5.878 5.724 13.073 8.379a21.448 21.448 0 0 0-1.127-6.034 8.406 8.406 0 0 0-3.39-3.845c-4.49-2.896-9.622-2.931-13.558.664a24.466 24.466 0 0 0-3.363 3.776 8.076 8.076 0 0 0-1.249 4.388 9.214 9.214 0 0 1 3.043-3.173z" fill="#263238" stroke="#263238" stroke-width=".8" stroke-linecap="round" stroke-linejoin="round"/>
    <path d="M150.058 180.377c-1.794 2.586-4.178 4.749-6.371 4.155-2.193-.595-5.774-4.552-8.366-7.759-2.592-3.207-9.154-15.042-9.154-15.042s-2.991-7.328-3.39-8.716c-.398-1.388-.997-5.939-.997-5.939s-3.38 0-3.979-.595c-.598-.595 3.39-.595 3.39-.595s-2.601-.396-2.601-1.189 5.574-.587 5.574-.587a11.708 11.708 0 0 1-3.38-1.387c-.997-.794 0-1.19 0-1.19l6.371 1.586a24.993 24.993 0 0 1-2.6-3.172c-.2-.595.598-1.388 2.193 0 1.595 1.388 4.976 3.767 4.976 3.767a15.466 15.466 0 0 0-1.197 4.31c-.199 2.181-.997 5.741-.997 5.741s1.994 7.129 5.575 9.897c3.58 2.767 11.746 8.913 13.54 14.059" fill="#CCC"/>
    <path d="M150.058 180.377c-1.794 2.586-4.178 4.749-6.371 4.155-2.193-.595-5.774-4.552-8.366-7.759-2.592-3.207-9.154-15.042-9.154-15.042s-2.991-7.328-3.39-8.716c-.398-1.388-.997-5.939-.997-5.939s-3.38 0-3.979-.595c-.598-.595 3.39-.595 3.39-.595s-2.601-.396-2.601-1.189 5.574-.587 5.574-.587a11.708 11.708 0 0 1-3.38-1.387c-.997-.794 0-1.19 0-1.19l6.371 1.586a24.993 24.993 0 0 1-2.6-3.172c-.2-.595.598-1.388 2.193 0 1.595 1.388 4.976 3.767 4.976 3.767a15.466 15.466 0 0 0-1.197 4.31c-.199 2.181-.997 5.741-.997 5.741s1.994 7.129 5.575 9.897c3.58 2.767 11.746 8.913 13.54 14.059" stroke="#263238" stroke-width=".8" stroke-linecap="round" stroke-linejoin="round"/>
    <path d="M126.566 155.205s-1.197-2.776-.598-4.56c.598-1.785 2.982-3.561 3.181-4.552.127-.717.194-1.444.199-2.172" stroke="#263238" stroke-width=".8" stroke-linecap="round" stroke-linejoin="round"/>
    <path d="M108.838 149.964a1.272 1.272 0 0 1-1.257-1.124 1.267 1.267 0 0 1 .971-1.376l78.254-18.224a1.277 1.277 0 0 1 1.534.948 1.269 1.269 0 0 1-.953 1.526l-78.254 18.215a1.178 1.178 0 0 1-.295.035v0z" fill="#4788D8" stroke="#263238" stroke-width=".8" stroke-linecap="round" stroke-linejoin="round"/>
    <path d="M115.253 146.291c.052.225-.33.492-.867.595-.538.104-.971 0-1.014-.207-.044-.207.329-.491.867-.603.537-.112.97-.009 1.014.215zM123.35 144.369c0 .224-.339.491-.867.604-.529.112-.971 0-1.015-.216-.043-.215.33-.491.867-.595.538-.103.963-.017 1.015.207zM131.438 142.455c.043.224-.33.492-.867.595-.538.104-.963 0-1.015-.207-.052-.207.33-.491.867-.595.538-.103.971.026 1.015.207zM139.526 140.55c.052.224-.33.492-.867.595-.538.103-.971 0-1.014-.207-.044-.207.329-.491.866-.603.538-.112.971-.018 1.015.215zM147.622 138.619c0 .224-.329.492-.866.604-.538.112-.971 0-1.015-.216-.043-.215.33-.491.867-.595.538-.103.962-.017 1.014.207zM155.711 136.706c.052.224-.33.491-.867.603-.538.112-.971 0-1.023-.216-.052-.215.338-.491.867-.594.528-.104.979-.018 1.023.207z" fill="#fff" stroke="#263238" stroke-width=".5" stroke-linecap="round" stroke-linejoin="round"/>
    <path d="M190.872 146.119s3.589-6.534 9.96-2.371c6.372 4.164 0 13.457-2.991 18.215-2.99 4.759-15.526 14.655-17.719 15.241-2.193.586-31.659-20.585-32.855-21.378-1.196-.793-4.334-2.776-5.574-4.561a15.575 15.575 0 0 1-1.786-3.758s-4.586-1.983-5.981-2.776c-1.396-.793-.989-1.577-.191-1.379.797.198 4.577 1.379 4.577 1.379s-2.601-2.172-3.589-2.965c-.988-.793-.598-1.388.598-1.19.607.09 1.207.223 1.795.397 0 0 3.181-3.561 3.779-3.362a4.5 4.5 0 0 1 1.396 1.181s1.994-1.578 2.601-.983c.607.595.598 1.776 1.196 6.336a21.344 21.344 0 0 0 2.185 7.319s11.547 4.956 16.93 6.896a110.558 110.558 0 0 0 13.133 3.569s11.556-12.276 11.357-11.681" fill="#263238"/>
    <path d="M190.872 146.119s3.589-6.534 9.96-2.371c6.372 4.164 0 13.457-2.991 18.215-2.99 4.759-15.526 14.655-17.719 15.241-2.193.586-31.659-20.585-32.855-21.378-1.196-.793-4.334-2.776-5.574-4.561a15.575 15.575 0 0 1-1.786-3.758s-4.586-1.983-5.981-2.776c-1.396-.793-.989-1.577-.191-1.379.797.198 4.577 1.379 4.577 1.379s-2.601-2.172-3.589-2.965c-.988-.793-.598-1.388.598-1.19.607.09 1.207.223 1.795.397 0 0 3.181-3.561 3.779-3.362a4.5 4.5 0 0 1 1.396 1.181s1.994-1.578 2.601-.983c.607.595.598 1.776 1.196 6.336a21.344 21.344 0 0 0 2.185 7.319s11.547 4.956 16.93 6.896a110.558 110.558 0 0 0 13.133 3.569s11.556-12.276 11.357-11.681" stroke="#263238" stroke-width=".8" stroke-linecap="round" stroke-linejoin="round"/>
    <path d="M197.33 162.705c-4.681-6.828-9.12-8.172-12.05-8.06-3.19 3.327-6.935 7.318-6.935 7.318a110.312 110.312 0 0 1-13.133-3.568c-5.384-1.975-16.931-6.897-16.931-6.897a21.364 21.364 0 0 1-2.184-7.319c-.598-4.56-.598-5.749-1.197-6.336-.598-.586-2.6.983-2.6.983a4.536 4.536 0 0 0-1.396-1.181c-.598-.198-3.78 3.362-3.78 3.362a13.08 13.08 0 0 0-1.794-.396c-1.196-.199-1.586.396-.598 1.189.988.793 3.589 2.966 3.589 2.966s-3.789-1.181-4.577-1.38c-.789-.198-1.197.595.19 1.38 1.387.784 5.982 2.775 5.982 2.775a15.526 15.526 0 0 0 1.786 3.759c1.196 1.784 4.386 3.767 5.574 4.56 1.187.793 30.67 21.974 32.855 21.379 2.184-.595 13.506-9.569 17.199-14.534z" fill="#CCC" stroke="#263238" stroke-width=".8" stroke-linecap="round" stroke-linejoin="round"/>
    <path d="M142.291 138.826s1.196.793 1.994 3.767M138.711 141.171s.598-1.19 1.396 0l.788 1.19.599 1.586a5.297 5.297 0 0 0-4.335-2.974" stroke="#263238" stroke-width=".8" stroke-linecap="round" stroke-linejoin="round"/>
    <path d="M231.026 200.893h-47.497l10.723-36.163h47.497l-10.723 36.163v0z" fill="#fff" stroke="#263238" stroke-width=".8" stroke-linecap="round" stroke-linejoin="round"/>
    <path d="M183.529 200.885h47.497M181.856 331.88l25.33-28.576V200.609l10.23-34.396M207.186 303.304l24.845 28.094M207.186 305.243v26.155" stroke="#263238" stroke-width="2.4" stroke-linecap="round" stroke-linejoin="round"/>
    <path d="m189.164 200.126 26.795-29.551 10.715 28.577" stroke="#263238" stroke-width=".8" stroke-linecap="round" stroke-linejoin="round"/>
    <path d="M78.817 196.935s5.101 32.599 5.101 51.83c0 19.232-4.713 53.066-4.713 57.988v7.988l1.64 2.669v3.273a26.199 26.199 0 0 0 5.533 4.715c3.073 1.839 6.958 3.281 6.958 4.318v2.461H68.562s-.414-4.102-.414-5.942v-3.454s-1.64-2.046-1.433-3.687c.29-1.533.7-3.04 1.226-4.508a17.113 17.113 0 0 1-1.433-3.273c0-.613-.199-17.824-.406-19.257-.207-1.434-3.453-42.004-3.453-42.004l-.768-17.435-2.253.207-8.442 81.175 1.019 3.281-.406 1.84-.207 1.64v1.848c0 1.019.207 9.422.207 9.422H23.314a8.636 8.636 0 0 1 1.226-2.867c.863-1.028 9.011-4.914 10.651-5.734 1.64-.821 2.667-3.454 2.667-3.454s-1.027-1.019-1.027-1.84c0-.82 2.253-3.972 2.253-3.972s-1.027-5.121-1.027-5.941c0-.821-1.433-44.042-1.433-44.042l-2.451-50.812.613-15.544 2.252-3.895a39.136 39.136 0 0 0 18.637 4.715c7.74-.133 15.466-.704 23.142-1.709v0z" fill="#263238" stroke="#263238" stroke-width=".8" stroke-linecap="round" stroke-linejoin="round"/>
    <path d="M66.732 144.482s5.533 19.059 7.579 28.497a21827.41 21827.41 0 0 1 5.524 25.614s-5.118 2.659-14.743 3.454a40.23 40.23 0 0 1-17.609-2.66s4.092-37.496.82-44.041c-3.271-6.546-6.353-11.071-3.686-13.524 2.668-2.452 12.085-1.433 14.13-1.027 2.046.405 7.985 3.687 7.985 3.687z" fill="#fff" stroke="#263238" stroke-width=".8" stroke-linecap="round" stroke-linejoin="round"/>
    <path d="m85.161 203.489 6.241 19.404-8.805 4.508s-7.466-39.724-7.673-44.197c-.207-4.473-4.1-17.496-1.235-13.394 2.866 4.102 11.472 33.679 11.472 33.679z" fill="#C9C9C9" stroke="#263238" stroke-width=".8" stroke-linecap="round" stroke-linejoin="round"/>
    <path d="M66.534 150.423s9.21 29.715 12.896 39.724c3.685 10.009 6.146 13.938 6.146 13.938s-4.912-35.242-5.732-39.957c-.82-4.715 1.019-18.031-.207-20.726-1.226-2.694-14.545-.207-14.545-.207l1.442 7.228zM48.916 140.389s9.012 22.331 9.219 28.497c.207 6.166-2.175 25.043-4.023 32.815-1.847 7.772-4.462 28.498-4.462 28.498s-5.128-1.028-13.725-2.668c-8.597-1.641-14.743-7.988-14.743-7.988l11.808-38.791s-5.179-35.242-5.179-37.289c0-2.047 11.273-6.33 21.105-3.074z" fill="#fff" stroke="#263238" stroke-width=".8" stroke-linecap="round" stroke-linejoin="round"/>
    <path clip-rule="evenodd" d="m50.556 138.541-1.847 2.668 3.453 16.408 6.957-5.743 9.426 4.922-3.453-16.183s-4.704-7.798-14.536-2.072z" stroke="#263238" stroke-width=".8" stroke-linecap="round" stroke-linejoin="round"/>
    <path clip-rule="evenodd" d="m53.215 143.869 6.353 12.495 3.893-14.136-10.246 1.641v0z" stroke="#263238" stroke-width=".8" stroke-linecap="round" stroke-linejoin="round"/>
    <path d="m100.12 155.864-2.78-.069c-2.174-1.304-5.023-1.486-5.869-1.848-1.122-.484-1.441-1.607-2.59-1.123a3.737 3.737 0 0 1-3.521 1.442c-2.59-.164-4.17-2.409-4.17-2.884 0-.475 1.442-2.09.484-2.884-.958-.795-2.59-.484-3.522-1.287a12.175 12.175 0 0 0-6.25-2.591c-3.366-.483-11.376 2.401-15.7 6.572a17.453 17.453 0 0 0-2.78 3.411h-1.545l-.173 3.618s-.164 2.444.07 2.66a4.164 4.164 0 0 0 1.07 2.159c2.4 2.591 5.92.967 7.043 1.77 1.122.803 2.883 1.442 3.367.156.483-1.287 2.883-.959 4.316-1.278 1.13-.26 3.737.578 5.04 1.493l-1.035.104v3.273c-.25.13-.337.337 0 .734.535.56 1.352.75 2.08.484 0 0 3.522 4.007 8.494 4.162 4.972.155 10.893-1.917 14.25-5.13a11.936 11.936 0 0 0 3.523-6.727v-.069c.098-.68.116-1.37.052-2.055l.146-4.093z" fill="#4788D8"/>
    <path opacity=".3" d="m100.12 155.864-2.78-.069c-2.174-1.304-5.023-1.486-5.869-1.848-1.122-.484-1.441-1.607-2.59-1.123a3.737 3.737 0 0 1-3.521 1.442c-2.59-.164-4.17-2.409-4.17-2.884 0-.475 1.442-2.09.484-2.884-.958-.795-2.59-.484-3.522-1.287a12.175 12.175 0 0 0-6.25-2.591c-3.366-.483-11.376 2.401-15.7 6.572a17.453 17.453 0 0 0-2.78 3.411h-1.545l-.173 3.618s-.164 2.444.07 2.66a4.164 4.164 0 0 0 1.07 2.159c2.4 2.591 5.92.967 7.043 1.77 1.122.803 2.883 1.442 3.367.156.483-1.287 2.883-.959 4.316-1.278 1.13-.26 3.737.578 5.04 1.493l-1.035.104v3.273c-.25.13-.337.337 0 .734.535.56 1.352.75 2.08.484 0 0 3.522 4.007 8.494 4.162 4.972.155 10.893-1.917 14.25-5.13a11.936 11.936 0 0 0 3.523-6.727v-.069c.098-.68.116-1.37.052-2.055l.146-4.093z" fill="#000"/>
    <path clip-rule="evenodd" d="m100.12 155.864-2.78-.069c-2.174-1.304-5.023-1.486-5.869-1.848-1.122-.484-1.441-1.607-2.59-1.123a3.737 3.737 0 0 1-3.521 1.442c-2.59-.164-4.17-2.409-4.17-2.884 0-.475 1.442-2.09.484-2.884-.958-.795-2.59-.484-3.522-1.287a12.175 12.175 0 0 0-6.25-2.591c-3.366-.483-11.376 2.401-15.7 6.572a17.453 17.453 0 0 0-2.78 3.411h-1.545l-.173 3.618s-.164 2.444.07 2.66a4.164 4.164 0 0 0 1.07 2.159c2.4 2.591 5.92.967 7.043 1.77 1.122.803 2.883 1.442 3.367.156.483-1.287 2.883-.959 4.316-1.278 1.13-.26 3.737.578 5.04 1.493l-1.035.104v3.273c-.25.13-.337.337 0 .734.535.56 1.352.75 2.08.484 0 0 3.522 4.007 8.494 4.162 4.972.155 10.893-1.917 14.25-5.13a11.936 11.936 0 0 0 3.523-6.727v0-.069c.098-.68.116-1.37.052-2.055l.146-4.093z" stroke="#263238" stroke-width=".8" stroke-linecap="round" stroke-linejoin="round"/>
    <path d="M88.907 148.817a3.737 3.737 0 0 1-3.521 1.442c-2.59-.164-4.17-2.409-4.17-2.884 0-.475 1.442-2.09.484-2.884-.958-.795-2.59-.484-3.522-1.287a12.175 12.175 0 0 0-6.25-2.591c-3.366-.483-11.376 2.41-15.7 6.572-4.325 4.162-5.767 9.318-3.385 11.882 2.383 2.565 5.922.968 7.044 1.728 1.122.759 2.883 1.442 3.367.155.483-1.287 2.883-.959 4.315-1.278 1.433-.32 5.283 1.123 5.766 2.237a1.727 1.727 0 0 1-.483 2.245c-.475.319-2.08.164-1.277 1.122a1.933 1.933 0 0 0 2.08.484s3.522 4.007 8.494 4.162c4.972.156 10.893-1.917 14.25-5.121 3.359-3.203 4.653-8.497 2.729-11.381-1.925-2.885-6.57-3.049-7.691-3.524-1.123-.475-1.407-1.537-2.53-1.079z" fill="#4788D8" stroke="#263238" stroke-width=".8" stroke-linecap="round" stroke-linejoin="round"/>
    <path d="m79.939 150.898-4.808 4.163 41.968 19.559 1.925-2.893-39.085-20.829v0z" fill="#263238" stroke="#263238" stroke-width=".8" stroke-linecap="round" stroke-linejoin="round"/>
    <path d="M119.024 171.736s5.93 3.359 7.372 5.121c1.441 1.762 3.522 4.007 3.522 4.007s.966-1.727 2.244-1.727c2.218 0 5.024 1.019 5.766 3.687.293 1.036.803 3.687-1.925 4.81-2.728 1.123-4.316.639-6.906-1.123-2.589-1.761-7.043-5.768-9.123-7.055a42.006 42.006 0 0 1-3.531-2.401v-2.59l2.581-2.729z" fill="#4788D8" stroke="#263238" stroke-width=".8" stroke-linecap="round" stroke-linejoin="round"/>
    <path d="M129.918 180.864s-1.442 1.286-.803 4.007c.639 2.72 4.005 3.532 6.094 2.409 2.089-1.123.958-3.325-.967-3.851-1.208-.329-2.719-.959-3.358.483-.638 1.442 1.278 2.884 3.039 2.591 1.761-.294.164-1.123-.639-1.287M117.108 174.62s4.48 2.081 7.043 5.121a50.63 50.63 0 0 0 4.964 5.13" stroke="#263238" stroke-width=".8" stroke-linecap="round" stroke-linejoin="round"/>
    <path d="m68.994 147.435-3.246 3.567-8.097-4.378 1.46-1.296 9.883 2.107v0z" fill="#263238" stroke="#263238" stroke-width=".8" stroke-linecap="round" stroke-linejoin="round"/>
    <path d="M73.69 155.864s-.32 1.951-1.943 1.951-5.179-2.435-7.294-1.787c-2.114.647-.319 1.943.812 1.943M79.853 150.19a1.236 1.236 0 0 0-.648-1.779c-1.303-.492-4.704-1.623-3.081-3.247 1.622-1.623 3.081 1.14 3.081 1.14M63.28 165v-2.996" stroke="#263238" stroke-width=".8" stroke-linecap="round" stroke-linejoin="round"/>
    <path d="M80.863 106.58c.414-7.374-6.958-6.554-13.31-4.093-1.498.581-3.06.978-4.653 1.183a31.938 31.938 0 0 0-4.765-.371c-.57 0-1.13 0-1.727.052l-.155-.052.07.06c-8.003.441-14.442 3.739-15.02 5.268-.579 1.528 1.234 6.762 1.64 9.836a41.697 41.697 0 0 0 2.866 9.223c.612 1.226 2.667 3.894 4.505 1.641 1.839-2.254 1.433-5.743 5.326-7.583 3.893-1.839 12.74 1.019 12.74 1.019l4.317 1.641a16.324 16.324 0 0 1 1.64-6.554c.273-.543.584-1.065.932-1.563a11.937 11.937 0 0 0 5.594-9.707z" fill="#263238" stroke="#263238" stroke-width=".8" stroke-linecap="round" stroke-linejoin="round"/>
    <path d="M70.22 119.076c-3.039-2.314-10.1-3.782-13.725-3.687a71.466 71.466 0 0 0-8.4-2.254l6.354 3.704a4.742 4.742 0 0 1-2.253 4.491 12.244 12.244 0 0 1-4.532 1.848s1.226 4.093.406 4.508a.865.865 0 0 1-1.226-.415s-.388-3.886-2.632-3.091c-2.245.794-2.046 5.941-1.019 7.383 1.027 1.442 4.704.199 4.704.199s.622 6.761 3.28 10.863c2.66 4.102 7.623 5 10.86 3.273 6.137-3.273 6.758-10.242 6.758-10.242a6.182 6.182 0 0 0 3.686-5.734c.216-4.49 2.037-7.564-2.262-10.846z" fill="#fff" stroke="#263238" stroke-width=".8" stroke-linecap="round" stroke-linejoin="round"/>
    <path d="M63.66 130.345s.862 3.895-.614 4.715c-1.476.821-4.505.406-4.505-1.848M54.449 128.092s1.64 1.848 4.704 0M65.3 128.705s1.64 2.055 4.712.82" stroke="#263238" stroke-width=".8" stroke-linecap="round" stroke-linejoin="round"/>
    <path d="M61.208 125.838a9.488 9.488 0 0 0-7.579-.613M64.48 126.658a5.764 5.764 0 0 1 7.172.415" stroke="#263238" stroke-width="1.2" stroke-linecap="round" stroke-linejoin="round"/>
    <path d="M63.875 138.256a8.226 8.226 0 0 1-8.209-3.765" stroke="#263238" stroke-width=".8" stroke-linecap="round" stroke-linejoin="round"/>
    <path d="M42.77 141.822s-8.39-5.941-12.896-4.508c-4.506 1.434-8.399 15.545-12.292 24.586-3.893 9.041 1.027 12.703 5.119 12.703 4.091 0 9.832-3.687 12.085-6.969 2.252-3.281 7.164-17.003 7.164-17.003" fill="#fff"/>
    <path d="M42.77 141.822s-8.39-5.941-12.896-4.508c-4.506 1.434-8.399 15.545-12.292 24.586-3.893 9.041 1.027 12.703 5.119 12.703 4.091 0 9.832-3.687 12.085-6.969 2.252-3.281 7.164-17.003 7.164-17.003" stroke="#263238" stroke-width=".8" stroke-linecap="round" stroke-linejoin="round"/>
    <path d="m93.974 194.266 3.065-11.882-6.345 2.668 3.28 9.214v0z" fill="#fff" stroke="#263238" stroke-width=".8" stroke-linecap="round" stroke-linejoin="round"/>
    <path d="M91.929 186.693s8.631-4.922 11.877-6.762c3.246-1.839 7.985-4.318 8.632-6.969.647-2.651 1.027-5.527.414-6.554-.613-1.028-1.64-1.641-2.667-.613l-1.019 1.019a1.725 1.725 0 0 0-1.847-1.227 2.298 2.298 0 0 0-1.847 1.227s.207-1.632-1.226-1.632a3.062 3.062 0 0 0-2.253 1.019s.415-2.867-.863-3.075c-1.277-.207-2.46 0-2.658 2.056a25.636 25.636 0 0 1-2.46 7.987c-1.226 2.254-1.64 6.149-1.64 6.149l-5.12 2.254s-.396 4.706 2.677 5.121z" fill="#fff" stroke="#263238" stroke-width=".8" stroke-linecap="round" stroke-linejoin="round"/>
    <path d="M109.132 166.814s.811 2.668.406 4.317a5.565 5.565 0 0 1-1.226 2.453M105.437 166.814a9.214 9.214 0 0 1-.612 4.715M101.959 166.2a8.384 8.384 0 0 1 0 4.318" stroke="#263238" stroke-width=".8" stroke-linecap="round" stroke-linejoin="round"/>
    <path d="m91.722 179.724 2.252 14.542-9.072 4.111-2.304-16.771 9.124-1.882v0z" fill="#fff" stroke="#263238" stroke-width=".8" stroke-linecap="round" stroke-linejoin="round"/>
    <path d="m102.131 103.981-21.916 52.315" stroke="#263238" stroke-width=".8" stroke-linecap="round" stroke-linejoin="round"/>
    <path d="m75.52 160.363 24.108-57.954 1.571 1.572" stroke="#263238" stroke-width="1.6" stroke-linecap="round" stroke-linejoin="round"/>
    <path d="M57.928 156.365s18.023-4.508 19.853-4.318c1.83.19 2.874 1.64 4.506 3.687 1.631 2.047-.812 4.102-.812 4.102s1.019 1.839-1.441 2.867a17.572 17.572 0 0 1-4.705 1.226l.406-2.452s-7.371 2.867-9.417 3.065c-2.046.199-4.1-1.632-4.1-1.632h-3.073l-1.217-6.545z" fill="#fff" stroke="#263238" stroke-width=".8" stroke-linecap="round" stroke-linejoin="round"/>
    <path d="m78.817 155.959 2.667 3.894" stroke="#263238" stroke-width=".8" stroke-linecap="round" stroke-linejoin="round"/>
    <path d="M17.582 161.9s-5.119 9.421-2.46 14.551c2.659 5.13 45.266-11.477 45.266-11.477l-.82-9.628-34.821 4.317" fill="#fff"/>
    <path d="M17.582 161.9s-5.119 9.421-2.46 14.551c2.659 5.13 45.266-11.477 45.266-11.477l-.82-9.628-34.821 4.317" stroke="#263238" stroke-width=".8" stroke-linecap="round" stroke-linejoin="round"/>
    <path d="M116.4 201.036H69.106l10.669-36.226h47.294L116.4 201.036v0z" fill="#fff" stroke="#263238" stroke-width=".8" stroke-linecap="round" stroke-linejoin="round"/>
    <path d="M69.106 201.028H116.4M67.44 332.254l25.222-28.627V200.752l10.186-34.456M92.662 303.627l24.739 28.144M92.662 305.57v26.201" stroke="#263238" stroke-width="2.4" stroke-linecap="round" stroke-linejoin="round"/>
    <path d="m74.717 200.268 26.672-29.603 10.669 28.627" stroke="#263238" stroke-width=".8" stroke-linecap="round" stroke-linejoin="round"/>
    <path d="M296.991 69.115a11.388 11.388 0 0 0-7.241 4.302c-2.752 3.786-4.48 7.58-6.544 9.998-2.064 2.417-5.349 2.762-4.653 4.302.697 1.54 4.3 2.58 4.3 2.58s-.524 9.998-.172 12.046c.353 2.048 2.752.861 3.956.861 1.204 0 7.413-1.721 7.413-1.721l1.213 9.146 17.199-6.023-2.073-7.589s5.16-6.72 5.693-12.587c.534-5.868 0-10.686-5.349-13.766s-13.742-1.549-13.742-1.549z" fill="#fff" stroke="#263238" stroke-width=".8" stroke-linecap="round" stroke-linejoin="round"/>
    <path d="M306.7 71.92s-11.033.525-9.804 3.502c1.23 2.977 2.804 7.227 2.804 8.088 0 .86-4.377 5.428-3.328 6.125 1.049.697 5.426-2.977 7-2.977 1.574 0 .525 9.809 2.098 10.325 1.574.516 5.083-.172 5.607-.353.525-.18 4.55-7.356 7.353-14.007 2.804-6.65 1.72-12.26-1.72-14.54-3.44-2.28-18.558-1.05-25.034-1.72-6.475-.672-15.049-7.538-14-.354 1.049 7.185 7.172 8.604 12.779 6.832 5.607-1.773 16.245-.92 16.245-.92z" fill="#263238" stroke="#263238" stroke-width=".8" stroke-linecap="round" stroke-linejoin="round"/>
    <path d="m290.094 79.457-1.032 2.581s.688 1.549 5.16 1.033M289.578 83.423s.688.86 4.481.345" stroke="#263238" stroke-width=".8" stroke-linecap="round" stroke-linejoin="round"/>
    <path d="M290.464 75.947s3.44-1.334 5.16 3.054" stroke="#263238" stroke-width="1.6" stroke-linecap="round" stroke-linejoin="round"/>
    <path d="m287.858 290.155-7.817 5.464c-3.715 2.581-12.151 5.214-12.151 5.954 0 .74.129 1.72.997 1.72h19.092c.619 0 2.734-1.118 3.104-1.239a7.24 7.24 0 0 1 1.858-.249c.619 0 .748 1.359.748 1.359h8.677c.525-1.428.779-2.943.748-4.465a49.184 49.184 0 0 0-.378-5.584l-14.878-2.96z" fill="#787878" stroke="#263238" stroke-width=".8" stroke-linecap="round" stroke-linejoin="round"/>
    <path d="M291.332 234.756s-1.616 28.134-1.616 36.574c0 8.441-.559 11.254-.559 11.254s-2.537 1.411-2.537 3.381c0 1.971-.284 4.5-.284 4.5s1.41 2.254 6.476 3.657a56.77 56.77 0 0 0 10.689 1.721s3.096-1.971 3.939-7.882c.842-5.91-.568-16.347-1.72-24.486-1.153-8.139-10.199-34.32-10.199-34.32s-3.905 2.219-4.189 5.601z" fill="#263238" stroke="#263238" stroke-width=".8" stroke-linecap="round" stroke-linejoin="round"/>
    <path d="M302.091 293.003s-5.908 4.216-9.004 5.343a82.8 82.8 0 0 0-7.869 3.657s0 1.411 1.118 1.411h18.008s2.528.559 3.371-.284a4.827 4.827 0 0 1 1.72-1.127h1.72v1.721h8.72a28.834 28.834 0 0 0-.284-3.666 21.226 21.226 0 0 0-1.402-4.499l-16.098-2.556z" fill="#787878" stroke="#263238" stroke-width=".8" stroke-linecap="round" stroke-linejoin="round"/>
    <path d="M278.717 155.824s-2.245 1.257-8.359.499c-6.115-.757-8.488-1.996-8.858-.998-.37.998-2.373 7.374-2.502 8.492-.129 1.119 2.752 1.626 3.25 1.626.499 0-.748 2.375.86 2.126 1.608-.25 5.496-.628 6.493-1.127a17.577 17.577 0 0 0 2.872-2.375l6.88-1.867-.636-6.376z" fill="#fff" stroke="#263238" stroke-width=".8" stroke-linecap="round" stroke-linejoin="round"/>
    <path d="M266.987 159.223s-1.72 3.373-2.374 4.25a11.33 11.33 0 0 1-2.365 1.996M265.241 161.821l-2.124-.877" stroke="#263238" stroke-width=".8" stroke-linecap="round" stroke-linejoin="round"/>
    <path d="M278.39 166.966s1.41 23.919 3.096 38.554c1.685 14.635 7.31 26.422 10.13 33.718 2.821 7.296 10.191 37.702 10.758 41.643.339 2.139.434 4.309.284 6.47a2.76 2.76 0 0 0-1.969 2.538 20.53 20.53 0 0 0 .559 4.216s5.908 1.72 9.563 2.254c2.797.363 5.615.549 8.436.559a103.6 103.6 0 0 0 1.127-10.411c.207-3.855.02-7.721-.559-11.537-.284-1.721-4.008-30.38-7.104-38.261a88.34 88.34 0 0 1-6.191-23.644c-1.127-9.283 7.877-27.299 5.065-38.269-2.812-10.97-6.751-14.627-6.751-14.627l-26.16.56-.284 6.237z" fill="#263238" stroke="#263238" stroke-width=".8" stroke-linecap="round" stroke-linejoin="round"/>
    <path d="M303.441 238.077c-5.848-24.891-9.718-57.973-9.761-58.3l-3.354.388c.043.335 3.939 33.597 9.83 58.686 2.141 9.111 4.059 17.259 5.882 22.877 3.087 9.465 4.824 22.276 4.859 34.665 1.083.155 2.261.275 3.379.353 0-13.173-1.926-26.543-5.03-36.067-1.806-5.55-3.698-13.629-5.805-22.602z" fill="#787878" stroke="#263238" stroke-width=".8" stroke-linecap="round" stroke-linejoin="round"/>
    <path d="m276.765 155.781 1.221 13.138s4.902 2.28 8.935 1.05a25.685 25.685 0 0 0 5.426-2.099v-13.276s-11.386 3.502-15.582 1.187z" fill="#fff" stroke="#263238" stroke-width=".8" stroke-linecap="round" stroke-linejoin="round"/>
    <path d="M295.323 111.506s-9.985 7.529-12.779 15.41c-2.795 7.881-6.304 24.873-6.829 28.022-.524 3.149 2.099 2.633 6.476 4.035 4.377 1.403 5.951-1.927 11.558-18.567 5.607-16.639 9.976-21.896 9.46-25.045-.516-3.149-2.46-6.832-7.886-3.855z" fill="#fff" stroke="#263238" stroke-width=".8" stroke-linecap="round" stroke-linejoin="round"/>
    <path d="m311.817 101.526-17.758 8.277.688 3.45 18.102-9.309-1.032-2.418v0z" fill="#fff" stroke="#263238" stroke-width=".8" stroke-linecap="round" stroke-linejoin="round"/>
    <path d="M312.161 102.911s-17.062 9.653-19.134 12.432c-2.073 2.78-7.585 12.76-10.32 24.487-2.735 11.727-.353 31.206 2.58 37.762 2.932 6.556 21.37 35.172 23.959 42.072 2.588 6.901 5.856 20.521 5.856 20.521s4.48-26.905 3.792-45.351c-.688-18.447-10.164-33.452-10.164-33.452s12.039-26.904 10.852-38.106c-1.186-11.202-7.421-20.365-7.421-20.365z" fill="#263238" stroke="#263238" stroke-width=".8" stroke-linecap="round" stroke-linejoin="round"/>
    <path d="m229.26 114.113-38.071 17.638" stroke="#263238" stroke-width=".8" stroke-linecap="round" stroke-linejoin="round"/>
    <path d="M254.638 108.082s-6.02-4.655-7.929-5.687c-1.909-1.033-5.693-.861-6.725.344s-7.069 4.655-8.961 5.162c-1.892.508-4.481 1.377-4.481 2.237 0 .861-.172 4.139-.172 4.139l3.793 2.073 6.02 1.549s2.932-2.065 3.276-2.753c.344-.689-.344-1.902-.344-1.902a20.348 20.348 0 0 0 2.761-2.753c.545-.764 1.18-1.46 1.892-2.073l7.413 5.859 3.457-6.195z" fill="#fff" stroke="#263238" stroke-width=".8" stroke-linecap="round" stroke-linejoin="round"/>
    <path d="M230.12 116.359a3.039 3.039 0 0 1 .344-1.902c.516-.688 2.408-3.957 2.408-3.957M231.324 112.564h-1.892M239.081 113.253a19.184 19.184 0 0 1-2.58 2.073M234.256 111.704s-2.932 3.442-1.9 4.827M236.32 112.392s-2.236 1.721-2.064 3.106c.172 1.386 1.892 2.409 1.892 2.409" stroke="#263238" stroke-width=".8" stroke-linecap="round" stroke-linejoin="round"/>
    <path d="M308.712 110.5c-2.853-.447-5.773.1-8.272 1.548-3.965 2.409-9.133 14.627-9.133 14.627l-37.529-20.142-5.693 8.449s36.54 26.724 38.088 27.756c1.548 1.032 6.381 4.483 10.173 2.762 3.793-1.721 17.922-20.864 17.922-20.864" fill="#263238"/>
    <path d="M308.712 110.5c-2.853-.447-5.773.1-8.272 1.548-3.965 2.409-9.133 14.627-9.133 14.627l-37.529-20.142-5.693 8.449s36.54 26.724 38.088 27.756c1.548 1.032 6.381 4.483 10.173 2.762 3.793-1.721 17.922-20.864 17.922-20.864" stroke="#263238" stroke-width=".8" stroke-linecap="round" stroke-linejoin="round"/>
    <path d="M300.379 89.102s2.993-5.094 5.272-3.347c2.279 1.747 1.926 6.307-.86 8.604-2.786 2.297-6.304-1.927-6.304-1.927" fill="#fff"/>
    <path d="M300.379 89.102s2.993-5.094 5.272-3.347c2.279 1.747 1.926 6.307-.86 8.604-2.786 2.297-6.304-1.927-6.304-1.927" stroke="#263238" stroke-width=".8" stroke-linecap="round" stroke-linejoin="round"/>
    <path d="M294.618 113.778s-3.853-4.552-4.55-2.452c-.696 2.099-3.147 5.962-1.221 5.962 1.926 0 5.771-3.51 5.771-3.51z" fill="#263238" stroke="#263238" stroke-width=".8" stroke-linecap="round" stroke-linejoin="round"/>
    <path fill="#4788D8" stroke="#263238" stroke-width=".8" stroke-linecap="round" stroke-linejoin="round" d="M248.962 303.328h99.688v27.851h-99.688z"/>
</svg>
