<svg width="280" height="240" fill="none" xmlns="http://www.w3.org/2000/svg">
    <path d="M247.604 44.68S230.61 6.583 193.08.939c-37.53-5.644-63.73 21.872-91.346 35.982-14.467 7.394-30.987 4.522-46.339 8.1C6.302 56.441-12.187 128.108 8.264 168.851c17.702 35.277 48.86 53.62 96.302 57.853 47.444 4.233 80.725 9.172 123.211-25.399 42.487-34.57 39.654-106.533 19.827-156.625z" fill="#4788D8"/>
    <path opacity=".7" d="M247.604 44.68S230.61 6.583 193.08.939c-37.53-5.644-63.73 21.872-91.346 35.982-14.467 7.394-30.987 4.522-46.339 8.1C6.302 56.441-12.187 128.108 8.264 168.851c17.702 35.277 48.86 53.62 96.302 57.853 47.444 4.233 80.725 9.172 123.211-25.399 42.487-34.57 39.654-106.533 19.827-156.625z" fill="#fff"/>
    <path d="M267.957 96.889h-25.03a.355.355 0 0 1-.354-.355v-6.155a.355.355 0 1 1 .709 0v5.8h24.675a.355.355 0 0 1 0 .71zM255.205 105.407h-15.586a.354.354 0 0 1 0-.71h15.231v-6.743a.355.355 0 0 1 .709 0v7.098a.355.355 0 0 1-.354.355zM263.706 113.451h-20.311a.354.354 0 0 1-.354-.355v-5.68a.353.353 0 1 1 .708 0v5.325h19.957a.355.355 0 0 1 0 .71zM273.149 105.876h-11.335a.355.355 0 0 1-.354-.355.362.362 0 0 1 .354-.355h11.335a.355.355 0 0 1 0 .71zM255.205 124.333a.355.355 0 0 1-.355-.355v-8.043a.355.355 0 0 1 .709 0v8.043a.355.355 0 0 1-.354.355zM270.79 95.937a.355.355 0 0 1-.354-.355v-6.147a.355.355 0 1 1 .708 0v6.147a.354.354 0 0 1-.354.355zM256.147 87.894a.354.354 0 0 1-.354-.355v-6.623a.354.354 0 1 1 .708 0v6.623a.355.355 0 0 1-.354.355zM279.292 88.838h-14.644a.355.355 0 0 1-.354-.354.362.362 0 0 1 .354-.355h14.644a.355.355 0 0 1 0 .71zM245.286 29.683h-20.311a.355.355 0 0 1 0-.71h20.311a.355.355 0 1 1 0 .71zM232.534 38.202h-8.501a.355.355 0 0 1 0-.71h8.147v-6.744a.355.355 0 1 1 .709 0v7.098a.355.355 0 0 1-.355.356zM241.036 46.245h-17.003a.355.355 0 0 1 0-.71h17.003a.355.355 0 0 1 0 .71zM250.479 38.677h-11.335a.362.362 0 0 1-.354-.355c0-.196.159-.355.354-.355h11.335a.355.355 0 1 1 0 .71zM232.535 57.134a.355.355 0 0 1-.355-.355v-8.05a.355.355 0 0 1 .709 0v8.05a.355.355 0 0 1-.354.355zM248.12 28.738a.355.355 0 0 1-.354-.354v-6.155a.355.355 0 1 1 .708 0v6.155a.354.354 0 0 1-.354.354zM233.477 20.688a.354.354 0 0 1-.354-.355V13.71a.354.354 0 1 1 .708 0v6.623a.355.355 0 0 1-.354.355zM256.621 21.64h-14.643a.362.362 0 0 1-.354-.355c0-.197.158-.355.354-.355h14.643a.355.355 0 1 1 0 .71zM57.316 158.884H32.28a.355.355 0 0 1-.355-.355v-6.155a.362.362 0 0 1 .355-.355c.195 0 .354.159.354.355v5.8h24.682a.355.355 0 0 1 0 .71zM44.564 167.403H28.98a.355.355 0 0 1 0-.71h15.23v-6.744a.355.355 0 1 1 .71 0v7.099a.355.355 0 0 1-.355.355zM53.066 175.446H32.754a.355.355 0 0 1-.354-.355v-5.679a.355.355 0 1 1 .709 0v5.324h19.956c.195.004.35.161.355.355a.356.356 0 0 1-.355.355zM62.509 167.878H51.174a.355.355 0 0 1 0-.71h11.335a.355.355 0 0 1 0 .71zM44.564 186.336a.355.355 0 0 1-.354-.355v-8.05c0-.197.159-.355.354-.355a.36.36 0 0 1 .354.355v8.05a.362.362 0 0 1-.354.355zM60.15 157.94a.355.355 0 0 1-.354-.355v-6.155a.355.355 0 1 1 .708 0v6.155a.362.362 0 0 1-.354.355zM45.506 149.89a.355.355 0 0 1-.354-.355v-6.624a.355.355 0 1 1 .709 0v6.624a.355.355 0 0 1-.355.355zM63.926 150.841h-9.918a.355.355 0 0 1 0-.71h9.918a.355.355 0 0 1 0 .71zM31.812 96.889H6.776a.362.362 0 0 1-.354-.355v-6.155a.355.355 0 1 1 .708 0v5.8h24.682c.196 0 .354.159.354.355a.362.362 0 0 1-.354.355zM19.06 105.407H3.475a.355.355 0 0 1 0-.71h15.231v-6.743a.355.355 0 1 1 .709 0v7.098a.36.36 0 0 1-.355.355zM27.562 113.451H7.25a.355.355 0 0 1-.355-.355v-5.68a.354.354 0 1 1 .709 0v5.325h19.957a.355.355 0 0 1 0 .71zM37.005 105.876H25.67a.355.355 0 0 1 0-.71h11.335a.355.355 0 0 1 0 .71zM19.06 124.333a.355.355 0 0 1-.354-.355v-8.043a.355.355 0 1 1 .709 0v8.043a.355.355 0 0 1-.355.355zM34.646 95.937a.355.355 0 0 1-.354-.355v-6.147a.355.355 0 1 1 .708 0v6.147a.355.355 0 0 1-.354.355zM20.003 87.894a.355.355 0 0 1-.355-.355v-6.623a.355.355 0 1 1 .709 0v6.623a.355.355 0 0 1-.354.355zM43.147 88.838H28.504a.355.355 0 0 1 0-.71h14.643c.194.004.35.161.355.356a.355.355 0 0 1-.355.354zM62.984 52.4H37.947a.355.355 0 0 1-.354-.356V45.89a.362.362 0 0 1 .354-.355c.196 0 .355.159.355.355v5.8h24.682a.355.355 0 0 1 0 .71zM50.232 60.918H34.646a.355.355 0 0 1 0-.71h15.231v-6.744a.355.355 0 1 1 .709 0v7.1a.356.356 0 0 1-.354.354zM58.733 68.961H38.422a.355.355 0 0 1-.354-.355v-5.679a.355.355 0 1 1 .708 0v5.324h19.957c.194.004.35.16.354.355a.356.356 0 0 1-.354.355zM63.451 61.394h-6.61a.355.355 0 0 1 0-.71h6.61a.355.355 0 0 1 0 .71zM50.232 79.851a.355.355 0 0 1-.355-.355v-8.05c0-.196.159-.355.355-.355.194.004.35.16.354.355v8.05a.362.362 0 0 1-.354.355zM51.174 43.405a.355.355 0 0 1-.354-.355v-6.623a.355.355 0 1 1 .708 0v6.623a.355.355 0 0 1-.354.355zM62.509 44.356h-2.834a.355.355 0 0 1 0-.71h2.834a.355.355 0 0 1 0 .71zM261.347 178.285h-25.036a.354.354 0 0 1-.355-.354v-6.148a.355.355 0 0 1 .709 0v5.793h24.682a.36.36 0 0 1 .354.355.354.354 0 0 1-.354.354zM248.595 186.804h-15.586a.354.354 0 0 1 0-.71h15.232v-6.744c0-.196.158-.355.354-.355.194.004.35.161.354.355v7.099a.355.355 0 0 1-.354.355zM257.096 194.855h-20.311a.354.354 0 0 1-.354-.355v-5.68a.354.354 0 1 1 .708 0v5.325h19.957c.196 0 .354.159.354.355a.361.361 0 0 1-.354.355zM266.54 187.28h-11.335a.355.355 0 0 1 0-.71h11.335a.355.355 0 0 1 0 .71zM248.595 205.737a.354.354 0 0 1-.354-.355v-8.043a.354.354 0 1 1 .708 0v8.043a.355.355 0 0 1-.354.355zM264.181 177.341a.355.355 0 0 1-.355-.355v-6.154c0-.197.159-.355.355-.355a.36.36 0 0 1 .354.355v6.154a.355.355 0 0 1-.354.355zM249.537 169.298a.354.354 0 0 1-.354-.355v-6.63a.354.354 0 1 1 .708 0v6.63a.354.354 0 0 1-.354.355zM272.682 170.242h-14.644a.355.355 0 0 1 0-.71h14.644a.355.355 0 0 1 0 .71zM65.109 20.099h155.382v200.425H65.109z" fill="#263238"/>
    <g opacity=".5" fill="#fff">
        <path d="M221.412 131.271V118.28l-121.124 98.309 3.115 3.811h8.184l109.825-89.129zM140.959 20.417h-15.998l-61.874 50.22v12.984l77.872-63.204zM63.087 37.99v25.167l52.659-42.74h-31L63.086 37.99zM221.412 197.826v-54.549L126.383 220.4h67.213l27.816-22.574z"/>
    </g>
    <path fill-rule="evenodd" clip-rule="evenodd" d="M221.333 19H64.51a1.42 1.42 0 0 0-1.423 1.417v191.25a1.42 1.42 0 0 0 1.422 1.416h156.824a1.42 1.42 0 0 0 1.423-1.416V20.417A1.42 1.42 0 0 0 221.333 19zm-1.422 148.998H147.7V21.833h72.211v146.165zm-77.665 0V21.833H65.931v146.165h76.315zm-76.315 2.833h76.315v39.419H65.931v-39.419zm81.769 0v39.419h72.211v-39.419H147.7z" fill="#fff"/>
    <path fill="#263238" d="M51.853 219.827h185.67v19.812H51.853z"/>
    <path fill="#4788D8" d="M51.853 213.055h185.67v19.812H51.853z"/>
    <path fill-rule="evenodd" clip-rule="evenodd" d="M51.86 233.221h185.664a.354.354 0 0 0 .355-.304v-19.834a.355.355 0 0 0-.355-.354H51.86a.355.355 0 0 0-.355.354v19.784c0 .196.159.354.355.354zm185.308-.708H52.216v-19.125h184.952v19.125z" fill="#263238"/>
    <path d="M62.085 216.866H51.93a.355.355 0 1 1 0-.709h10.154a.355.355 0 1 1 0 .709zM65.86 219.458H54.768a.354.354 0 1 1 0-.708H65.86a.354.354 0 1 1 0 .708zM67.752 228.39H55.977a.354.354 0 1 1 0-.708H67.78a.354.354 0 1 1 0 .708h-.028zM70.112 226.542H55.003a.355.355 0 1 1 0-.709h15.11c.194.004.351.16.355.354 0 .196-.16.355-.356.355zM61.14 230.275h-4.978a.355.355 0 1 1 0-.709h4.977a.355.355 0 1 1 0 .709zM68.221 223.22h-8.262a.363.363 0 0 1-.356-.355c0-.195.16-.354.356-.354h8.262a.355.355 0 1 1 0 .709zM61.14 221.102H57.4a.355.355 0 1 1 0-.709h3.775a.355.355 0 1 1-.036.709zM70.112 216.157h-3.555a.354.354 0 1 1 0-.708h3.555c.195.004.352.16.356.354 0 .196-.16.354-.356.354z" fill="#263238"/>
    <path fill="#4788D8" d="M70.674 213.055h166.857v19.812H70.674z"/>
    <path fill-rule="evenodd" clip-rule="evenodd" d="M70.674 233.221h166.849a.354.354 0 0 0 .356-.304v-19.834a.355.355 0 0 0-.356-.354H70.674a.355.355 0 0 0-.356.354v19.784c0 .196.16.354.356.354zm166.494-.708H71.029v-19.125h166.139v19.125z" fill="#263238"/>
    <path d="M80.444 219.295H71.2a.354.354 0 0 1-.355-.354.362.362 0 0 1 .355-.354h9.244c.194.004.351.16.355.354 0 .196-.16.354-.355.354zM77.607 222.122h-6.954a.355.355 0 1 1 0-.709h6.954a.355.355 0 1 1 0 .709zM237.097 224.176h-17.776a.355.355 0 1 1 0-.708h17.776c.196 0 .356.158.356.354 0 .195-.16.354-.356.354zM223.182 226.23h-4.636a.355.355 0 1 1 0-.708h4.636c.196 0 .356.158.356.354 0 .195-.16.354-.356.354zM118.548 230.593H90.462a.354.354 0 1 1 0-.708h28.086c.196 0 .355.159.355.354a.361.361 0 0 1-.355.354zM94.614 227.512h-7.217a.362.362 0 0 1-.355-.354c0-.196.159-.354.355-.354h7.217c.197 0 .356.158.356.354a.362.362 0 0 1-.356.354zM196.906 186.587a.348.348 0 0 1-.346-.32c0-.114-1.371-11.955-9.236-20.804-8.007-9.033-10.339-21.706-10.367-21.827a.362.362 0 0 1 .059-.267.358.358 0 0 1 .231-.145c.19-.031.37.095.41.284 0 .128 2.324 12.616 10.197 21.486 8.013 9.027 9.391 21.088 9.405 21.209a.355.355 0 0 1-.31.391l-.043-.007zM199.803 187.88a.353.353 0 0 1-.346-.27c-.049-.213-1.279-5.366.318-16.297 1.597-10.931 11.25-20.789 11.342-20.889a.36.36 0 0 1 .502 0 .357.357 0 0 1 0 .505c-.092.099-9.575 9.744-11.144 20.483-1.569 10.74-.346 15.978-.332 16.028a.345.345 0 0 1-.036.268.337.337 0 0 1-.219.158l-.085.014z" fill="#263238"/>
    <path d="M199.803 192.408a.362.362 0 0 1-.346-.278c0-.128-3.236-13.418-5.144-26.859-1.908-13.44-.976-20.711-.969-20.782a.36.36 0 0 1 .396-.305.354.354 0 0 1 .304.398c0 .071-.933 7.235.968 20.611 1.901 13.376 5.102 26.66 5.131 26.795a.351.351 0 0 1-.255.427l-.085-.007z" fill="#263238"/>
    <path d="M177.946 146.479s-3.851.967-4.176-6.14c-.325-7.108 4.537-11.962 4.537-11.962s0 3.88 1.929 6.787 1.604 11.962-2.29 11.315zM193.698 147.773s-3.859.967-4.177-6.148c-.318-7.115 4.495-11.955 4.495-11.955s0 3.881 1.929 6.788c1.929 2.907 1.604 11.955-2.247 11.315zM209.605 154.297s-3.76-1.314-.156-7.441c3.604-6.127 10.282-7.527 10.282-7.527s-2.12 3.248-2.084 6.745c.035 3.497-5.173 10.86-8.042 8.223zM198.192 184.618s2.573-11.635 8.035-17.136a17.465 17.465 0 0 1 12.211-5.167s-6.423 2.587-8.353 7.754c-1.929 5.167-1.929 16.489-1.929 16.489h-21.85s.643-4.207-4.819-9.055c-5.463-4.847-14.487-8.081-14.487-8.081s9.964-3.554 17.031-.647c7.066 2.907 12.218 15.196 12.218 15.196l1.943.647z" fill="#4788D8"/>
    <path d="M207.845 213.062h-21.871l-2.558-24.89h26.987l-2.558 24.89z" fill="#fff"/>
    <path fill-rule="evenodd" clip-rule="evenodd" d="M185.974 213.41h21.864a.348.348 0 0 0 .354-.313l2.565-24.876a.345.345 0 0 0-.092-.277.347.347 0 0 0-.262-.114h-26.994a.368.368 0 0 0-.262.114.367.367 0 0 0-.085.277l2.566 24.876a.346.346 0 0 0 .346.313zm21.518-.711h-21.2l-2.488-24.165h26.182l-2.494 24.165z" fill="#263238"/>
    <path d="M183.918 193.054h25.984l.501-4.882h-26.987l.502 4.882z" fill="#263238"/>
    <path fill-rule="evenodd" clip-rule="evenodd" d="M183.918 193.388h25.984a.353.353 0 0 0 .353-.319l.502-4.883a.343.343 0 0 0-.092-.277.344.344 0 0 0-.262-.114h-26.994a.368.368 0 0 0-.262.114.366.366 0 0 0-.085.277l.502 4.883c.018.182.171.32.354.319zm25.666-.71h-25.348l-.432-4.172h26.211l-.431 4.172z" fill="#263238"/>
    <path fill="#fff" d="M180.844 183.324h32.139v5.821h-32.139z"/>
    <path fill-rule="evenodd" clip-rule="evenodd" d="M180.844 189.494h32.132a.357.357 0 0 0 .353-.37v-5.8a.354.354 0 0 0-.353-.355h-32.132a.354.354 0 0 0-.354.355v5.814c0 .197.158.356.354.356zm31.757-.711h-31.425l.021-5.103h31.404v5.103z" fill="#263238"/>
</svg>
