<svg width="18" height="18" fill="none" xmlns="http://www.w3.org/2000/svg">
    <path fill-rule="evenodd" clip-rule="evenodd" d="M2 9a7 7 0 1 1 14 0A7 7 0 0 1 2 9zm5.776 3.61c3.112 0 4.87-2.627 4.763-4.984.328-.236.611-.531.835-.868-.3.133-.623.223-.962.264.346-.208.612-.536.737-.927a3.342 3.342 0 0 1-1.064.407A1.677 1.677 0 0 0 9.23 8.03a4.756 4.756 0 0 1-3.454-1.75 1.678 1.678 0 0 0 .52 2.236 1.671 1.671 0 0 1-.76-.209A1.678 1.678 0 0 0 6.88 9.971a1.68 1.68 0 0 1-.757.029 1.68 1.68 0 0 0 1.566 1.164 3.371 3.371 0 0 1-2.48.693 4.74 4.74 0 0 0 2.567.753z" fill="#778AA3"/>
</svg>
